%TF.GenerationSoftware,KiCad,Pcbnew,9.0.6*%
%TF.CreationDate,2026-04-26T14:06:40-07:00*%
%TF.ProjectId,ee115-capstone,65653131-352d-4636-9170-73746f6e652e,rev?*%
%TF.SameCoordinates,Original*%
%TF.FileFunction,Paste,Top*%
%TF.FilePolarity,Positive*%
%FSLAX46Y46*%
G04 Gerber Fmt 4.6, Leading zero omitted, Abs format (unit mm)*
G04 Created by KiCad (PCBNEW 9.0.6) date 2026-04-26 14:06:40*
%MOMM*%
%LPD*%
G01*
G04 APERTURE LIST*
G04 Aperture macros list*
%AMRoundRect*
0 Rectangle with rounded corners*
0 $1 Rounding radius*
0 $2 $3 $4 $5 $6 $7 $8 $9 X,Y pos of 4 corners*
0 Add a 4 corners polygon primitive as box body*
4,1,4,$2,$3,$4,$5,$6,$7,$8,$9,$2,$3,0*
0 Add four circle primitives for the rounded corners*
1,1,$1+$1,$2,$3*
1,1,$1+$1,$4,$5*
1,1,$1+$1,$6,$7*
1,1,$1+$1,$8,$9*
0 Add four rect primitives between the rounded corners*
20,1,$1+$1,$2,$3,$4,$5,0*
20,1,$1+$1,$4,$5,$6,$7,0*
20,1,$1+$1,$6,$7,$8,$9,0*
20,1,$1+$1,$8,$9,$2,$3,0*%
%AMFreePoly0*
4,1,9,3.862500,-0.866500,0.737500,-0.866500,0.737500,-0.450000,-0.737500,-0.450000,-0.737500,0.450000,0.737500,0.450000,0.737500,0.866500,3.862500,0.866500,3.862500,-0.866500,3.862500,-0.866500,$1*%
G04 Aperture macros list end*
%ADD10RoundRect,0.250000X-0.250000X-0.475000X0.250000X-0.475000X0.250000X0.475000X-0.250000X0.475000X0*%
%ADD11RoundRect,0.250000X0.475000X-0.250000X0.475000X0.250000X-0.475000X0.250000X-0.475000X-0.250000X0*%
%ADD12RoundRect,0.250000X1.000000X0.650000X-1.000000X0.650000X-1.000000X-0.650000X1.000000X-0.650000X0*%
%ADD13RoundRect,0.250000X-0.262500X-0.450000X0.262500X-0.450000X0.262500X0.450000X-0.262500X0.450000X0*%
%ADD14RoundRect,0.250000X0.250000X0.475000X-0.250000X0.475000X-0.250000X-0.475000X0.250000X-0.475000X0*%
%ADD15R,0.558800X0.952500*%
%ADD16RoundRect,0.150000X-0.150000X0.587500X-0.150000X-0.587500X0.150000X-0.587500X0.150000X0.587500X0*%
%ADD17RoundRect,0.250000X0.450000X-0.262500X0.450000X0.262500X-0.450000X0.262500X-0.450000X-0.262500X0*%
%ADD18R,1.498600X0.431800*%
%ADD19RoundRect,0.250000X0.262500X0.450000X-0.262500X0.450000X-0.262500X-0.450000X0.262500X-0.450000X0*%
%ADD20R,0.900000X1.500000*%
%ADD21R,0.700000X0.700000*%
%ADD22R,0.558800X1.320800*%
%ADD23R,0.399999X0.850001*%
%ADD24RoundRect,0.250000X-0.450000X0.262500X-0.450000X-0.262500X0.450000X-0.262500X0.450000X0.262500X0*%
%ADD25R,0.558800X1.981200*%
%ADD26RoundRect,0.150000X0.200000X-0.150000X0.200000X0.150000X-0.200000X0.150000X-0.200000X-0.150000X0*%
%ADD27RoundRect,0.075000X0.910000X0.225000X-0.910000X0.225000X-0.910000X-0.225000X0.910000X-0.225000X0*%
%ADD28R,3.505200X0.939800*%
%ADD29R,11.125200X10.033000*%
%ADD30RoundRect,0.150000X-0.512500X-0.150000X0.512500X-0.150000X0.512500X0.150000X-0.512500X0.150000X0*%
%ADD31R,10.210800X3.505200*%
%ADD32R,0.876300X0.304800*%
%ADD33R,0.533400X1.460500*%
%ADD34RoundRect,0.225000X-0.225000X0.425000X-0.225000X-0.425000X0.225000X-0.425000X0.225000X0.425000X0*%
%ADD35FreePoly0,270.000000*%
%ADD36R,0.590000X1.150000*%
%ADD37R,0.298000X1.150000*%
%ADD38RoundRect,0.250000X-0.475000X0.250000X-0.475000X-0.250000X0.475000X-0.250000X0.475000X0.250000X0*%
%ADD39O,1.400000X0.449999*%
%ADD40RoundRect,0.150000X-0.200000X0.150000X-0.200000X-0.150000X0.200000X-0.150000X0.200000X0.150000X0*%
G04 APERTURE END LIST*
D10*
%TO.C,C18*%
X119390200Y-134583800D03*
X121290200Y-134583800D03*
%TD*%
%TO.C,C51*%
X103206700Y-151785200D03*
X105106700Y-151785200D03*
%TD*%
D11*
%TO.C,C27*%
X140975200Y-155239171D03*
X140975200Y-153339171D03*
%TD*%
%TO.C,C26*%
X137925200Y-155239171D03*
X137925200Y-153339171D03*
%TD*%
D12*
%TO.C,D5*%
X95200000Y-166100000D03*
X91200000Y-166100000D03*
%TD*%
D10*
%TO.C,C11*%
X77150000Y-128785200D03*
X79050000Y-128785200D03*
%TD*%
D13*
%TO.C,R42*%
X155562501Y-185815200D03*
X157387501Y-185815200D03*
%TD*%
D14*
%TO.C,C25*%
X145600000Y-101964800D03*
X143700000Y-101964800D03*
%TD*%
D15*
%TO.C,U21*%
X140947300Y-157750000D03*
X139997299Y-157750000D03*
X139047298Y-157750000D03*
X139047298Y-160302700D03*
X140947300Y-160302700D03*
%TD*%
D16*
%TO.C,Q4*%
X122050000Y-162750000D03*
X120150000Y-162750000D03*
X121100000Y-164625000D03*
%TD*%
D17*
%TO.C,R4*%
X74765200Y-147712500D03*
X74765200Y-145887500D03*
%TD*%
%TO.C,R41*%
X111065200Y-127162500D03*
X111065200Y-125337500D03*
%TD*%
D15*
%TO.C,U8*%
X155284999Y-172926349D03*
X156235000Y-172926349D03*
X157185001Y-172926349D03*
X157185001Y-170373649D03*
X155284999Y-170373649D03*
%TD*%
D10*
%TO.C,C2*%
X91650000Y-99000000D03*
X93550000Y-99000000D03*
%TD*%
D18*
%TO.C,U4*%
X103829400Y-117929000D03*
X103829400Y-117294000D03*
X103829400Y-116633600D03*
X103829400Y-115998600D03*
X99460600Y-115998600D03*
X99460600Y-116633600D03*
X99460600Y-117294000D03*
X99460600Y-117929000D03*
%TD*%
D17*
%TO.C,R40*%
X113215200Y-127162500D03*
X113215200Y-125337500D03*
%TD*%
D10*
%TO.C,C47*%
X130600000Y-141735200D03*
X132500000Y-141735200D03*
%TD*%
D17*
%TO.C,R13*%
X122415200Y-181362500D03*
X122415200Y-179537500D03*
%TD*%
D19*
%TO.C,Re1*%
X151006250Y-156972300D03*
X149181250Y-156972300D03*
%TD*%
D11*
%TO.C,C8*%
X109985200Y-132100000D03*
X109985200Y-130200000D03*
%TD*%
D20*
%TO.C,U5*%
X77450000Y-124410000D03*
X78950000Y-124410000D03*
X80450000Y-124410000D03*
X81950000Y-124410000D03*
X83450000Y-124410000D03*
X84950000Y-124410000D03*
X86450000Y-124410000D03*
X87950000Y-124410000D03*
X89450000Y-124410000D03*
X89450000Y-106910000D03*
X87950000Y-106910000D03*
X86450000Y-106910000D03*
X84950000Y-106910000D03*
X83450000Y-106910000D03*
X81950000Y-106910000D03*
X80450000Y-106910000D03*
X78950000Y-106910000D03*
X77450000Y-106910000D03*
D21*
X82550000Y-115800000D03*
X82550000Y-114700000D03*
X82550000Y-113600000D03*
X83650000Y-115800000D03*
X83650000Y-114700000D03*
X83650000Y-113600000D03*
X84750000Y-115800000D03*
X84750000Y-114700000D03*
X84750000Y-113600000D03*
%TD*%
D12*
%TO.C,D1*%
X95400000Y-96100000D03*
X91400000Y-96100000D03*
%TD*%
D22*
%TO.C,U7*%
X107050000Y-124806800D03*
X106110200Y-124806800D03*
X105170400Y-124806800D03*
X105170400Y-127550000D03*
X107050000Y-127550000D03*
%TD*%
D23*
%TO.C,U11*%
X164299999Y-166749998D03*
X164950000Y-166749998D03*
X165599999Y-166749998D03*
X165599999Y-164849999D03*
X164299999Y-164849999D03*
%TD*%
D24*
%TO.C,R35*%
X143084800Y-125337500D03*
X143084800Y-127162500D03*
%TD*%
D17*
%TO.C,R34*%
X157815200Y-137262500D03*
X157815200Y-135437500D03*
%TD*%
D15*
%TO.C,U9*%
X161208651Y-170473650D03*
X160258650Y-170473650D03*
X159308649Y-170473650D03*
X159308649Y-173026350D03*
X161208651Y-173026350D03*
%TD*%
D17*
%TO.C,R26*%
X133065200Y-163912500D03*
X133065200Y-162087500D03*
%TD*%
%TO.C,R39*%
X131915200Y-113662500D03*
X131915200Y-111837500D03*
%TD*%
%TO.C,R25*%
X164373850Y-171075000D03*
X164373850Y-169250000D03*
%TD*%
D11*
%TO.C,C28*%
X143875200Y-155289171D03*
X143875200Y-153389171D03*
%TD*%
D14*
%TO.C,C4*%
X102000000Y-96814800D03*
X100100000Y-96814800D03*
%TD*%
D13*
%TO.C,R3*%
X101037500Y-98915200D03*
X102862500Y-98915200D03*
%TD*%
D14*
%TO.C,C1*%
X101960000Y-113710000D03*
X100060000Y-113710000D03*
%TD*%
D17*
%TO.C,R52*%
X139655200Y-144839171D03*
X139655200Y-143014171D03*
%TD*%
D13*
%TO.C,R1*%
X100237500Y-109515200D03*
X102062500Y-109515200D03*
%TD*%
D19*
%TO.C,R19*%
X86362500Y-128984800D03*
X84537500Y-128984800D03*
%TD*%
D14*
%TO.C,C6*%
X94100000Y-114214800D03*
X92200000Y-114214800D03*
%TD*%
D11*
%TO.C,C13*%
X115485200Y-132050000D03*
X115485200Y-130150000D03*
%TD*%
D24*
%TO.C,R10*%
X90829710Y-100900311D03*
X90829710Y-102725311D03*
%TD*%
D17*
%TO.C,R32*%
X139655200Y-151764171D03*
X139655200Y-149939171D03*
%TD*%
D10*
%TO.C,C7*%
X105300000Y-129835200D03*
X107200000Y-129835200D03*
%TD*%
D14*
%TO.C,C30*%
X154543750Y-155514800D03*
X152643750Y-155514800D03*
%TD*%
D23*
%TO.C,U10*%
X153775000Y-165337499D03*
X154425001Y-165337499D03*
X155075000Y-165337499D03*
X155075000Y-163437500D03*
X153775000Y-163437500D03*
%TD*%
D14*
%TO.C,C32*%
X154543750Y-149774800D03*
X152643750Y-149774800D03*
%TD*%
D10*
%TO.C,C23*%
X127050000Y-111285200D03*
X128950000Y-111285200D03*
%TD*%
D25*
%TO.C,U1*%
X100540000Y-106827600D03*
X101810000Y-106827600D03*
X103080000Y-106827600D03*
X104350000Y-106827600D03*
X104350000Y-101900000D03*
X103080000Y-101900000D03*
X101810000Y-101900000D03*
X100540000Y-101900000D03*
%TD*%
D26*
%TO.C,D3*%
X132700000Y-165950000D03*
X132700000Y-167350000D03*
%TD*%
D14*
%TO.C,C37*%
X158093750Y-148414800D03*
X156193750Y-148414800D03*
%TD*%
D17*
%TO.C,R5*%
X72065200Y-147712500D03*
X72065200Y-145887500D03*
%TD*%
D14*
%TO.C,C34*%
X158093750Y-157002300D03*
X156193750Y-157002300D03*
%TD*%
D17*
%TO.C,R46*%
X137915200Y-148314171D03*
X137915200Y-146489171D03*
%TD*%
D10*
%TO.C,C15*%
X119350000Y-143885200D03*
X121250000Y-143885200D03*
%TD*%
D13*
%TO.C,R2*%
X104737500Y-99015200D03*
X106562500Y-99015200D03*
%TD*%
D10*
%TO.C,C14*%
X119350000Y-140875200D03*
X121250000Y-140875200D03*
%TD*%
D19*
%TO.C,R14*%
X97000000Y-98900000D03*
X95175000Y-98900000D03*
%TD*%
D27*
%TO.C,U3*%
X97465000Y-123705000D03*
X97465000Y-122435000D03*
X97465000Y-121165000D03*
X97465000Y-119895000D03*
X92525000Y-119895000D03*
X92525000Y-121165000D03*
X92525000Y-122435000D03*
X92525000Y-123705000D03*
%TD*%
D11*
%TO.C,C20*%
X135075200Y-155239171D03*
X135075200Y-153339171D03*
%TD*%
D19*
%TO.C,R17*%
X80162500Y-104784800D03*
X78337500Y-104784800D03*
%TD*%
D10*
%TO.C,C46*%
X148400000Y-117635200D03*
X150300000Y-117635200D03*
%TD*%
D17*
%TO.C,R28*%
X134930200Y-144839171D03*
X134930200Y-143014171D03*
%TD*%
D10*
%TO.C,C50*%
X103200000Y-160335200D03*
X105100000Y-160335200D03*
%TD*%
D19*
%TO.C,Re2*%
X151006250Y-154109800D03*
X149181250Y-154109800D03*
%TD*%
D14*
%TO.C,C41*%
X160250000Y-168657299D03*
X158350000Y-168657299D03*
%TD*%
D17*
%TO.C,R48*%
X143865200Y-148314171D03*
X143865200Y-146489171D03*
%TD*%
D14*
%TO.C,C39*%
X150818750Y-145324800D03*
X148918750Y-145324800D03*
%TD*%
D19*
%TO.C,R16*%
X108962500Y-122434800D03*
X107137500Y-122434800D03*
%TD*%
D17*
%TO.C,R27*%
X133405200Y-151751671D03*
X133405200Y-149926671D03*
%TD*%
D14*
%TO.C,C5*%
X94510000Y-125774800D03*
X92610000Y-125774800D03*
%TD*%
%TO.C,C45*%
X122250000Y-123864800D03*
X120350000Y-123864800D03*
%TD*%
D19*
%TO.C,R18*%
X86462500Y-126584800D03*
X84637500Y-126584800D03*
%TD*%
D13*
%TO.C,R11*%
X122435000Y-174790200D03*
X124260000Y-174790200D03*
%TD*%
D11*
%TO.C,C29*%
X146675200Y-155289171D03*
X146675200Y-153389171D03*
%TD*%
D10*
%TO.C,C19*%
X119390200Y-137593800D03*
X121290200Y-137593800D03*
%TD*%
D17*
%TO.C,R47*%
X140965200Y-148314171D03*
X140965200Y-146489171D03*
%TD*%
D11*
%TO.C,C16*%
X98700000Y-102850000D03*
X98700000Y-100950000D03*
%TD*%
D28*
%TO.C,U22*%
X98871000Y-161140000D03*
X98871000Y-156060000D03*
D29*
X89600000Y-158600000D03*
%TD*%
D19*
%TO.C,Re3*%
X151006250Y-151247300D03*
X149181250Y-151247300D03*
%TD*%
D11*
%TO.C,C12*%
X112475200Y-132050000D03*
X112475200Y-130150000D03*
%TD*%
D30*
%TO.C,U6*%
X93600000Y-100750000D03*
X93600000Y-101700000D03*
X93600000Y-102650000D03*
X95875000Y-102650000D03*
X95875000Y-100750000D03*
%TD*%
D31*
%TO.C,L1*%
X114300000Y-155752000D03*
X114300000Y-149148000D03*
%TD*%
D10*
%TO.C,C10*%
X129200000Y-165935200D03*
X131100000Y-165935200D03*
%TD*%
D24*
%TO.C,R9*%
X78229710Y-101000311D03*
X78229710Y-102825311D03*
%TD*%
D17*
%TO.C,R23*%
X164373850Y-174725000D03*
X164373850Y-172900000D03*
%TD*%
%TO.C,R21*%
X156648849Y-178650000D03*
X156648849Y-176825000D03*
%TD*%
D19*
%TO.C,R6*%
X96062500Y-117384800D03*
X94237500Y-117384800D03*
%TD*%
D17*
%TO.C,R33*%
X142605200Y-151701671D03*
X142605200Y-149876671D03*
%TD*%
%TO.C,R8*%
X150715200Y-181012500D03*
X150715200Y-179187500D03*
%TD*%
D14*
%TO.C,C42*%
X156033649Y-174764800D03*
X154133649Y-174764800D03*
%TD*%
%TO.C,C21*%
X154543750Y-158384800D03*
X152643750Y-158384800D03*
%TD*%
D19*
%TO.C,R67*%
X151006250Y-159834800D03*
X149181250Y-159834800D03*
%TD*%
D17*
%TO.C,R31*%
X136705200Y-151751671D03*
X136705200Y-149926671D03*
%TD*%
D19*
%TO.C,R15*%
X105362500Y-122434800D03*
X103537500Y-122434800D03*
%TD*%
D32*
%TO.C,U20*%
X154662500Y-144360000D03*
X154662500Y-143710001D03*
X154662500Y-143060002D03*
X152440000Y-143060002D03*
X152440000Y-144360000D03*
%TD*%
D13*
%TO.C,R36*%
X127087500Y-115715200D03*
X128912500Y-115715200D03*
%TD*%
D10*
%TO.C,C17*%
X119390200Y-131573800D03*
X121290200Y-131573800D03*
%TD*%
D17*
%TO.C,R38*%
X123115200Y-112412500D03*
X123115200Y-110587500D03*
%TD*%
D33*
%TO.C,U17*%
X127395000Y-163974150D03*
X128665000Y-163974150D03*
X129935000Y-163974150D03*
X131205000Y-163974150D03*
X131205000Y-158525850D03*
X129935000Y-158525850D03*
X128665000Y-158525850D03*
X127395000Y-158525850D03*
%TD*%
D11*
%TO.C,C49*%
X138561450Y-174085000D03*
X138561450Y-172185000D03*
%TD*%
D19*
%TO.C,R7*%
X99792500Y-127334800D03*
X97967500Y-127334800D03*
%TD*%
D17*
%TO.C,R50*%
X135065200Y-148326671D03*
X135065200Y-146501671D03*
%TD*%
D14*
%TO.C,C38*%
X125800000Y-164914800D03*
X123900000Y-164914800D03*
%TD*%
D19*
%TO.C,Re4*%
X151006250Y-148384800D03*
X149181250Y-148384800D03*
%TD*%
%TO.C,R24*%
X79062500Y-126584800D03*
X77237500Y-126584800D03*
%TD*%
D10*
%TO.C,C9*%
X158633649Y-176685200D03*
X160533649Y-176685200D03*
%TD*%
D17*
%TO.C,R51*%
X137292700Y-144839171D03*
X137292700Y-143014171D03*
%TD*%
%TO.C,R12*%
X126995200Y-168600000D03*
X126995200Y-166775000D03*
%TD*%
D34*
%TO.C,U14*%
X141726250Y-175735000D03*
D35*
X140226250Y-175822500D03*
D34*
X138726250Y-175735000D03*
%TD*%
D16*
%TO.C,Q5*%
X123000000Y-156862500D03*
X121100000Y-156862500D03*
X122050000Y-158737500D03*
%TD*%
D36*
%TO.C,J1*%
X87844910Y-102662811D03*
X87044910Y-102662811D03*
D37*
X85894910Y-102662811D03*
X84894910Y-102662811D03*
X84394910Y-102662811D03*
X83394910Y-102662811D03*
D36*
X81444910Y-102662811D03*
X82244910Y-102662811D03*
D37*
X82894910Y-102662811D03*
X83894910Y-102662811D03*
X85394910Y-102662811D03*
X86394910Y-102662811D03*
%TD*%
D13*
%TO.C,R44*%
X150700001Y-188215200D03*
X152525001Y-188215200D03*
%TD*%
D17*
%TO.C,R45*%
X145815200Y-99612500D03*
X145815200Y-97787500D03*
%TD*%
D11*
%TO.C,C40*%
X142882498Y-160300000D03*
X142882498Y-158400000D03*
%TD*%
D38*
%TO.C,C48*%
X141891050Y-172135000D03*
X141891050Y-174035000D03*
%TD*%
D39*
%TO.C,U2*%
X97950001Y-112400000D03*
X97950001Y-111749999D03*
X97950001Y-111100000D03*
X97950001Y-110449999D03*
X97950001Y-109800000D03*
X97950001Y-109149999D03*
X97950001Y-108500000D03*
X97950001Y-107849999D03*
X92050000Y-107849999D03*
X92050000Y-108500000D03*
X92050000Y-109149999D03*
X92050000Y-109800000D03*
X92050000Y-110449999D03*
X92050000Y-111100000D03*
X92050000Y-111749999D03*
X92050000Y-112400000D03*
%TD*%
D14*
%TO.C,C33*%
X154543750Y-146904800D03*
X152643750Y-146904800D03*
%TD*%
%TO.C,C35*%
X158093750Y-154139800D03*
X156193750Y-154139800D03*
%TD*%
D17*
%TO.C,R29*%
X146390200Y-148295421D03*
X146390200Y-146470421D03*
%TD*%
D24*
%TO.C,R37*%
X121784800Y-119587500D03*
X121784800Y-121412500D03*
%TD*%
D17*
%TO.C,R53*%
X142017700Y-144839171D03*
X142017700Y-143014171D03*
%TD*%
D10*
%TO.C,C44*%
X161773650Y-162790200D03*
X163673650Y-162790200D03*
%TD*%
D17*
%TO.C,R22*%
X164373850Y-178425000D03*
X164373850Y-176600000D03*
%TD*%
D14*
%TO.C,C22*%
X158093750Y-159864800D03*
X156193750Y-159864800D03*
%TD*%
%TO.C,C31*%
X154543750Y-152644800D03*
X152643750Y-152644800D03*
%TD*%
%TO.C,C36*%
X158093750Y-151277300D03*
X156193750Y-151277300D03*
%TD*%
D17*
%TO.C,R49*%
X103215200Y-148512500D03*
X103215200Y-146687500D03*
%TD*%
D11*
%TO.C,C24*%
X120485200Y-112400000D03*
X120485200Y-110500000D03*
%TD*%
D40*
%TO.C,D4*%
X158975001Y-188100000D03*
X158975001Y-186700000D03*
%TD*%
D17*
%TO.C,R54*%
X144380200Y-144839171D03*
X144380200Y-143014171D03*
%TD*%
D13*
%TO.C,R43*%
X145887501Y-188215200D03*
X147712501Y-188215200D03*
%TD*%
D17*
%TO.C,R20*%
X160990201Y-188162500D03*
X160990201Y-186337500D03*
%TD*%
D10*
%TO.C,C3*%
X122400000Y-177185200D03*
X124300000Y-177185200D03*
%TD*%
D17*
%TO.C,R30*%
X145605200Y-151751671D03*
X145605200Y-149926671D03*
%TD*%
D11*
%TO.C,C43*%
X151900000Y-165410000D03*
X151900000Y-163510000D03*
%TD*%
M02*
