M48
; DRILL file {KiCad 9.0.6} date 2026-04-26T14:06:45-0700
; FORMAT={-:-/ absolute / metric / decimal}
; #@! TF.CreationDate,2026-04-26T14:06:45-07:00
; #@! TF.GenerationSoftware,Kicad,Pcbnew,9.0.6
; #@! TF.FileFunction,Plated,1,2,PTH
FMAT,2
METRIC
; #@! TA.AperFunction,Plated,PTH,ViaDrill
T1C0.300
; #@! TA.AperFunction,Plated,PTH,ComponentDrill
T2C0.300
; #@! TA.AperFunction,Plated,PTH,ComponentDrill
T3C0.600
; #@! TA.AperFunction,Plated,PTH,ComponentDrill
T4C0.750
; #@! TA.AperFunction,Plated,PTH,ComponentDrill
T5C0.790
; #@! TA.AperFunction,Plated,PTH,ComponentDrill
T6C0.813
; #@! TA.AperFunction,Plated,PTH,ComponentDrill
T7C0.864
; #@! TA.AperFunction,Plated,PTH,ComponentDrill
T8C1.100
; #@! TA.AperFunction,Plated,PTH,ComponentDrill
T9C1.190
; #@! TA.AperFunction,Plated,PTH,ComponentDrill
T10C1.200
; #@! TA.AperFunction,Plated,PTH,ComponentDrill
T11C1.753
; #@! TA.AperFunction,Plated,PTH,ComponentDrill
T12C2.000
%
G90
G05
T1
X59.85Y-110.24
X59.9Y-100.08
X59.92Y-105.3
X60.35Y-123.33
X61.54Y-130.95
X62.975Y-176.175
X63.23Y-95.09
X63.8Y-146.15
X63.8Y-152.95
X63.925Y-163.7
X64.54Y-105.12
X65.75Y-138.65
X67.15Y-99.05
X67.5Y-111.5
X67.76Y-125.85
X68.8Y-188.725
X69.41Y-103.16
X69.649Y-124.96
X69.83Y-95.16
X70.849Y-125.42
X70.85Y-137.55
X73.2Y-152.95
X73.7Y-101.65
X74.152Y-126.152
X75.4Y-95.24
X75.55Y-126.6
X76.0Y-128.8
X76.946Y-105.201
X77.75Y-117.94
X77.85Y-137.3
X77.964Y-127.326
X78.25Y-100.233
X79.975Y-163.4
X80.1Y-108.3
X80.4Y-176.9
X81.3Y-127.97
X81.57Y-121.89
X81.95Y-95.14
X82.25Y-141.076
X82.25Y-142.35
X82.85Y-154.74
X83.1Y-137.25
X83.4Y-188.65
X84.06Y-146.0
X84.63Y-140.35
X86.41Y-104.81
X86.62Y-121.56
X86.7Y-118.2
X88.25Y-95.09
X88.37Y-109.61
X88.6Y-115.75
X88.85Y-125.637
X88.87Y-122.17
X89.05Y-113.0
X89.45Y-124.41
X89.5Y-128.15
X89.629Y-121.917
X89.68Y-129.66
X89.82Y-148.55
X90.25Y-113.55
X90.25Y-116.25
X90.4Y-123.74
X90.55Y-155.95
X90.669Y-115.569
X90.816Y-119.034
X91.15Y-124.365
X91.6Y-126.346
X91.8Y-133.61
X92.3Y-103.2
X94.0Y-122.5
X94.05Y-128.3
X94.66Y-137.33
X95.09Y-125.87
X95.1Y-123.7
X95.15Y-160.5
X95.25Y-114.2
X95.425Y-164.35
X95.575Y-177.05
X95.95Y-120.565
X95.95Y-123.7
X96.21Y-127.1
X96.48Y-128.39
X96.65Y-111.8
X96.75Y-109.1
X96.751Y-107.924
X97.465Y-118.5
X97.7Y-101.8
X97.9Y-95.0
X97.95Y-112.475
X98.1Y-117.4
X98.13Y-128.95
X98.195Y-96.937
X98.21Y-107.973
X98.21Y-110.327
X98.3Y-125.25
X98.335Y-135.855
X98.375Y-104.825
X99.05Y-126.45
X99.18Y-133.949
X99.234Y-134.956
X99.38Y-106.5
X99.42Y-150.17
X99.461Y-115.35
X99.5Y-189.075
X99.925Y-139.225
X100.252Y-135.027
X100.54Y-101.9
X100.85Y-116.3
X101.004Y-112.226
X101.869Y-117.319
X102.05Y-96.8
X102.77Y-133.84
X102.8Y-123.98
X103.2Y-139.67
X103.459Y-138.313
X103.859Y-109.827
X104.11Y-140.99
X104.3Y-124.59
X104.4Y-129.8
X105.129Y-102.02
X105.16Y-106.86
X105.795Y-117.505
X105.85Y-137.15
X105.857Y-151.8
X106.65Y-97.7
X106.83Y-116.42
X108.1Y-163.25
X108.9Y-123.75
X109.975Y-141.35
X110.0Y-134.125
X110.35Y-166.0
X110.964Y-107.85
X111.48Y-160.78
X111.893Y-115.663
X112.725Y-137.175
X115.425Y-134.125
X115.475Y-141.425
X117.0Y-107.85
X117.697Y-166.553
X118.35Y-115.35
X118.6Y-107.3
X118.729Y-119.135
X119.0Y-178.4
X119.425Y-128.5
X119.6Y-123.85
X120.45Y-107.35
X120.85Y-167.2
X121.7Y-185.6
X121.8Y-119.587
X121.84Y-149.46
X121.85Y-153.8
X121.9Y-166.4
X123.1Y-109.3
X123.11Y-158.56
X123.95Y-164.2
X124.55Y-179.5
X124.65Y-130.8
X124.65Y-136.1
X124.7Y-144.6
X126.6Y-149.45
X126.6Y-153.8
X126.995Y-166.438
X128.2Y-185.6
X129.35Y-127.15
X130.25Y-104.3
X130.8Y-176.05
X131.35Y-148.701
X131.5Y-156.43
X131.75Y-136.3
X131.95Y-110.25
X132.5Y-117.8
X133.3Y-172.45
X133.44Y-141.59
X135.65Y-185.7
X136.8Y-133.05
X136.831Y-129.631
X136.85Y-162.65
X137.99Y-95.39
X138.65Y-170.65
X140.03Y-157.629
X140.1Y-180.8
X141.65Y-124.8
X141.8Y-161.05
X141.9Y-170.7
X142.375Y-101.875
X143.761Y-124.353
X143.95Y-137.95
X144.5Y-169.35
X144.55Y-162.1
X144.8Y-157.25
X145.342Y-114.958
X145.35Y-112.95
X146.3Y-142.75
X147.452Y-144.811
X148.47Y-105.6
X149.0Y-174.05
X150.175Y-172.9
X150.35Y-118.275
X150.43Y-105.63
X152.0Y-145.2
X152.085Y-166.176
X154.084Y-173.43
X154.58Y-103.27
X154.9Y-188.6
X155.3Y-171.3
X155.5Y-145.2
X155.62Y-123.96
X155.694Y-143.61
X155.75Y-128.5
X156.975Y-180.525
X157.52Y-170.54
X158.3Y-168.017
X158.332Y-171.432
X160.525Y-162.8
X160.8Y-174.675
X160.97Y-114.03
X162.99Y-130.08
X163.03Y-159.01
X163.08Y-146.52
X163.125Y-181.15
X164.425Y-168.025
X166.1Y-145.3
X168.2Y-145.2
X171.64Y-98.46
T2
X82.55Y-114.15
X82.55Y-115.25
X83.1Y-113.6
X83.1Y-114.7
X83.1Y-115.8
X83.65Y-114.15
X83.65Y-115.25
X84.2Y-113.6
X84.2Y-114.7
X84.2Y-115.8
X84.75Y-114.15
X84.75Y-115.25
T4
X67.9Y-127.45
X67.9Y-129.45
X67.9Y-131.45
X72.95Y-140.5
X74.95Y-140.5
X76.95Y-140.5
X78.95Y-140.5
X118.1Y-185.65
X120.1Y-185.65
X123.13Y-167.7
X123.13Y-170.24
X124.4Y-168.97
T5
X138.73Y-131.442
X138.73Y-139.382
X141.27Y-131.442
X141.27Y-139.382
X143.81Y-131.442
X143.81Y-139.382
X146.35Y-131.442
X146.35Y-139.382
X148.89Y-131.442
X148.89Y-139.382
X151.43Y-131.442
X151.43Y-139.382
X153.97Y-131.442
X153.97Y-139.382
T6
X138.366Y-107.429
X138.366Y-115.303
X141.16Y-107.429
X141.16Y-115.303
X143.954Y-107.429
X143.954Y-115.303
X146.748Y-107.429
X146.748Y-115.303
X149.542Y-107.429
X149.542Y-115.303
X152.336Y-107.429
X152.336Y-115.303
X155.13Y-107.429
X155.13Y-115.303
T7
X124.04Y-118.69
X124.04Y-121.23
X124.04Y-123.77
X124.04Y-126.31
X125.59Y-132.04
X125.59Y-139.66
X128.13Y-132.04
X128.13Y-139.66
X130.67Y-132.04
X130.67Y-139.66
X131.66Y-118.69
X131.66Y-121.23
X131.66Y-123.77
X131.66Y-126.31
X133.21Y-132.04
X133.21Y-139.66
X145.84Y-121.19
X145.84Y-128.81
X148.38Y-121.19
X148.38Y-128.81
X150.92Y-121.19
X150.92Y-128.81
X153.46Y-121.19
X153.46Y-128.81
T8
X72.35Y-131.8
X72.35Y-136.3
X78.85Y-131.8
X78.85Y-136.3
X82.1Y-131.75
X82.1Y-136.25
X88.6Y-131.75
X88.6Y-136.25
X114.8Y-115.85
X114.8Y-118.39
X114.8Y-120.93
X119.18Y-167.81
X119.18Y-170.35
X119.18Y-172.89
X127.5Y-171.05
X127.5Y-177.55
X132.0Y-171.05
X132.0Y-177.55
X149.42Y-97.56
X149.42Y-100.1
X149.42Y-102.64
X158.06Y-183.05
X160.6Y-183.05
X163.14Y-183.05
T9
X64.63Y-100.4
X67.17Y-100.4
X69.71Y-100.4
X72.25Y-100.4
T10
X146.75Y-183.766
X149.29Y-183.766
X151.83Y-183.766
T11
X93.7Y-172.103
X93.7Y-176.7
T12
X67.45Y-122.8
X78.45Y-147.6
X93.69Y-105.65
X94.2Y-130.85
X100.05Y-130.9
X100.55Y-120.15
X100.55Y-124.35
X114.3Y-144.35
X114.347Y-109.75
X116.55Y-159.7
X118.4Y-120.65
X124.5Y-162.0
X125.45Y-156.15
X126.68Y-189.43
X132.3Y-146.452
X134.65Y-121.55
X134.65Y-125.25
X138.35Y-118.45
X140.35Y-128.55
X141.95Y-181.9
X142.45Y-122.35
X142.95Y-97.6
X144.65Y-166.3
X146.1Y-160.5
X152.775Y-169.837
X152.95Y-118.25
X153.5Y-180.0
X155.775Y-167.787
X157.834Y-163.65
X158.1Y-132.6
X158.66Y-109.79
X161.2Y-165.8
X164.075Y-187.425
T3
G00X80.325Y-98.688
M15
G01X80.325Y-97.488
M16
G05
G00X80.325Y-102.488
M15
G01X80.325Y-101.688
M16
G05
G00X88.965Y-98.688
M15
G01X88.965Y-97.488
M16
G05
G00X88.965Y-102.488
M15
G01X88.965Y-101.688
M16
G05
M30
