%TF.GenerationSoftware,KiCad,Pcbnew,9.0.6*%
%TF.CreationDate,2026-04-26T14:06:40-07:00*%
%TF.ProjectId,ee115-capstone,65653131-352d-4636-9170-73746f6e652e,rev?*%
%TF.SameCoordinates,Original*%
%TF.FileFunction,Legend,Top*%
%TF.FilePolarity,Positive*%
%FSLAX46Y46*%
G04 Gerber Fmt 4.6, Leading zero omitted, Abs format (unit mm)*
G04 Created by KiCad (PCBNEW 9.0.6) date 2026-04-26 14:06:40*
%MOMM*%
%LPD*%
G01*
G04 APERTURE LIST*
%ADD10C,0.300000*%
%ADD11C,0.150000*%
%ADD12C,0.120000*%
%ADD13C,0.152400*%
%ADD14C,0.100000*%
%ADD15C,0.127000*%
%ADD16C,0.200000*%
G04 APERTURE END LIST*
D10*
X69504510Y-172180534D02*
X69718796Y-172251962D01*
X69718796Y-172251962D02*
X69790225Y-172323391D01*
X69790225Y-172323391D02*
X69861653Y-172466248D01*
X69861653Y-172466248D02*
X69861653Y-172680534D01*
X69861653Y-172680534D02*
X69790225Y-172823391D01*
X69790225Y-172823391D02*
X69718796Y-172894820D01*
X69718796Y-172894820D02*
X69575939Y-172966248D01*
X69575939Y-172966248D02*
X69004510Y-172966248D01*
X69004510Y-172966248D02*
X69004510Y-171466248D01*
X69004510Y-171466248D02*
X69504510Y-171466248D01*
X69504510Y-171466248D02*
X69647368Y-171537677D01*
X69647368Y-171537677D02*
X69718796Y-171609105D01*
X69718796Y-171609105D02*
X69790225Y-171751962D01*
X69790225Y-171751962D02*
X69790225Y-171894820D01*
X69790225Y-171894820D02*
X69718796Y-172037677D01*
X69718796Y-172037677D02*
X69647368Y-172109105D01*
X69647368Y-172109105D02*
X69504510Y-172180534D01*
X69504510Y-172180534D02*
X69004510Y-172180534D01*
X70361653Y-171966248D02*
X70718796Y-172966248D01*
X71075939Y-171966248D02*
X70718796Y-172966248D01*
X70718796Y-172966248D02*
X70575939Y-173323391D01*
X70575939Y-173323391D02*
X70504510Y-173394820D01*
X70504510Y-173394820D02*
X70361653Y-173466248D01*
X71647367Y-172823391D02*
X71718796Y-172894820D01*
X71718796Y-172894820D02*
X71647367Y-172966248D01*
X71647367Y-172966248D02*
X71575939Y-172894820D01*
X71575939Y-172894820D02*
X71647367Y-172823391D01*
X71647367Y-172823391D02*
X71647367Y-172966248D01*
X71647367Y-172037677D02*
X71718796Y-172109105D01*
X71718796Y-172109105D02*
X71647367Y-172180534D01*
X71647367Y-172180534D02*
X71575939Y-172109105D01*
X71575939Y-172109105D02*
X71647367Y-172037677D01*
X71647367Y-172037677D02*
X71647367Y-172180534D01*
X69718796Y-175381164D02*
X69004510Y-175381164D01*
X69004510Y-175381164D02*
X69004510Y-173881164D01*
X70218796Y-175381164D02*
X70218796Y-174381164D01*
X70218796Y-173881164D02*
X70147368Y-173952593D01*
X70147368Y-173952593D02*
X70218796Y-174024021D01*
X70218796Y-174024021D02*
X70290225Y-173952593D01*
X70290225Y-173952593D02*
X70218796Y-173881164D01*
X70218796Y-173881164D02*
X70218796Y-174024021D01*
X71575940Y-175381164D02*
X71575940Y-174595450D01*
X71575940Y-174595450D02*
X71504511Y-174452593D01*
X71504511Y-174452593D02*
X71361654Y-174381164D01*
X71361654Y-174381164D02*
X71075940Y-174381164D01*
X71075940Y-174381164D02*
X70933082Y-174452593D01*
X71575940Y-175309736D02*
X71433082Y-175381164D01*
X71433082Y-175381164D02*
X71075940Y-175381164D01*
X71075940Y-175381164D02*
X70933082Y-175309736D01*
X70933082Y-175309736D02*
X70861654Y-175166878D01*
X70861654Y-175166878D02*
X70861654Y-175024021D01*
X70861654Y-175024021D02*
X70933082Y-174881164D01*
X70933082Y-174881164D02*
X71075940Y-174809736D01*
X71075940Y-174809736D02*
X71433082Y-174809736D01*
X71433082Y-174809736D02*
X71575940Y-174738307D01*
X72290225Y-175381164D02*
X72290225Y-174381164D01*
X72290225Y-174524021D02*
X72361654Y-174452593D01*
X72361654Y-174452593D02*
X72504511Y-174381164D01*
X72504511Y-174381164D02*
X72718797Y-174381164D01*
X72718797Y-174381164D02*
X72861654Y-174452593D01*
X72861654Y-174452593D02*
X72933083Y-174595450D01*
X72933083Y-174595450D02*
X72933083Y-175381164D01*
X72933083Y-174595450D02*
X73004511Y-174452593D01*
X73004511Y-174452593D02*
X73147368Y-174381164D01*
X73147368Y-174381164D02*
X73361654Y-174381164D01*
X73361654Y-174381164D02*
X73504511Y-174452593D01*
X73504511Y-174452593D02*
X73575940Y-174595450D01*
X73575940Y-174595450D02*
X73575940Y-175381164D01*
X75361654Y-175309736D02*
X75575940Y-175381164D01*
X75575940Y-175381164D02*
X75933082Y-175381164D01*
X75933082Y-175381164D02*
X76075940Y-175309736D01*
X76075940Y-175309736D02*
X76147368Y-175238307D01*
X76147368Y-175238307D02*
X76218797Y-175095450D01*
X76218797Y-175095450D02*
X76218797Y-174952593D01*
X76218797Y-174952593D02*
X76147368Y-174809736D01*
X76147368Y-174809736D02*
X76075940Y-174738307D01*
X76075940Y-174738307D02*
X75933082Y-174666878D01*
X75933082Y-174666878D02*
X75647368Y-174595450D01*
X75647368Y-174595450D02*
X75504511Y-174524021D01*
X75504511Y-174524021D02*
X75433082Y-174452593D01*
X75433082Y-174452593D02*
X75361654Y-174309736D01*
X75361654Y-174309736D02*
X75361654Y-174166878D01*
X75361654Y-174166878D02*
X75433082Y-174024021D01*
X75433082Y-174024021D02*
X75504511Y-173952593D01*
X75504511Y-173952593D02*
X75647368Y-173881164D01*
X75647368Y-173881164D02*
X76004511Y-173881164D01*
X76004511Y-173881164D02*
X76218797Y-173952593D01*
X76718796Y-174381164D02*
X77004511Y-175381164D01*
X77004511Y-175381164D02*
X77290225Y-174666878D01*
X77290225Y-174666878D02*
X77575939Y-175381164D01*
X77575939Y-175381164D02*
X77861653Y-174381164D01*
X78433082Y-175381164D02*
X78433082Y-174381164D01*
X78433082Y-173881164D02*
X78361654Y-173952593D01*
X78361654Y-173952593D02*
X78433082Y-174024021D01*
X78433082Y-174024021D02*
X78504511Y-173952593D01*
X78504511Y-173952593D02*
X78433082Y-173881164D01*
X78433082Y-173881164D02*
X78433082Y-174024021D01*
X79075940Y-175309736D02*
X79218797Y-175381164D01*
X79218797Y-175381164D02*
X79504511Y-175381164D01*
X79504511Y-175381164D02*
X79647368Y-175309736D01*
X79647368Y-175309736D02*
X79718797Y-175166878D01*
X79718797Y-175166878D02*
X79718797Y-175095450D01*
X79718797Y-175095450D02*
X79647368Y-174952593D01*
X79647368Y-174952593D02*
X79504511Y-174881164D01*
X79504511Y-174881164D02*
X79290226Y-174881164D01*
X79290226Y-174881164D02*
X79147368Y-174809736D01*
X79147368Y-174809736D02*
X79075940Y-174666878D01*
X79075940Y-174666878D02*
X79075940Y-174595450D01*
X79075940Y-174595450D02*
X79147368Y-174452593D01*
X79147368Y-174452593D02*
X79290226Y-174381164D01*
X79290226Y-174381164D02*
X79504511Y-174381164D01*
X79504511Y-174381164D02*
X79647368Y-174452593D01*
X80147369Y-174381164D02*
X80718797Y-174381164D01*
X80361654Y-173881164D02*
X80361654Y-175166878D01*
X80361654Y-175166878D02*
X80433083Y-175309736D01*
X80433083Y-175309736D02*
X80575940Y-175381164D01*
X80575940Y-175381164D02*
X80718797Y-175381164D01*
X69004510Y-177796080D02*
X69004510Y-176296080D01*
X69004510Y-176296080D02*
X69504510Y-177367509D01*
X69504510Y-177367509D02*
X70004510Y-176296080D01*
X70004510Y-176296080D02*
X70004510Y-177796080D01*
X71361654Y-177796080D02*
X71361654Y-177010366D01*
X71361654Y-177010366D02*
X71290225Y-176867509D01*
X71290225Y-176867509D02*
X71147368Y-176796080D01*
X71147368Y-176796080D02*
X70861654Y-176796080D01*
X70861654Y-176796080D02*
X70718796Y-176867509D01*
X71361654Y-177724652D02*
X71218796Y-177796080D01*
X71218796Y-177796080D02*
X70861654Y-177796080D01*
X70861654Y-177796080D02*
X70718796Y-177724652D01*
X70718796Y-177724652D02*
X70647368Y-177581794D01*
X70647368Y-177581794D02*
X70647368Y-177438937D01*
X70647368Y-177438937D02*
X70718796Y-177296080D01*
X70718796Y-177296080D02*
X70861654Y-177224652D01*
X70861654Y-177224652D02*
X71218796Y-177224652D01*
X71218796Y-177224652D02*
X71361654Y-177153223D01*
X71861654Y-176796080D02*
X72433082Y-176796080D01*
X72075939Y-176296080D02*
X72075939Y-177581794D01*
X72075939Y-177581794D02*
X72147368Y-177724652D01*
X72147368Y-177724652D02*
X72290225Y-177796080D01*
X72290225Y-177796080D02*
X72433082Y-177796080D01*
X72718797Y-176796080D02*
X73290225Y-176796080D01*
X72933082Y-176296080D02*
X72933082Y-177581794D01*
X72933082Y-177581794D02*
X73004511Y-177724652D01*
X73004511Y-177724652D02*
X73147368Y-177796080D01*
X73147368Y-177796080D02*
X73290225Y-177796080D01*
X73790225Y-177796080D02*
X73790225Y-176296080D01*
X74433083Y-177796080D02*
X74433083Y-177010366D01*
X74433083Y-177010366D02*
X74361654Y-176867509D01*
X74361654Y-176867509D02*
X74218797Y-176796080D01*
X74218797Y-176796080D02*
X74004511Y-176796080D01*
X74004511Y-176796080D02*
X73861654Y-176867509D01*
X73861654Y-176867509D02*
X73790225Y-176938937D01*
X75718797Y-177724652D02*
X75575940Y-177796080D01*
X75575940Y-177796080D02*
X75290226Y-177796080D01*
X75290226Y-177796080D02*
X75147368Y-177724652D01*
X75147368Y-177724652D02*
X75075940Y-177581794D01*
X75075940Y-177581794D02*
X75075940Y-177010366D01*
X75075940Y-177010366D02*
X75147368Y-176867509D01*
X75147368Y-176867509D02*
X75290226Y-176796080D01*
X75290226Y-176796080D02*
X75575940Y-176796080D01*
X75575940Y-176796080D02*
X75718797Y-176867509D01*
X75718797Y-176867509D02*
X75790226Y-177010366D01*
X75790226Y-177010366D02*
X75790226Y-177153223D01*
X75790226Y-177153223D02*
X75075940Y-177296080D01*
X76290225Y-176796080D02*
X76575940Y-177796080D01*
X76575940Y-177796080D02*
X76861654Y-177081794D01*
X76861654Y-177081794D02*
X77147368Y-177796080D01*
X77147368Y-177796080D02*
X77433082Y-176796080D01*
X78933083Y-176296080D02*
X79790226Y-176296080D01*
X79361654Y-177796080D02*
X79361654Y-176296080D01*
X80218797Y-177724652D02*
X80361654Y-177796080D01*
X80361654Y-177796080D02*
X80647368Y-177796080D01*
X80647368Y-177796080D02*
X80790225Y-177724652D01*
X80790225Y-177724652D02*
X80861654Y-177581794D01*
X80861654Y-177581794D02*
X80861654Y-177510366D01*
X80861654Y-177510366D02*
X80790225Y-177367509D01*
X80790225Y-177367509D02*
X80647368Y-177296080D01*
X80647368Y-177296080D02*
X80433083Y-177296080D01*
X80433083Y-177296080D02*
X80290225Y-177224652D01*
X80290225Y-177224652D02*
X80218797Y-177081794D01*
X80218797Y-177081794D02*
X80218797Y-177010366D01*
X80218797Y-177010366D02*
X80290225Y-176867509D01*
X80290225Y-176867509D02*
X80433083Y-176796080D01*
X80433083Y-176796080D02*
X80647368Y-176796080D01*
X80647368Y-176796080D02*
X80790225Y-176867509D01*
X82147369Y-177796080D02*
X82147369Y-177010366D01*
X82147369Y-177010366D02*
X82075940Y-176867509D01*
X82075940Y-176867509D02*
X81933083Y-176796080D01*
X81933083Y-176796080D02*
X81647369Y-176796080D01*
X81647369Y-176796080D02*
X81504511Y-176867509D01*
X82147369Y-177724652D02*
X82004511Y-177796080D01*
X82004511Y-177796080D02*
X81647369Y-177796080D01*
X81647369Y-177796080D02*
X81504511Y-177724652D01*
X81504511Y-177724652D02*
X81433083Y-177581794D01*
X81433083Y-177581794D02*
X81433083Y-177438937D01*
X81433083Y-177438937D02*
X81504511Y-177296080D01*
X81504511Y-177296080D02*
X81647369Y-177224652D01*
X81647369Y-177224652D02*
X82004511Y-177224652D01*
X82004511Y-177224652D02*
X82147369Y-177153223D01*
X82861654Y-177796080D02*
X82861654Y-176796080D01*
X82861654Y-176296080D02*
X82790226Y-176367509D01*
X82790226Y-176367509D02*
X82861654Y-176438937D01*
X82861654Y-176438937D02*
X82933083Y-176367509D01*
X82933083Y-176367509D02*
X82861654Y-176296080D01*
X82861654Y-176296080D02*
X82861654Y-176438937D01*
X68933082Y-180139568D02*
X69147368Y-180210996D01*
X69147368Y-180210996D02*
X69504510Y-180210996D01*
X69504510Y-180210996D02*
X69647368Y-180139568D01*
X69647368Y-180139568D02*
X69718796Y-180068139D01*
X69718796Y-180068139D02*
X69790225Y-179925282D01*
X69790225Y-179925282D02*
X69790225Y-179782425D01*
X69790225Y-179782425D02*
X69718796Y-179639568D01*
X69718796Y-179639568D02*
X69647368Y-179568139D01*
X69647368Y-179568139D02*
X69504510Y-179496710D01*
X69504510Y-179496710D02*
X69218796Y-179425282D01*
X69218796Y-179425282D02*
X69075939Y-179353853D01*
X69075939Y-179353853D02*
X69004510Y-179282425D01*
X69004510Y-179282425D02*
X68933082Y-179139568D01*
X68933082Y-179139568D02*
X68933082Y-178996710D01*
X68933082Y-178996710D02*
X69004510Y-178853853D01*
X69004510Y-178853853D02*
X69075939Y-178782425D01*
X69075939Y-178782425D02*
X69218796Y-178710996D01*
X69218796Y-178710996D02*
X69575939Y-178710996D01*
X69575939Y-178710996D02*
X69790225Y-178782425D01*
X70647367Y-180210996D02*
X70504510Y-180139568D01*
X70504510Y-180139568D02*
X70433081Y-180068139D01*
X70433081Y-180068139D02*
X70361653Y-179925282D01*
X70361653Y-179925282D02*
X70361653Y-179496710D01*
X70361653Y-179496710D02*
X70433081Y-179353853D01*
X70433081Y-179353853D02*
X70504510Y-179282425D01*
X70504510Y-179282425D02*
X70647367Y-179210996D01*
X70647367Y-179210996D02*
X70861653Y-179210996D01*
X70861653Y-179210996D02*
X71004510Y-179282425D01*
X71004510Y-179282425D02*
X71075939Y-179353853D01*
X71075939Y-179353853D02*
X71147367Y-179496710D01*
X71147367Y-179496710D02*
X71147367Y-179925282D01*
X71147367Y-179925282D02*
X71075939Y-180068139D01*
X71075939Y-180068139D02*
X71004510Y-180139568D01*
X71004510Y-180139568D02*
X70861653Y-180210996D01*
X70861653Y-180210996D02*
X70647367Y-180210996D01*
X72004510Y-180210996D02*
X71861653Y-180139568D01*
X71861653Y-180139568D02*
X71790224Y-179996710D01*
X71790224Y-179996710D02*
X71790224Y-178710996D01*
X73218796Y-180210996D02*
X73218796Y-179425282D01*
X73218796Y-179425282D02*
X73147367Y-179282425D01*
X73147367Y-179282425D02*
X73004510Y-179210996D01*
X73004510Y-179210996D02*
X72718796Y-179210996D01*
X72718796Y-179210996D02*
X72575938Y-179282425D01*
X73218796Y-180139568D02*
X73075938Y-180210996D01*
X73075938Y-180210996D02*
X72718796Y-180210996D01*
X72718796Y-180210996D02*
X72575938Y-180139568D01*
X72575938Y-180139568D02*
X72504510Y-179996710D01*
X72504510Y-179996710D02*
X72504510Y-179853853D01*
X72504510Y-179853853D02*
X72575938Y-179710996D01*
X72575938Y-179710996D02*
X72718796Y-179639568D01*
X72718796Y-179639568D02*
X73075938Y-179639568D01*
X73075938Y-179639568D02*
X73218796Y-179568139D01*
X73933081Y-180210996D02*
X73933081Y-179210996D01*
X73933081Y-179353853D02*
X74004510Y-179282425D01*
X74004510Y-179282425D02*
X74147367Y-179210996D01*
X74147367Y-179210996D02*
X74361653Y-179210996D01*
X74361653Y-179210996D02*
X74504510Y-179282425D01*
X74504510Y-179282425D02*
X74575939Y-179425282D01*
X74575939Y-179425282D02*
X74575939Y-180210996D01*
X74575939Y-179425282D02*
X74647367Y-179282425D01*
X74647367Y-179282425D02*
X74790224Y-179210996D01*
X74790224Y-179210996D02*
X75004510Y-179210996D01*
X75004510Y-179210996D02*
X75147367Y-179282425D01*
X75147367Y-179282425D02*
X75218796Y-179425282D01*
X75218796Y-179425282D02*
X75218796Y-180210996D01*
X76147367Y-180210996D02*
X76004510Y-180139568D01*
X76004510Y-180139568D02*
X75933081Y-180068139D01*
X75933081Y-180068139D02*
X75861653Y-179925282D01*
X75861653Y-179925282D02*
X75861653Y-179496710D01*
X75861653Y-179496710D02*
X75933081Y-179353853D01*
X75933081Y-179353853D02*
X76004510Y-179282425D01*
X76004510Y-179282425D02*
X76147367Y-179210996D01*
X76147367Y-179210996D02*
X76361653Y-179210996D01*
X76361653Y-179210996D02*
X76504510Y-179282425D01*
X76504510Y-179282425D02*
X76575939Y-179353853D01*
X76575939Y-179353853D02*
X76647367Y-179496710D01*
X76647367Y-179496710D02*
X76647367Y-179925282D01*
X76647367Y-179925282D02*
X76575939Y-180068139D01*
X76575939Y-180068139D02*
X76504510Y-180139568D01*
X76504510Y-180139568D02*
X76361653Y-180210996D01*
X76361653Y-180210996D02*
X76147367Y-180210996D01*
X77290224Y-179210996D02*
X77290224Y-180210996D01*
X77290224Y-179353853D02*
X77361653Y-179282425D01*
X77361653Y-179282425D02*
X77504510Y-179210996D01*
X77504510Y-179210996D02*
X77718796Y-179210996D01*
X77718796Y-179210996D02*
X77861653Y-179282425D01*
X77861653Y-179282425D02*
X77933082Y-179425282D01*
X77933082Y-179425282D02*
X77933082Y-180210996D01*
X79575939Y-178710996D02*
X80433082Y-178710996D01*
X80004510Y-180210996D02*
X80004510Y-178710996D01*
X81575939Y-180210996D02*
X81575939Y-179425282D01*
X81575939Y-179425282D02*
X81504510Y-179282425D01*
X81504510Y-179282425D02*
X81361653Y-179210996D01*
X81361653Y-179210996D02*
X81075939Y-179210996D01*
X81075939Y-179210996D02*
X80933081Y-179282425D01*
X81575939Y-180139568D02*
X81433081Y-180210996D01*
X81433081Y-180210996D02*
X81075939Y-180210996D01*
X81075939Y-180210996D02*
X80933081Y-180139568D01*
X80933081Y-180139568D02*
X80861653Y-179996710D01*
X80861653Y-179996710D02*
X80861653Y-179853853D01*
X80861653Y-179853853D02*
X80933081Y-179710996D01*
X80933081Y-179710996D02*
X81075939Y-179639568D01*
X81075939Y-179639568D02*
X81433081Y-179639568D01*
X81433081Y-179639568D02*
X81575939Y-179568139D01*
X68933082Y-182554484D02*
X69147368Y-182625912D01*
X69147368Y-182625912D02*
X69504510Y-182625912D01*
X69504510Y-182625912D02*
X69647368Y-182554484D01*
X69647368Y-182554484D02*
X69718796Y-182483055D01*
X69718796Y-182483055D02*
X69790225Y-182340198D01*
X69790225Y-182340198D02*
X69790225Y-182197341D01*
X69790225Y-182197341D02*
X69718796Y-182054484D01*
X69718796Y-182054484D02*
X69647368Y-181983055D01*
X69647368Y-181983055D02*
X69504510Y-181911626D01*
X69504510Y-181911626D02*
X69218796Y-181840198D01*
X69218796Y-181840198D02*
X69075939Y-181768769D01*
X69075939Y-181768769D02*
X69004510Y-181697341D01*
X69004510Y-181697341D02*
X68933082Y-181554484D01*
X68933082Y-181554484D02*
X68933082Y-181411626D01*
X68933082Y-181411626D02*
X69004510Y-181268769D01*
X69004510Y-181268769D02*
X69075939Y-181197341D01*
X69075939Y-181197341D02*
X69218796Y-181125912D01*
X69218796Y-181125912D02*
X69575939Y-181125912D01*
X69575939Y-181125912D02*
X69790225Y-181197341D01*
X70218796Y-181625912D02*
X70790224Y-181625912D01*
X70433081Y-181125912D02*
X70433081Y-182411626D01*
X70433081Y-182411626D02*
X70504510Y-182554484D01*
X70504510Y-182554484D02*
X70647367Y-182625912D01*
X70647367Y-182625912D02*
X70790224Y-182625912D01*
X71861653Y-182554484D02*
X71718796Y-182625912D01*
X71718796Y-182625912D02*
X71433082Y-182625912D01*
X71433082Y-182625912D02*
X71290224Y-182554484D01*
X71290224Y-182554484D02*
X71218796Y-182411626D01*
X71218796Y-182411626D02*
X71218796Y-181840198D01*
X71218796Y-181840198D02*
X71290224Y-181697341D01*
X71290224Y-181697341D02*
X71433082Y-181625912D01*
X71433082Y-181625912D02*
X71718796Y-181625912D01*
X71718796Y-181625912D02*
X71861653Y-181697341D01*
X71861653Y-181697341D02*
X71933082Y-181840198D01*
X71933082Y-181840198D02*
X71933082Y-181983055D01*
X71933082Y-181983055D02*
X71218796Y-182125912D01*
X72433081Y-181625912D02*
X72790224Y-182625912D01*
X72790224Y-182625912D02*
X73147367Y-181625912D01*
X74290224Y-182554484D02*
X74147367Y-182625912D01*
X74147367Y-182625912D02*
X73861653Y-182625912D01*
X73861653Y-182625912D02*
X73718795Y-182554484D01*
X73718795Y-182554484D02*
X73647367Y-182411626D01*
X73647367Y-182411626D02*
X73647367Y-181840198D01*
X73647367Y-181840198D02*
X73718795Y-181697341D01*
X73718795Y-181697341D02*
X73861653Y-181625912D01*
X73861653Y-181625912D02*
X74147367Y-181625912D01*
X74147367Y-181625912D02*
X74290224Y-181697341D01*
X74290224Y-181697341D02*
X74361653Y-181840198D01*
X74361653Y-181840198D02*
X74361653Y-181983055D01*
X74361653Y-181983055D02*
X73647367Y-182125912D01*
X76647366Y-181840198D02*
X76861652Y-181911626D01*
X76861652Y-181911626D02*
X76933081Y-181983055D01*
X76933081Y-181983055D02*
X77004509Y-182125912D01*
X77004509Y-182125912D02*
X77004509Y-182340198D01*
X77004509Y-182340198D02*
X76933081Y-182483055D01*
X76933081Y-182483055D02*
X76861652Y-182554484D01*
X76861652Y-182554484D02*
X76718795Y-182625912D01*
X76718795Y-182625912D02*
X76147366Y-182625912D01*
X76147366Y-182625912D02*
X76147366Y-181125912D01*
X76147366Y-181125912D02*
X76647366Y-181125912D01*
X76647366Y-181125912D02*
X76790224Y-181197341D01*
X76790224Y-181197341D02*
X76861652Y-181268769D01*
X76861652Y-181268769D02*
X76933081Y-181411626D01*
X76933081Y-181411626D02*
X76933081Y-181554484D01*
X76933081Y-181554484D02*
X76861652Y-181697341D01*
X76861652Y-181697341D02*
X76790224Y-181768769D01*
X76790224Y-181768769D02*
X76647366Y-181840198D01*
X76647366Y-181840198D02*
X76147366Y-181840198D01*
X77647366Y-182625912D02*
X77647366Y-181625912D01*
X77647366Y-181911626D02*
X77718795Y-181768769D01*
X77718795Y-181768769D02*
X77790224Y-181697341D01*
X77790224Y-181697341D02*
X77933081Y-181625912D01*
X77933081Y-181625912D02*
X78075938Y-181625912D01*
X78575937Y-182625912D02*
X78575937Y-181625912D01*
X78575937Y-181125912D02*
X78504509Y-181197341D01*
X78504509Y-181197341D02*
X78575937Y-181268769D01*
X78575937Y-181268769D02*
X78647366Y-181197341D01*
X78647366Y-181197341D02*
X78575937Y-181125912D01*
X78575937Y-181125912D02*
X78575937Y-181268769D01*
X79504509Y-182625912D02*
X79361652Y-182554484D01*
X79361652Y-182554484D02*
X79290223Y-182483055D01*
X79290223Y-182483055D02*
X79218795Y-182340198D01*
X79218795Y-182340198D02*
X79218795Y-181911626D01*
X79218795Y-181911626D02*
X79290223Y-181768769D01*
X79290223Y-181768769D02*
X79361652Y-181697341D01*
X79361652Y-181697341D02*
X79504509Y-181625912D01*
X79504509Y-181625912D02*
X79718795Y-181625912D01*
X79718795Y-181625912D02*
X79861652Y-181697341D01*
X79861652Y-181697341D02*
X79933081Y-181768769D01*
X79933081Y-181768769D02*
X80004509Y-181911626D01*
X80004509Y-181911626D02*
X80004509Y-182340198D01*
X80004509Y-182340198D02*
X79933081Y-182483055D01*
X79933081Y-182483055D02*
X79861652Y-182554484D01*
X79861652Y-182554484D02*
X79718795Y-182625912D01*
X79718795Y-182625912D02*
X79504509Y-182625912D01*
X80647366Y-181625912D02*
X80647366Y-182625912D01*
X80647366Y-181768769D02*
X80718795Y-181697341D01*
X80718795Y-181697341D02*
X80861652Y-181625912D01*
X80861652Y-181625912D02*
X81075938Y-181625912D01*
X81075938Y-181625912D02*
X81218795Y-181697341D01*
X81218795Y-181697341D02*
X81290224Y-181840198D01*
X81290224Y-181840198D02*
X81290224Y-182625912D01*
X82575938Y-182554484D02*
X82433081Y-182625912D01*
X82433081Y-182625912D02*
X82147367Y-182625912D01*
X82147367Y-182625912D02*
X82004509Y-182554484D01*
X82004509Y-182554484D02*
X81933081Y-182411626D01*
X81933081Y-182411626D02*
X81933081Y-181840198D01*
X81933081Y-181840198D02*
X82004509Y-181697341D01*
X82004509Y-181697341D02*
X82147367Y-181625912D01*
X82147367Y-181625912D02*
X82433081Y-181625912D01*
X82433081Y-181625912D02*
X82575938Y-181697341D01*
X82575938Y-181697341D02*
X82647367Y-181840198D01*
X82647367Y-181840198D02*
X82647367Y-181983055D01*
X82647367Y-181983055D02*
X81933081Y-182125912D01*
X83218795Y-182554484D02*
X83361652Y-182625912D01*
X83361652Y-182625912D02*
X83647366Y-182625912D01*
X83647366Y-182625912D02*
X83790223Y-182554484D01*
X83790223Y-182554484D02*
X83861652Y-182411626D01*
X83861652Y-182411626D02*
X83861652Y-182340198D01*
X83861652Y-182340198D02*
X83790223Y-182197341D01*
X83790223Y-182197341D02*
X83647366Y-182125912D01*
X83647366Y-182125912D02*
X83433081Y-182125912D01*
X83433081Y-182125912D02*
X83290223Y-182054484D01*
X83290223Y-182054484D02*
X83218795Y-181911626D01*
X83218795Y-181911626D02*
X83218795Y-181840198D01*
X83218795Y-181840198D02*
X83290223Y-181697341D01*
X83290223Y-181697341D02*
X83433081Y-181625912D01*
X83433081Y-181625912D02*
X83647366Y-181625912D01*
X83647366Y-181625912D02*
X83790223Y-181697341D01*
D11*
X92461905Y-169054819D02*
X92461905Y-168054819D01*
X92461905Y-168054819D02*
X92700000Y-168054819D01*
X92700000Y-168054819D02*
X92842857Y-168102438D01*
X92842857Y-168102438D02*
X92938095Y-168197676D01*
X92938095Y-168197676D02*
X92985714Y-168292914D01*
X92985714Y-168292914D02*
X93033333Y-168483390D01*
X93033333Y-168483390D02*
X93033333Y-168626247D01*
X93033333Y-168626247D02*
X92985714Y-168816723D01*
X92985714Y-168816723D02*
X92938095Y-168911961D01*
X92938095Y-168911961D02*
X92842857Y-169007200D01*
X92842857Y-169007200D02*
X92700000Y-169054819D01*
X92700000Y-169054819D02*
X92461905Y-169054819D01*
X93938095Y-168054819D02*
X93461905Y-168054819D01*
X93461905Y-168054819D02*
X93414286Y-168531009D01*
X93414286Y-168531009D02*
X93461905Y-168483390D01*
X93461905Y-168483390D02*
X93557143Y-168435771D01*
X93557143Y-168435771D02*
X93795238Y-168435771D01*
X93795238Y-168435771D02*
X93890476Y-168483390D01*
X93890476Y-168483390D02*
X93938095Y-168531009D01*
X93938095Y-168531009D02*
X93985714Y-168626247D01*
X93985714Y-168626247D02*
X93985714Y-168864342D01*
X93985714Y-168864342D02*
X93938095Y-168959580D01*
X93938095Y-168959580D02*
X93890476Y-169007200D01*
X93890476Y-169007200D02*
X93795238Y-169054819D01*
X93795238Y-169054819D02*
X93557143Y-169054819D01*
X93557143Y-169054819D02*
X93461905Y-169007200D01*
X93461905Y-169007200D02*
X93414286Y-168959580D01*
X121456819Y-163738094D02*
X121456819Y-163166666D01*
X122456819Y-163452380D02*
X121456819Y-163452380D01*
X122456819Y-162833332D02*
X121456819Y-162833332D01*
X121456819Y-162833332D02*
X121456819Y-162452380D01*
X121456819Y-162452380D02*
X121504438Y-162357142D01*
X121504438Y-162357142D02*
X121552057Y-162309523D01*
X121552057Y-162309523D02*
X121647295Y-162261904D01*
X121647295Y-162261904D02*
X121790152Y-162261904D01*
X121790152Y-162261904D02*
X121885390Y-162309523D01*
X121885390Y-162309523D02*
X121933009Y-162357142D01*
X121933009Y-162357142D02*
X121980628Y-162452380D01*
X121980628Y-162452380D02*
X121980628Y-162833332D01*
X122456819Y-161309523D02*
X122456819Y-161880951D01*
X122456819Y-161595237D02*
X121456819Y-161595237D01*
X121456819Y-161595237D02*
X121599676Y-161690475D01*
X121599676Y-161690475D02*
X121694914Y-161785713D01*
X121694914Y-161785713D02*
X121742533Y-161880951D01*
X122456819Y-160357142D02*
X122456819Y-160928570D01*
X122456819Y-160642856D02*
X121456819Y-160642856D01*
X121456819Y-160642856D02*
X121599676Y-160738094D01*
X121599676Y-160738094D02*
X121694914Y-160833332D01*
X121694914Y-160833332D02*
X121742533Y-160928570D01*
X138115180Y-158581905D02*
X137305657Y-158581905D01*
X137305657Y-158581905D02*
X137210419Y-158629524D01*
X137210419Y-158629524D02*
X137162800Y-158677143D01*
X137162800Y-158677143D02*
X137115180Y-158772381D01*
X137115180Y-158772381D02*
X137115180Y-158962857D01*
X137115180Y-158962857D02*
X137162800Y-159058095D01*
X137162800Y-159058095D02*
X137210419Y-159105714D01*
X137210419Y-159105714D02*
X137305657Y-159153333D01*
X137305657Y-159153333D02*
X138115180Y-159153333D01*
X138019942Y-159581905D02*
X138067561Y-159629524D01*
X138067561Y-159629524D02*
X138115180Y-159724762D01*
X138115180Y-159724762D02*
X138115180Y-159962857D01*
X138115180Y-159962857D02*
X138067561Y-160058095D01*
X138067561Y-160058095D02*
X138019942Y-160105714D01*
X138019942Y-160105714D02*
X137924704Y-160153333D01*
X137924704Y-160153333D02*
X137829466Y-160153333D01*
X137829466Y-160153333D02*
X137686609Y-160105714D01*
X137686609Y-160105714D02*
X137115180Y-159534286D01*
X137115180Y-159534286D02*
X137115180Y-160153333D01*
X137115180Y-161105714D02*
X137115180Y-160534286D01*
X137115180Y-160820000D02*
X138115180Y-160820000D01*
X138115180Y-160820000D02*
X137972323Y-160724762D01*
X137972323Y-160724762D02*
X137877085Y-160629524D01*
X137877085Y-160629524D02*
X137829466Y-160534286D01*
X143194279Y-157496000D02*
X142956184Y-157496000D01*
X143051422Y-157257905D02*
X142956184Y-157496000D01*
X142956184Y-157496000D02*
X143051422Y-157734095D01*
X142765708Y-157353143D02*
X142956184Y-157496000D01*
X142956184Y-157496000D02*
X142765708Y-157638857D01*
X142103918Y-157495999D02*
X142342013Y-157495999D01*
X142246775Y-157734094D02*
X142342013Y-157495999D01*
X142342013Y-157495999D02*
X142246775Y-157257904D01*
X142532489Y-157638856D02*
X142342013Y-157495999D01*
X142342013Y-157495999D02*
X142532489Y-157353142D01*
X124941905Y-186386819D02*
X125513333Y-186386819D01*
X125227619Y-187386819D02*
X125227619Y-186386819D01*
X125846667Y-187386819D02*
X125846667Y-186386819D01*
X125846667Y-186386819D02*
X126227619Y-186386819D01*
X126227619Y-186386819D02*
X126322857Y-186434438D01*
X126322857Y-186434438D02*
X126370476Y-186482057D01*
X126370476Y-186482057D02*
X126418095Y-186577295D01*
X126418095Y-186577295D02*
X126418095Y-186720152D01*
X126418095Y-186720152D02*
X126370476Y-186815390D01*
X126370476Y-186815390D02*
X126322857Y-186863009D01*
X126322857Y-186863009D02*
X126227619Y-186910628D01*
X126227619Y-186910628D02*
X125846667Y-186910628D01*
X126799048Y-186482057D02*
X126846667Y-186434438D01*
X126846667Y-186434438D02*
X126941905Y-186386819D01*
X126941905Y-186386819D02*
X127180000Y-186386819D01*
X127180000Y-186386819D02*
X127275238Y-186434438D01*
X127275238Y-186434438D02*
X127322857Y-186482057D01*
X127322857Y-186482057D02*
X127370476Y-186577295D01*
X127370476Y-186577295D02*
X127370476Y-186672533D01*
X127370476Y-186672533D02*
X127322857Y-186815390D01*
X127322857Y-186815390D02*
X126751429Y-187386819D01*
X126751429Y-187386819D02*
X127370476Y-187386819D01*
X127941905Y-186815390D02*
X127846667Y-186767771D01*
X127846667Y-186767771D02*
X127799048Y-186720152D01*
X127799048Y-186720152D02*
X127751429Y-186624914D01*
X127751429Y-186624914D02*
X127751429Y-186577295D01*
X127751429Y-186577295D02*
X127799048Y-186482057D01*
X127799048Y-186482057D02*
X127846667Y-186434438D01*
X127846667Y-186434438D02*
X127941905Y-186386819D01*
X127941905Y-186386819D02*
X128132381Y-186386819D01*
X128132381Y-186386819D02*
X128227619Y-186434438D01*
X128227619Y-186434438D02*
X128275238Y-186482057D01*
X128275238Y-186482057D02*
X128322857Y-186577295D01*
X128322857Y-186577295D02*
X128322857Y-186624914D01*
X128322857Y-186624914D02*
X128275238Y-186720152D01*
X128275238Y-186720152D02*
X128227619Y-186767771D01*
X128227619Y-186767771D02*
X128132381Y-186815390D01*
X128132381Y-186815390D02*
X127941905Y-186815390D01*
X127941905Y-186815390D02*
X127846667Y-186863009D01*
X127846667Y-186863009D02*
X127799048Y-186910628D01*
X127799048Y-186910628D02*
X127751429Y-187005866D01*
X127751429Y-187005866D02*
X127751429Y-187196342D01*
X127751429Y-187196342D02*
X127799048Y-187291580D01*
X127799048Y-187291580D02*
X127846667Y-187339200D01*
X127846667Y-187339200D02*
X127941905Y-187386819D01*
X127941905Y-187386819D02*
X128132381Y-187386819D01*
X128132381Y-187386819D02*
X128227619Y-187339200D01*
X128227619Y-187339200D02*
X128275238Y-187291580D01*
X128275238Y-187291580D02*
X128322857Y-187196342D01*
X128322857Y-187196342D02*
X128322857Y-187005866D01*
X128322857Y-187005866D02*
X128275238Y-186910628D01*
X128275238Y-186910628D02*
X128227619Y-186863009D01*
X128227619Y-186863009D02*
X128132381Y-186815390D01*
X144177819Y-182038094D02*
X144177819Y-181466666D01*
X145177819Y-181752380D02*
X144177819Y-181752380D01*
X145177819Y-181133332D02*
X144177819Y-181133332D01*
X144177819Y-181133332D02*
X144177819Y-180752380D01*
X144177819Y-180752380D02*
X144225438Y-180657142D01*
X144225438Y-180657142D02*
X144273057Y-180609523D01*
X144273057Y-180609523D02*
X144368295Y-180561904D01*
X144368295Y-180561904D02*
X144511152Y-180561904D01*
X144511152Y-180561904D02*
X144606390Y-180609523D01*
X144606390Y-180609523D02*
X144654009Y-180657142D01*
X144654009Y-180657142D02*
X144701628Y-180752380D01*
X144701628Y-180752380D02*
X144701628Y-181133332D01*
X145177819Y-179609523D02*
X145177819Y-180180951D01*
X145177819Y-179895237D02*
X144177819Y-179895237D01*
X144177819Y-179895237D02*
X144320676Y-179990475D01*
X144320676Y-179990475D02*
X144415914Y-180085713D01*
X144415914Y-180085713D02*
X144463533Y-180180951D01*
X144606390Y-179038094D02*
X144558771Y-179133332D01*
X144558771Y-179133332D02*
X144511152Y-179180951D01*
X144511152Y-179180951D02*
X144415914Y-179228570D01*
X144415914Y-179228570D02*
X144368295Y-179228570D01*
X144368295Y-179228570D02*
X144273057Y-179180951D01*
X144273057Y-179180951D02*
X144225438Y-179133332D01*
X144225438Y-179133332D02*
X144177819Y-179038094D01*
X144177819Y-179038094D02*
X144177819Y-178847618D01*
X144177819Y-178847618D02*
X144225438Y-178752380D01*
X144225438Y-178752380D02*
X144273057Y-178704761D01*
X144273057Y-178704761D02*
X144368295Y-178657142D01*
X144368295Y-178657142D02*
X144415914Y-178657142D01*
X144415914Y-178657142D02*
X144511152Y-178704761D01*
X144511152Y-178704761D02*
X144558771Y-178752380D01*
X144558771Y-178752380D02*
X144606390Y-178847618D01*
X144606390Y-178847618D02*
X144606390Y-179038094D01*
X144606390Y-179038094D02*
X144654009Y-179133332D01*
X144654009Y-179133332D02*
X144701628Y-179180951D01*
X144701628Y-179180951D02*
X144796866Y-179228570D01*
X144796866Y-179228570D02*
X144987342Y-179228570D01*
X144987342Y-179228570D02*
X145082580Y-179180951D01*
X145082580Y-179180951D02*
X145130200Y-179133332D01*
X145130200Y-179133332D02*
X145177819Y-179038094D01*
X145177819Y-179038094D02*
X145177819Y-178847618D01*
X145177819Y-178847618D02*
X145130200Y-178752380D01*
X145130200Y-178752380D02*
X145082580Y-178704761D01*
X145082580Y-178704761D02*
X144987342Y-178657142D01*
X144987342Y-178657142D02*
X144796866Y-178657142D01*
X144796866Y-178657142D02*
X144701628Y-178704761D01*
X144701628Y-178704761D02*
X144654009Y-178752380D01*
X144654009Y-178752380D02*
X144606390Y-178847618D01*
X150011905Y-166514819D02*
X150583333Y-166514819D01*
X150297619Y-167514819D02*
X150297619Y-166514819D01*
X150916667Y-167514819D02*
X150916667Y-166514819D01*
X150916667Y-166514819D02*
X151297619Y-166514819D01*
X151297619Y-166514819D02*
X151392857Y-166562438D01*
X151392857Y-166562438D02*
X151440476Y-166610057D01*
X151440476Y-166610057D02*
X151488095Y-166705295D01*
X151488095Y-166705295D02*
X151488095Y-166848152D01*
X151488095Y-166848152D02*
X151440476Y-166943390D01*
X151440476Y-166943390D02*
X151392857Y-166991009D01*
X151392857Y-166991009D02*
X151297619Y-167038628D01*
X151297619Y-167038628D02*
X150916667Y-167038628D01*
X152440476Y-167514819D02*
X151869048Y-167514819D01*
X152154762Y-167514819D02*
X152154762Y-166514819D01*
X152154762Y-166514819D02*
X152059524Y-166657676D01*
X152059524Y-166657676D02*
X151964286Y-166752914D01*
X151964286Y-166752914D02*
X151869048Y-166800533D01*
X152916667Y-167514819D02*
X153107143Y-167514819D01*
X153107143Y-167514819D02*
X153202381Y-167467200D01*
X153202381Y-167467200D02*
X153250000Y-167419580D01*
X153250000Y-167419580D02*
X153345238Y-167276723D01*
X153345238Y-167276723D02*
X153392857Y-167086247D01*
X153392857Y-167086247D02*
X153392857Y-166705295D01*
X153392857Y-166705295D02*
X153345238Y-166610057D01*
X153345238Y-166610057D02*
X153297619Y-166562438D01*
X153297619Y-166562438D02*
X153202381Y-166514819D01*
X153202381Y-166514819D02*
X153011905Y-166514819D01*
X153011905Y-166514819D02*
X152916667Y-166562438D01*
X152916667Y-166562438D02*
X152869048Y-166610057D01*
X152869048Y-166610057D02*
X152821429Y-166705295D01*
X152821429Y-166705295D02*
X152821429Y-166943390D01*
X152821429Y-166943390D02*
X152869048Y-167038628D01*
X152869048Y-167038628D02*
X152916667Y-167086247D01*
X152916667Y-167086247D02*
X153011905Y-167133866D01*
X153011905Y-167133866D02*
X153202381Y-167133866D01*
X153202381Y-167133866D02*
X153297619Y-167086247D01*
X153297619Y-167086247D02*
X153345238Y-167038628D01*
X153345238Y-167038628D02*
X153392857Y-166943390D01*
X126611905Y-128084819D02*
X126611905Y-128894342D01*
X126611905Y-128894342D02*
X126659524Y-128989580D01*
X126659524Y-128989580D02*
X126707143Y-129037200D01*
X126707143Y-129037200D02*
X126802381Y-129084819D01*
X126802381Y-129084819D02*
X126992857Y-129084819D01*
X126992857Y-129084819D02*
X127088095Y-129037200D01*
X127088095Y-129037200D02*
X127135714Y-128989580D01*
X127135714Y-128989580D02*
X127183333Y-128894342D01*
X127183333Y-128894342D02*
X127183333Y-128084819D01*
X128183333Y-129084819D02*
X127611905Y-129084819D01*
X127897619Y-129084819D02*
X127897619Y-128084819D01*
X127897619Y-128084819D02*
X127802381Y-128227676D01*
X127802381Y-128227676D02*
X127707143Y-128322914D01*
X127707143Y-128322914D02*
X127611905Y-128370533D01*
X128659524Y-129084819D02*
X128850000Y-129084819D01*
X128850000Y-129084819D02*
X128945238Y-129037200D01*
X128945238Y-129037200D02*
X128992857Y-128989580D01*
X128992857Y-128989580D02*
X129088095Y-128846723D01*
X129088095Y-128846723D02*
X129135714Y-128656247D01*
X129135714Y-128656247D02*
X129135714Y-128275295D01*
X129135714Y-128275295D02*
X129088095Y-128180057D01*
X129088095Y-128180057D02*
X129040476Y-128132438D01*
X129040476Y-128132438D02*
X128945238Y-128084819D01*
X128945238Y-128084819D02*
X128754762Y-128084819D01*
X128754762Y-128084819D02*
X128659524Y-128132438D01*
X128659524Y-128132438D02*
X128611905Y-128180057D01*
X128611905Y-128180057D02*
X128564286Y-128275295D01*
X128564286Y-128275295D02*
X128564286Y-128513390D01*
X128564286Y-128513390D02*
X128611905Y-128608628D01*
X128611905Y-128608628D02*
X128659524Y-128656247D01*
X128659524Y-128656247D02*
X128754762Y-128703866D01*
X128754762Y-128703866D02*
X128945238Y-128703866D01*
X128945238Y-128703866D02*
X129040476Y-128656247D01*
X129040476Y-128656247D02*
X129088095Y-128608628D01*
X129088095Y-128608628D02*
X129135714Y-128513390D01*
X131659999Y-128302980D02*
X131659999Y-128064885D01*
X131898094Y-128160123D02*
X131659999Y-128064885D01*
X131659999Y-128064885D02*
X131421904Y-128160123D01*
X131802856Y-127874409D02*
X131659999Y-128064885D01*
X131659999Y-128064885D02*
X131517142Y-127874409D01*
X131660000Y-127212619D02*
X131660000Y-127450714D01*
X131421905Y-127355476D02*
X131660000Y-127450714D01*
X131660000Y-127450714D02*
X131898095Y-127355476D01*
X131517143Y-127641190D02*
X131660000Y-127450714D01*
X131660000Y-127450714D02*
X131802857Y-127641190D01*
X119200057Y-164432738D02*
X119152438Y-164527976D01*
X119152438Y-164527976D02*
X119057200Y-164623214D01*
X119057200Y-164623214D02*
X118914342Y-164766071D01*
X118914342Y-164766071D02*
X118866723Y-164861309D01*
X118866723Y-164861309D02*
X118866723Y-164956547D01*
X119104819Y-164908928D02*
X119057200Y-165004166D01*
X119057200Y-165004166D02*
X118961961Y-165099404D01*
X118961961Y-165099404D02*
X118771485Y-165147023D01*
X118771485Y-165147023D02*
X118438152Y-165147023D01*
X118438152Y-165147023D02*
X118247676Y-165099404D01*
X118247676Y-165099404D02*
X118152438Y-165004166D01*
X118152438Y-165004166D02*
X118104819Y-164908928D01*
X118104819Y-164908928D02*
X118104819Y-164718452D01*
X118104819Y-164718452D02*
X118152438Y-164623214D01*
X118152438Y-164623214D02*
X118247676Y-164527976D01*
X118247676Y-164527976D02*
X118438152Y-164480357D01*
X118438152Y-164480357D02*
X118771485Y-164480357D01*
X118771485Y-164480357D02*
X118961961Y-164527976D01*
X118961961Y-164527976D02*
X119057200Y-164623214D01*
X119057200Y-164623214D02*
X119104819Y-164718452D01*
X119104819Y-164718452D02*
X119104819Y-164908928D01*
X118438152Y-163623214D02*
X119104819Y-163623214D01*
X118057200Y-163861309D02*
X118771485Y-164099404D01*
X118771485Y-164099404D02*
X118771485Y-163480357D01*
X151564819Y-173942252D02*
X152374342Y-173942252D01*
X152374342Y-173942252D02*
X152469580Y-173894633D01*
X152469580Y-173894633D02*
X152517200Y-173847014D01*
X152517200Y-173847014D02*
X152564819Y-173751776D01*
X152564819Y-173751776D02*
X152564819Y-173561300D01*
X152564819Y-173561300D02*
X152517200Y-173466062D01*
X152517200Y-173466062D02*
X152469580Y-173418443D01*
X152469580Y-173418443D02*
X152374342Y-173370824D01*
X152374342Y-173370824D02*
X151564819Y-173370824D01*
X151993390Y-172751776D02*
X151945771Y-172847014D01*
X151945771Y-172847014D02*
X151898152Y-172894633D01*
X151898152Y-172894633D02*
X151802914Y-172942252D01*
X151802914Y-172942252D02*
X151755295Y-172942252D01*
X151755295Y-172942252D02*
X151660057Y-172894633D01*
X151660057Y-172894633D02*
X151612438Y-172847014D01*
X151612438Y-172847014D02*
X151564819Y-172751776D01*
X151564819Y-172751776D02*
X151564819Y-172561300D01*
X151564819Y-172561300D02*
X151612438Y-172466062D01*
X151612438Y-172466062D02*
X151660057Y-172418443D01*
X151660057Y-172418443D02*
X151755295Y-172370824D01*
X151755295Y-172370824D02*
X151802914Y-172370824D01*
X151802914Y-172370824D02*
X151898152Y-172418443D01*
X151898152Y-172418443D02*
X151945771Y-172466062D01*
X151945771Y-172466062D02*
X151993390Y-172561300D01*
X151993390Y-172561300D02*
X151993390Y-172751776D01*
X151993390Y-172751776D02*
X152041009Y-172847014D01*
X152041009Y-172847014D02*
X152088628Y-172894633D01*
X152088628Y-172894633D02*
X152183866Y-172942252D01*
X152183866Y-172942252D02*
X152374342Y-172942252D01*
X152374342Y-172942252D02*
X152469580Y-172894633D01*
X152469580Y-172894633D02*
X152517200Y-172847014D01*
X152517200Y-172847014D02*
X152564819Y-172751776D01*
X152564819Y-172751776D02*
X152564819Y-172561300D01*
X152564819Y-172561300D02*
X152517200Y-172466062D01*
X152517200Y-172466062D02*
X152469580Y-172418443D01*
X152469580Y-172418443D02*
X152374342Y-172370824D01*
X152374342Y-172370824D02*
X152183866Y-172370824D01*
X152183866Y-172370824D02*
X152088628Y-172418443D01*
X152088628Y-172418443D02*
X152041009Y-172466062D01*
X152041009Y-172466062D02*
X151993390Y-172561300D01*
X153038019Y-173180348D02*
X153276114Y-173180348D01*
X153180876Y-173418443D02*
X153276114Y-173180348D01*
X153276114Y-173180348D02*
X153180876Y-172942253D01*
X153466590Y-173323205D02*
X153276114Y-173180348D01*
X153276114Y-173180348D02*
X153466590Y-173037491D01*
X153038019Y-173180348D02*
X153276114Y-173180348D01*
X153180876Y-173418443D02*
X153276114Y-173180348D01*
X153276114Y-173180348D02*
X153180876Y-172942253D01*
X153466590Y-173323205D02*
X153276114Y-173180348D01*
X153276114Y-173180348D02*
X153466590Y-173037491D01*
X92433333Y-97679580D02*
X92385714Y-97727200D01*
X92385714Y-97727200D02*
X92242857Y-97774819D01*
X92242857Y-97774819D02*
X92147619Y-97774819D01*
X92147619Y-97774819D02*
X92004762Y-97727200D01*
X92004762Y-97727200D02*
X91909524Y-97631961D01*
X91909524Y-97631961D02*
X91861905Y-97536723D01*
X91861905Y-97536723D02*
X91814286Y-97346247D01*
X91814286Y-97346247D02*
X91814286Y-97203390D01*
X91814286Y-97203390D02*
X91861905Y-97012914D01*
X91861905Y-97012914D02*
X91909524Y-96917676D01*
X91909524Y-96917676D02*
X92004762Y-96822438D01*
X92004762Y-96822438D02*
X92147619Y-96774819D01*
X92147619Y-96774819D02*
X92242857Y-96774819D01*
X92242857Y-96774819D02*
X92385714Y-96822438D01*
X92385714Y-96822438D02*
X92433333Y-96870057D01*
X92814286Y-96870057D02*
X92861905Y-96822438D01*
X92861905Y-96822438D02*
X92957143Y-96774819D01*
X92957143Y-96774819D02*
X93195238Y-96774819D01*
X93195238Y-96774819D02*
X93290476Y-96822438D01*
X93290476Y-96822438D02*
X93338095Y-96870057D01*
X93338095Y-96870057D02*
X93385714Y-96965295D01*
X93385714Y-96965295D02*
X93385714Y-97060533D01*
X93385714Y-97060533D02*
X93338095Y-97203390D01*
X93338095Y-97203390D02*
X92766667Y-97774819D01*
X92766667Y-97774819D02*
X93385714Y-97774819D01*
X104258022Y-113799165D02*
X104258022Y-115129391D01*
X104258022Y-115129391D02*
X104336271Y-115285888D01*
X104336271Y-115285888D02*
X104414520Y-115364137D01*
X104414520Y-115364137D02*
X104571017Y-115442385D01*
X104571017Y-115442385D02*
X104884011Y-115442385D01*
X104884011Y-115442385D02*
X105040508Y-115364137D01*
X105040508Y-115364137D02*
X105118757Y-115285888D01*
X105118757Y-115285888D02*
X105197005Y-115129391D01*
X105197005Y-115129391D02*
X105197005Y-113799165D01*
X106683729Y-114346905D02*
X106683729Y-115442385D01*
X106292486Y-113720917D02*
X105901243Y-114894645D01*
X105901243Y-114894645D02*
X106918474Y-114894645D01*
X148594819Y-171048094D02*
X148594819Y-170476666D01*
X149594819Y-170762380D02*
X148594819Y-170762380D01*
X149594819Y-170143332D02*
X148594819Y-170143332D01*
X148594819Y-170143332D02*
X148594819Y-169762380D01*
X148594819Y-169762380D02*
X148642438Y-169667142D01*
X148642438Y-169667142D02*
X148690057Y-169619523D01*
X148690057Y-169619523D02*
X148785295Y-169571904D01*
X148785295Y-169571904D02*
X148928152Y-169571904D01*
X148928152Y-169571904D02*
X149023390Y-169619523D01*
X149023390Y-169619523D02*
X149071009Y-169667142D01*
X149071009Y-169667142D02*
X149118628Y-169762380D01*
X149118628Y-169762380D02*
X149118628Y-170143332D01*
X148690057Y-169190951D02*
X148642438Y-169143332D01*
X148642438Y-169143332D02*
X148594819Y-169048094D01*
X148594819Y-169048094D02*
X148594819Y-168809999D01*
X148594819Y-168809999D02*
X148642438Y-168714761D01*
X148642438Y-168714761D02*
X148690057Y-168667142D01*
X148690057Y-168667142D02*
X148785295Y-168619523D01*
X148785295Y-168619523D02*
X148880533Y-168619523D01*
X148880533Y-168619523D02*
X149023390Y-168667142D01*
X149023390Y-168667142D02*
X149594819Y-169238570D01*
X149594819Y-169238570D02*
X149594819Y-168619523D01*
X149594819Y-167667142D02*
X149594819Y-168238570D01*
X149594819Y-167952856D02*
X148594819Y-167952856D01*
X148594819Y-167952856D02*
X148737676Y-168048094D01*
X148737676Y-168048094D02*
X148832914Y-168143332D01*
X148832914Y-168143332D02*
X148880533Y-168238570D01*
X134407200Y-175633332D02*
X134454819Y-175490475D01*
X134454819Y-175490475D02*
X134454819Y-175252380D01*
X134454819Y-175252380D02*
X134407200Y-175157142D01*
X134407200Y-175157142D02*
X134359580Y-175109523D01*
X134359580Y-175109523D02*
X134264342Y-175061904D01*
X134264342Y-175061904D02*
X134169104Y-175061904D01*
X134169104Y-175061904D02*
X134073866Y-175109523D01*
X134073866Y-175109523D02*
X134026247Y-175157142D01*
X134026247Y-175157142D02*
X133978628Y-175252380D01*
X133978628Y-175252380D02*
X133931009Y-175442856D01*
X133931009Y-175442856D02*
X133883390Y-175538094D01*
X133883390Y-175538094D02*
X133835771Y-175585713D01*
X133835771Y-175585713D02*
X133740533Y-175633332D01*
X133740533Y-175633332D02*
X133645295Y-175633332D01*
X133645295Y-175633332D02*
X133550057Y-175585713D01*
X133550057Y-175585713D02*
X133502438Y-175538094D01*
X133502438Y-175538094D02*
X133454819Y-175442856D01*
X133454819Y-175442856D02*
X133454819Y-175204761D01*
X133454819Y-175204761D02*
X133502438Y-175061904D01*
X133454819Y-174728570D02*
X134454819Y-174490475D01*
X134454819Y-174490475D02*
X133740533Y-174299999D01*
X133740533Y-174299999D02*
X134454819Y-174109523D01*
X134454819Y-174109523D02*
X133454819Y-173871428D01*
X133454819Y-173585713D02*
X133454819Y-172966666D01*
X133454819Y-172966666D02*
X133835771Y-173299999D01*
X133835771Y-173299999D02*
X133835771Y-173157142D01*
X133835771Y-173157142D02*
X133883390Y-173061904D01*
X133883390Y-173061904D02*
X133931009Y-173014285D01*
X133931009Y-173014285D02*
X134026247Y-172966666D01*
X134026247Y-172966666D02*
X134264342Y-172966666D01*
X134264342Y-172966666D02*
X134359580Y-173014285D01*
X134359580Y-173014285D02*
X134407200Y-173061904D01*
X134407200Y-173061904D02*
X134454819Y-173157142D01*
X134454819Y-173157142D02*
X134454819Y-173442856D01*
X134454819Y-173442856D02*
X134407200Y-173538094D01*
X134407200Y-173538094D02*
X134359580Y-173585713D01*
X91457200Y-136193332D02*
X91504819Y-136050475D01*
X91504819Y-136050475D02*
X91504819Y-135812380D01*
X91504819Y-135812380D02*
X91457200Y-135717142D01*
X91457200Y-135717142D02*
X91409580Y-135669523D01*
X91409580Y-135669523D02*
X91314342Y-135621904D01*
X91314342Y-135621904D02*
X91219104Y-135621904D01*
X91219104Y-135621904D02*
X91123866Y-135669523D01*
X91123866Y-135669523D02*
X91076247Y-135717142D01*
X91076247Y-135717142D02*
X91028628Y-135812380D01*
X91028628Y-135812380D02*
X90981009Y-136002856D01*
X90981009Y-136002856D02*
X90933390Y-136098094D01*
X90933390Y-136098094D02*
X90885771Y-136145713D01*
X90885771Y-136145713D02*
X90790533Y-136193332D01*
X90790533Y-136193332D02*
X90695295Y-136193332D01*
X90695295Y-136193332D02*
X90600057Y-136145713D01*
X90600057Y-136145713D02*
X90552438Y-136098094D01*
X90552438Y-136098094D02*
X90504819Y-136002856D01*
X90504819Y-136002856D02*
X90504819Y-135764761D01*
X90504819Y-135764761D02*
X90552438Y-135621904D01*
X90504819Y-135288570D02*
X91504819Y-135050475D01*
X91504819Y-135050475D02*
X90790533Y-134859999D01*
X90790533Y-134859999D02*
X91504819Y-134669523D01*
X91504819Y-134669523D02*
X90504819Y-134431428D01*
X91504819Y-133526666D02*
X91504819Y-134098094D01*
X91504819Y-133812380D02*
X90504819Y-133812380D01*
X90504819Y-133812380D02*
X90647676Y-133907618D01*
X90647676Y-133907618D02*
X90742914Y-134002856D01*
X90742914Y-134002856D02*
X90790533Y-134098094D01*
X118766666Y-182204819D02*
X118766666Y-182919104D01*
X118766666Y-182919104D02*
X118719047Y-183061961D01*
X118719047Y-183061961D02*
X118623809Y-183157200D01*
X118623809Y-183157200D02*
X118480952Y-183204819D01*
X118480952Y-183204819D02*
X118385714Y-183204819D01*
X119195238Y-182300057D02*
X119242857Y-182252438D01*
X119242857Y-182252438D02*
X119338095Y-182204819D01*
X119338095Y-182204819D02*
X119576190Y-182204819D01*
X119576190Y-182204819D02*
X119671428Y-182252438D01*
X119671428Y-182252438D02*
X119719047Y-182300057D01*
X119719047Y-182300057D02*
X119766666Y-182395295D01*
X119766666Y-182395295D02*
X119766666Y-182490533D01*
X119766666Y-182490533D02*
X119719047Y-182633390D01*
X119719047Y-182633390D02*
X119147619Y-183204819D01*
X119147619Y-183204819D02*
X119766666Y-183204819D01*
X68804819Y-121141904D02*
X69614342Y-121141904D01*
X69614342Y-121141904D02*
X69709580Y-121094285D01*
X69709580Y-121094285D02*
X69757200Y-121046666D01*
X69757200Y-121046666D02*
X69804819Y-120951428D01*
X69804819Y-120951428D02*
X69804819Y-120760952D01*
X69804819Y-120760952D02*
X69757200Y-120665714D01*
X69757200Y-120665714D02*
X69709580Y-120618095D01*
X69709580Y-120618095D02*
X69614342Y-120570476D01*
X69614342Y-120570476D02*
X68804819Y-120570476D01*
X68804819Y-119618095D02*
X68804819Y-120094285D01*
X68804819Y-120094285D02*
X69281009Y-120141904D01*
X69281009Y-120141904D02*
X69233390Y-120094285D01*
X69233390Y-120094285D02*
X69185771Y-119999047D01*
X69185771Y-119999047D02*
X69185771Y-119760952D01*
X69185771Y-119760952D02*
X69233390Y-119665714D01*
X69233390Y-119665714D02*
X69281009Y-119618095D01*
X69281009Y-119618095D02*
X69376247Y-119570476D01*
X69376247Y-119570476D02*
X69614342Y-119570476D01*
X69614342Y-119570476D02*
X69709580Y-119618095D01*
X69709580Y-119618095D02*
X69757200Y-119665714D01*
X69757200Y-119665714D02*
X69804819Y-119760952D01*
X69804819Y-119760952D02*
X69804819Y-119999047D01*
X69804819Y-119999047D02*
X69757200Y-120094285D01*
X69757200Y-120094285D02*
X69709580Y-120141904D01*
X92661905Y-99054819D02*
X92661905Y-98054819D01*
X92661905Y-98054819D02*
X92900000Y-98054819D01*
X92900000Y-98054819D02*
X93042857Y-98102438D01*
X93042857Y-98102438D02*
X93138095Y-98197676D01*
X93138095Y-98197676D02*
X93185714Y-98292914D01*
X93185714Y-98292914D02*
X93233333Y-98483390D01*
X93233333Y-98483390D02*
X93233333Y-98626247D01*
X93233333Y-98626247D02*
X93185714Y-98816723D01*
X93185714Y-98816723D02*
X93138095Y-98911961D01*
X93138095Y-98911961D02*
X93042857Y-99007200D01*
X93042857Y-99007200D02*
X92900000Y-99054819D01*
X92900000Y-99054819D02*
X92661905Y-99054819D01*
X94185714Y-99054819D02*
X93614286Y-99054819D01*
X93900000Y-99054819D02*
X93900000Y-98054819D01*
X93900000Y-98054819D02*
X93804762Y-98197676D01*
X93804762Y-98197676D02*
X93709524Y-98292914D01*
X93709524Y-98292914D02*
X93614286Y-98340533D01*
X114110645Y-136412000D02*
X115586873Y-136412000D01*
X115586873Y-136412000D02*
X115760547Y-136325163D01*
X115760547Y-136325163D02*
X115847384Y-136238326D01*
X115847384Y-136238326D02*
X115934220Y-136064652D01*
X115934220Y-136064652D02*
X115934220Y-135717305D01*
X115934220Y-135717305D02*
X115847384Y-135543631D01*
X115847384Y-135543631D02*
X115760547Y-135456794D01*
X115760547Y-135456794D02*
X115586873Y-135369957D01*
X115586873Y-135369957D02*
X114110645Y-135369957D01*
X114110645Y-134675262D02*
X114110645Y-133459545D01*
X114110645Y-133459545D02*
X115934220Y-134241077D01*
X161548095Y-174024819D02*
X161548095Y-174834342D01*
X161548095Y-174834342D02*
X161595714Y-174929580D01*
X161595714Y-174929580D02*
X161643333Y-174977200D01*
X161643333Y-174977200D02*
X161738571Y-175024819D01*
X161738571Y-175024819D02*
X161929047Y-175024819D01*
X161929047Y-175024819D02*
X162024285Y-174977200D01*
X162024285Y-174977200D02*
X162071904Y-174929580D01*
X162071904Y-174929580D02*
X162119523Y-174834342D01*
X162119523Y-174834342D02*
X162119523Y-174024819D01*
X162643333Y-175024819D02*
X162833809Y-175024819D01*
X162833809Y-175024819D02*
X162929047Y-174977200D01*
X162929047Y-174977200D02*
X162976666Y-174929580D01*
X162976666Y-174929580D02*
X163071904Y-174786723D01*
X163071904Y-174786723D02*
X163119523Y-174596247D01*
X163119523Y-174596247D02*
X163119523Y-174215295D01*
X163119523Y-174215295D02*
X163071904Y-174120057D01*
X163071904Y-174120057D02*
X163024285Y-174072438D01*
X163024285Y-174072438D02*
X162929047Y-174024819D01*
X162929047Y-174024819D02*
X162738571Y-174024819D01*
X162738571Y-174024819D02*
X162643333Y-174072438D01*
X162643333Y-174072438D02*
X162595714Y-174120057D01*
X162595714Y-174120057D02*
X162548095Y-174215295D01*
X162548095Y-174215295D02*
X162548095Y-174453390D01*
X162548095Y-174453390D02*
X162595714Y-174548628D01*
X162595714Y-174548628D02*
X162643333Y-174596247D01*
X162643333Y-174596247D02*
X162738571Y-174643866D01*
X162738571Y-174643866D02*
X162929047Y-174643866D01*
X162929047Y-174643866D02*
X163024285Y-174596247D01*
X163024285Y-174596247D02*
X163071904Y-174548628D01*
X163071904Y-174548628D02*
X163119523Y-174453390D01*
X163379280Y-171482151D02*
X163141185Y-171482151D01*
X163236423Y-171244056D02*
X163141185Y-171482151D01*
X163141185Y-171482151D02*
X163236423Y-171720246D01*
X162950709Y-171339294D02*
X163141185Y-171482151D01*
X163141185Y-171482151D02*
X162950709Y-171625008D01*
X162288919Y-171482150D02*
X162527014Y-171482150D01*
X162431776Y-171720245D02*
X162527014Y-171482150D01*
X162527014Y-171482150D02*
X162431776Y-171244055D01*
X162717490Y-171625007D02*
X162527014Y-171482150D01*
X162527014Y-171482150D02*
X162717490Y-171339293D01*
X113506819Y-160961904D02*
X113506819Y-160390476D01*
X114506819Y-160676190D02*
X113506819Y-160676190D01*
X114506819Y-160057142D02*
X113506819Y-160057142D01*
X113506819Y-160057142D02*
X113506819Y-159676190D01*
X113506819Y-159676190D02*
X113554438Y-159580952D01*
X113554438Y-159580952D02*
X113602057Y-159533333D01*
X113602057Y-159533333D02*
X113697295Y-159485714D01*
X113697295Y-159485714D02*
X113840152Y-159485714D01*
X113840152Y-159485714D02*
X113935390Y-159533333D01*
X113935390Y-159533333D02*
X113983009Y-159580952D01*
X113983009Y-159580952D02*
X114030628Y-159676190D01*
X114030628Y-159676190D02*
X114030628Y-160057142D01*
X114506819Y-159009523D02*
X114506819Y-158819047D01*
X114506819Y-158819047D02*
X114459200Y-158723809D01*
X114459200Y-158723809D02*
X114411580Y-158676190D01*
X114411580Y-158676190D02*
X114268723Y-158580952D01*
X114268723Y-158580952D02*
X114078247Y-158533333D01*
X114078247Y-158533333D02*
X113697295Y-158533333D01*
X113697295Y-158533333D02*
X113602057Y-158580952D01*
X113602057Y-158580952D02*
X113554438Y-158628571D01*
X113554438Y-158628571D02*
X113506819Y-158723809D01*
X113506819Y-158723809D02*
X113506819Y-158914285D01*
X113506819Y-158914285D02*
X113554438Y-159009523D01*
X113554438Y-159009523D02*
X113602057Y-159057142D01*
X113602057Y-159057142D02*
X113697295Y-159104761D01*
X113697295Y-159104761D02*
X113935390Y-159104761D01*
X113935390Y-159104761D02*
X114030628Y-159057142D01*
X114030628Y-159057142D02*
X114078247Y-159009523D01*
X114078247Y-159009523D02*
X114125866Y-158914285D01*
X114125866Y-158914285D02*
X114125866Y-158723809D01*
X114125866Y-158723809D02*
X114078247Y-158628571D01*
X114078247Y-158628571D02*
X114030628Y-158580952D01*
X114030628Y-158580952D02*
X113935390Y-158533333D01*
X111250057Y-118485238D02*
X111202438Y-118580476D01*
X111202438Y-118580476D02*
X111107200Y-118675714D01*
X111107200Y-118675714D02*
X110964342Y-118818571D01*
X110964342Y-118818571D02*
X110916723Y-118913809D01*
X110916723Y-118913809D02*
X110916723Y-119009047D01*
X111154819Y-118961428D02*
X111107200Y-119056666D01*
X111107200Y-119056666D02*
X111011961Y-119151904D01*
X111011961Y-119151904D02*
X110821485Y-119199523D01*
X110821485Y-119199523D02*
X110488152Y-119199523D01*
X110488152Y-119199523D02*
X110297676Y-119151904D01*
X110297676Y-119151904D02*
X110202438Y-119056666D01*
X110202438Y-119056666D02*
X110154819Y-118961428D01*
X110154819Y-118961428D02*
X110154819Y-118770952D01*
X110154819Y-118770952D02*
X110202438Y-118675714D01*
X110202438Y-118675714D02*
X110297676Y-118580476D01*
X110297676Y-118580476D02*
X110488152Y-118532857D01*
X110488152Y-118532857D02*
X110821485Y-118532857D01*
X110821485Y-118532857D02*
X111011961Y-118580476D01*
X111011961Y-118580476D02*
X111107200Y-118675714D01*
X111107200Y-118675714D02*
X111154819Y-118770952D01*
X111154819Y-118770952D02*
X111154819Y-118961428D01*
X110154819Y-117675714D02*
X110154819Y-117866190D01*
X110154819Y-117866190D02*
X110202438Y-117961428D01*
X110202438Y-117961428D02*
X110250057Y-118009047D01*
X110250057Y-118009047D02*
X110392914Y-118104285D01*
X110392914Y-118104285D02*
X110583390Y-118151904D01*
X110583390Y-118151904D02*
X110964342Y-118151904D01*
X110964342Y-118151904D02*
X111059580Y-118104285D01*
X111059580Y-118104285D02*
X111107200Y-118056666D01*
X111107200Y-118056666D02*
X111154819Y-117961428D01*
X111154819Y-117961428D02*
X111154819Y-117770952D01*
X111154819Y-117770952D02*
X111107200Y-117675714D01*
X111107200Y-117675714D02*
X111059580Y-117628095D01*
X111059580Y-117628095D02*
X110964342Y-117580476D01*
X110964342Y-117580476D02*
X110726247Y-117580476D01*
X110726247Y-117580476D02*
X110631009Y-117628095D01*
X110631009Y-117628095D02*
X110583390Y-117675714D01*
X110583390Y-117675714D02*
X110535771Y-117770952D01*
X110535771Y-117770952D02*
X110535771Y-117961428D01*
X110535771Y-117961428D02*
X110583390Y-118056666D01*
X110583390Y-118056666D02*
X110631009Y-118104285D01*
X110631009Y-118104285D02*
X110726247Y-118151904D01*
X140711905Y-119306819D02*
X141283333Y-119306819D01*
X140997619Y-120306819D02*
X140997619Y-119306819D01*
X141616667Y-120306819D02*
X141616667Y-119306819D01*
X141616667Y-119306819D02*
X141997619Y-119306819D01*
X141997619Y-119306819D02*
X142092857Y-119354438D01*
X142092857Y-119354438D02*
X142140476Y-119402057D01*
X142140476Y-119402057D02*
X142188095Y-119497295D01*
X142188095Y-119497295D02*
X142188095Y-119640152D01*
X142188095Y-119640152D02*
X142140476Y-119735390D01*
X142140476Y-119735390D02*
X142092857Y-119783009D01*
X142092857Y-119783009D02*
X141997619Y-119830628D01*
X141997619Y-119830628D02*
X141616667Y-119830628D01*
X142521429Y-119306819D02*
X143140476Y-119306819D01*
X143140476Y-119306819D02*
X142807143Y-119687771D01*
X142807143Y-119687771D02*
X142950000Y-119687771D01*
X142950000Y-119687771D02*
X143045238Y-119735390D01*
X143045238Y-119735390D02*
X143092857Y-119783009D01*
X143092857Y-119783009D02*
X143140476Y-119878247D01*
X143140476Y-119878247D02*
X143140476Y-120116342D01*
X143140476Y-120116342D02*
X143092857Y-120211580D01*
X143092857Y-120211580D02*
X143045238Y-120259200D01*
X143045238Y-120259200D02*
X142950000Y-120306819D01*
X142950000Y-120306819D02*
X142664286Y-120306819D01*
X142664286Y-120306819D02*
X142569048Y-120259200D01*
X142569048Y-120259200D02*
X142521429Y-120211580D01*
X143521429Y-119402057D02*
X143569048Y-119354438D01*
X143569048Y-119354438D02*
X143664286Y-119306819D01*
X143664286Y-119306819D02*
X143902381Y-119306819D01*
X143902381Y-119306819D02*
X143997619Y-119354438D01*
X143997619Y-119354438D02*
X144045238Y-119402057D01*
X144045238Y-119402057D02*
X144092857Y-119497295D01*
X144092857Y-119497295D02*
X144092857Y-119592533D01*
X144092857Y-119592533D02*
X144045238Y-119735390D01*
X144045238Y-119735390D02*
X143473810Y-120306819D01*
X143473810Y-120306819D02*
X144092857Y-120306819D01*
X99320057Y-170445238D02*
X99272438Y-170540476D01*
X99272438Y-170540476D02*
X99177200Y-170635714D01*
X99177200Y-170635714D02*
X99034342Y-170778571D01*
X99034342Y-170778571D02*
X98986723Y-170873809D01*
X98986723Y-170873809D02*
X98986723Y-170969047D01*
X99224819Y-170921428D02*
X99177200Y-171016666D01*
X99177200Y-171016666D02*
X99081961Y-171111904D01*
X99081961Y-171111904D02*
X98891485Y-171159523D01*
X98891485Y-171159523D02*
X98558152Y-171159523D01*
X98558152Y-171159523D02*
X98367676Y-171111904D01*
X98367676Y-171111904D02*
X98272438Y-171016666D01*
X98272438Y-171016666D02*
X98224819Y-170921428D01*
X98224819Y-170921428D02*
X98224819Y-170730952D01*
X98224819Y-170730952D02*
X98272438Y-170635714D01*
X98272438Y-170635714D02*
X98367676Y-170540476D01*
X98367676Y-170540476D02*
X98558152Y-170492857D01*
X98558152Y-170492857D02*
X98891485Y-170492857D01*
X98891485Y-170492857D02*
X99081961Y-170540476D01*
X99081961Y-170540476D02*
X99177200Y-170635714D01*
X99177200Y-170635714D02*
X99224819Y-170730952D01*
X99224819Y-170730952D02*
X99224819Y-170921428D01*
X99224819Y-169540476D02*
X99224819Y-170111904D01*
X99224819Y-169826190D02*
X98224819Y-169826190D01*
X98224819Y-169826190D02*
X98367676Y-169921428D01*
X98367676Y-169921428D02*
X98462914Y-170016666D01*
X98462914Y-170016666D02*
X98510533Y-170111904D01*
X75616666Y-137054819D02*
X75616666Y-137769104D01*
X75616666Y-137769104D02*
X75569047Y-137911961D01*
X75569047Y-137911961D02*
X75473809Y-138007200D01*
X75473809Y-138007200D02*
X75330952Y-138054819D01*
X75330952Y-138054819D02*
X75235714Y-138054819D01*
X75997619Y-137054819D02*
X76616666Y-137054819D01*
X76616666Y-137054819D02*
X76283333Y-137435771D01*
X76283333Y-137435771D02*
X76426190Y-137435771D01*
X76426190Y-137435771D02*
X76521428Y-137483390D01*
X76521428Y-137483390D02*
X76569047Y-137531009D01*
X76569047Y-137531009D02*
X76616666Y-137626247D01*
X76616666Y-137626247D02*
X76616666Y-137864342D01*
X76616666Y-137864342D02*
X76569047Y-137959580D01*
X76569047Y-137959580D02*
X76521428Y-138007200D01*
X76521428Y-138007200D02*
X76426190Y-138054819D01*
X76426190Y-138054819D02*
X76140476Y-138054819D01*
X76140476Y-138054819D02*
X76045238Y-138007200D01*
X76045238Y-138007200D02*
X75997619Y-137959580D01*
X80754819Y-148861904D02*
X80754819Y-148290476D01*
X81754819Y-148576190D02*
X80754819Y-148576190D01*
X81754819Y-147957142D02*
X80754819Y-147957142D01*
X80754819Y-147957142D02*
X80754819Y-147576190D01*
X80754819Y-147576190D02*
X80802438Y-147480952D01*
X80802438Y-147480952D02*
X80850057Y-147433333D01*
X80850057Y-147433333D02*
X80945295Y-147385714D01*
X80945295Y-147385714D02*
X81088152Y-147385714D01*
X81088152Y-147385714D02*
X81183390Y-147433333D01*
X81183390Y-147433333D02*
X81231009Y-147480952D01*
X81231009Y-147480952D02*
X81278628Y-147576190D01*
X81278628Y-147576190D02*
X81278628Y-147957142D01*
X80754819Y-147052380D02*
X80754819Y-146385714D01*
X80754819Y-146385714D02*
X81754819Y-146814285D01*
X162074819Y-170858094D02*
X162074819Y-170286666D01*
X163074819Y-170572380D02*
X162074819Y-170572380D01*
X163074819Y-169953332D02*
X162074819Y-169953332D01*
X162074819Y-169953332D02*
X162074819Y-169572380D01*
X162074819Y-169572380D02*
X162122438Y-169477142D01*
X162122438Y-169477142D02*
X162170057Y-169429523D01*
X162170057Y-169429523D02*
X162265295Y-169381904D01*
X162265295Y-169381904D02*
X162408152Y-169381904D01*
X162408152Y-169381904D02*
X162503390Y-169429523D01*
X162503390Y-169429523D02*
X162551009Y-169477142D01*
X162551009Y-169477142D02*
X162598628Y-169572380D01*
X162598628Y-169572380D02*
X162598628Y-169953332D01*
X162170057Y-169000951D02*
X162122438Y-168953332D01*
X162122438Y-168953332D02*
X162074819Y-168858094D01*
X162074819Y-168858094D02*
X162074819Y-168619999D01*
X162074819Y-168619999D02*
X162122438Y-168524761D01*
X162122438Y-168524761D02*
X162170057Y-168477142D01*
X162170057Y-168477142D02*
X162265295Y-168429523D01*
X162265295Y-168429523D02*
X162360533Y-168429523D01*
X162360533Y-168429523D02*
X162503390Y-168477142D01*
X162503390Y-168477142D02*
X163074819Y-169048570D01*
X163074819Y-169048570D02*
X163074819Y-168429523D01*
X162170057Y-168048570D02*
X162122438Y-168000951D01*
X162122438Y-168000951D02*
X162074819Y-167905713D01*
X162074819Y-167905713D02*
X162074819Y-167667618D01*
X162074819Y-167667618D02*
X162122438Y-167572380D01*
X162122438Y-167572380D02*
X162170057Y-167524761D01*
X162170057Y-167524761D02*
X162265295Y-167477142D01*
X162265295Y-167477142D02*
X162360533Y-167477142D01*
X162360533Y-167477142D02*
X162503390Y-167524761D01*
X162503390Y-167524761D02*
X163074819Y-168096189D01*
X163074819Y-168096189D02*
X163074819Y-167477142D01*
X152691905Y-161264819D02*
X152691905Y-162074342D01*
X152691905Y-162074342D02*
X152739524Y-162169580D01*
X152739524Y-162169580D02*
X152787143Y-162217200D01*
X152787143Y-162217200D02*
X152882381Y-162264819D01*
X152882381Y-162264819D02*
X153072857Y-162264819D01*
X153072857Y-162264819D02*
X153168095Y-162217200D01*
X153168095Y-162217200D02*
X153215714Y-162169580D01*
X153215714Y-162169580D02*
X153263333Y-162074342D01*
X153263333Y-162074342D02*
X153263333Y-161264819D01*
X154263333Y-162264819D02*
X153691905Y-162264819D01*
X153977619Y-162264819D02*
X153977619Y-161264819D01*
X153977619Y-161264819D02*
X153882381Y-161407676D01*
X153882381Y-161407676D02*
X153787143Y-161502914D01*
X153787143Y-161502914D02*
X153691905Y-161550533D01*
X154882381Y-161264819D02*
X154977619Y-161264819D01*
X154977619Y-161264819D02*
X155072857Y-161312438D01*
X155072857Y-161312438D02*
X155120476Y-161360057D01*
X155120476Y-161360057D02*
X155168095Y-161455295D01*
X155168095Y-161455295D02*
X155215714Y-161645771D01*
X155215714Y-161645771D02*
X155215714Y-161883866D01*
X155215714Y-161883866D02*
X155168095Y-162074342D01*
X155168095Y-162074342D02*
X155120476Y-162169580D01*
X155120476Y-162169580D02*
X155072857Y-162217200D01*
X155072857Y-162217200D02*
X154977619Y-162264819D01*
X154977619Y-162264819D02*
X154882381Y-162264819D01*
X154882381Y-162264819D02*
X154787143Y-162217200D01*
X154787143Y-162217200D02*
X154739524Y-162169580D01*
X154739524Y-162169580D02*
X154691905Y-162074342D01*
X154691905Y-162074342D02*
X154644286Y-161883866D01*
X154644286Y-161883866D02*
X154644286Y-161645771D01*
X154644286Y-161645771D02*
X154691905Y-161455295D01*
X154691905Y-161455295D02*
X154739524Y-161360057D01*
X154739524Y-161360057D02*
X154787143Y-161312438D01*
X154787143Y-161312438D02*
X154882381Y-161264819D01*
X105394819Y-105125704D02*
X106204342Y-105125704D01*
X106204342Y-105125704D02*
X106299580Y-105078085D01*
X106299580Y-105078085D02*
X106347200Y-105030466D01*
X106347200Y-105030466D02*
X106394819Y-104935228D01*
X106394819Y-104935228D02*
X106394819Y-104744752D01*
X106394819Y-104744752D02*
X106347200Y-104649514D01*
X106347200Y-104649514D02*
X106299580Y-104601895D01*
X106299580Y-104601895D02*
X106204342Y-104554276D01*
X106204342Y-104554276D02*
X105394819Y-104554276D01*
X106394819Y-103554276D02*
X106394819Y-104125704D01*
X106394819Y-103839990D02*
X105394819Y-103839990D01*
X105394819Y-103839990D02*
X105537676Y-103935228D01*
X105537676Y-103935228D02*
X105632914Y-104030466D01*
X105632914Y-104030466D02*
X105680533Y-104125704D01*
X98293019Y-107081599D02*
X98531114Y-107081599D01*
X98435876Y-107319694D02*
X98531114Y-107081599D01*
X98531114Y-107081599D02*
X98435876Y-106843504D01*
X98721590Y-107224456D02*
X98531114Y-107081599D01*
X98531114Y-107081599D02*
X98721590Y-106938742D01*
X98293019Y-107081599D02*
X98531114Y-107081599D01*
X98435876Y-107319694D02*
X98531114Y-107081599D01*
X98531114Y-107081599D02*
X98435876Y-106843504D01*
X98721590Y-107224456D02*
X98531114Y-107081599D01*
X98531114Y-107081599D02*
X98721590Y-106938742D01*
X90646819Y-106911904D02*
X90646819Y-106340476D01*
X91646819Y-106626190D02*
X90646819Y-106626190D01*
X91646819Y-106007142D02*
X90646819Y-106007142D01*
X90646819Y-106007142D02*
X90646819Y-105626190D01*
X90646819Y-105626190D02*
X90694438Y-105530952D01*
X90694438Y-105530952D02*
X90742057Y-105483333D01*
X90742057Y-105483333D02*
X90837295Y-105435714D01*
X90837295Y-105435714D02*
X90980152Y-105435714D01*
X90980152Y-105435714D02*
X91075390Y-105483333D01*
X91075390Y-105483333D02*
X91123009Y-105530952D01*
X91123009Y-105530952D02*
X91170628Y-105626190D01*
X91170628Y-105626190D02*
X91170628Y-106007142D01*
X91075390Y-104864285D02*
X91027771Y-104959523D01*
X91027771Y-104959523D02*
X90980152Y-105007142D01*
X90980152Y-105007142D02*
X90884914Y-105054761D01*
X90884914Y-105054761D02*
X90837295Y-105054761D01*
X90837295Y-105054761D02*
X90742057Y-105007142D01*
X90742057Y-105007142D02*
X90694438Y-104959523D01*
X90694438Y-104959523D02*
X90646819Y-104864285D01*
X90646819Y-104864285D02*
X90646819Y-104673809D01*
X90646819Y-104673809D02*
X90694438Y-104578571D01*
X90694438Y-104578571D02*
X90742057Y-104530952D01*
X90742057Y-104530952D02*
X90837295Y-104483333D01*
X90837295Y-104483333D02*
X90884914Y-104483333D01*
X90884914Y-104483333D02*
X90980152Y-104530952D01*
X90980152Y-104530952D02*
X91027771Y-104578571D01*
X91027771Y-104578571D02*
X91075390Y-104673809D01*
X91075390Y-104673809D02*
X91075390Y-104864285D01*
X91075390Y-104864285D02*
X91123009Y-104959523D01*
X91123009Y-104959523D02*
X91170628Y-105007142D01*
X91170628Y-105007142D02*
X91265866Y-105054761D01*
X91265866Y-105054761D02*
X91456342Y-105054761D01*
X91456342Y-105054761D02*
X91551580Y-105007142D01*
X91551580Y-105007142D02*
X91599200Y-104959523D01*
X91599200Y-104959523D02*
X91646819Y-104864285D01*
X91646819Y-104864285D02*
X91646819Y-104673809D01*
X91646819Y-104673809D02*
X91599200Y-104578571D01*
X91599200Y-104578571D02*
X91551580Y-104530952D01*
X91551580Y-104530952D02*
X91456342Y-104483333D01*
X91456342Y-104483333D02*
X91265866Y-104483333D01*
X91265866Y-104483333D02*
X91170628Y-104530952D01*
X91170628Y-104530952D02*
X91123009Y-104578571D01*
X91123009Y-104578571D02*
X91075390Y-104673809D01*
X131614819Y-167818094D02*
X130614819Y-167818094D01*
X130614819Y-167818094D02*
X130614819Y-167579999D01*
X130614819Y-167579999D02*
X130662438Y-167437142D01*
X130662438Y-167437142D02*
X130757676Y-167341904D01*
X130757676Y-167341904D02*
X130852914Y-167294285D01*
X130852914Y-167294285D02*
X131043390Y-167246666D01*
X131043390Y-167246666D02*
X131186247Y-167246666D01*
X131186247Y-167246666D02*
X131376723Y-167294285D01*
X131376723Y-167294285D02*
X131471961Y-167341904D01*
X131471961Y-167341904D02*
X131567200Y-167437142D01*
X131567200Y-167437142D02*
X131614819Y-167579999D01*
X131614819Y-167579999D02*
X131614819Y-167818094D01*
X130614819Y-166913332D02*
X130614819Y-166294285D01*
X130614819Y-166294285D02*
X130995771Y-166627618D01*
X130995771Y-166627618D02*
X130995771Y-166484761D01*
X130995771Y-166484761D02*
X131043390Y-166389523D01*
X131043390Y-166389523D02*
X131091009Y-166341904D01*
X131091009Y-166341904D02*
X131186247Y-166294285D01*
X131186247Y-166294285D02*
X131424342Y-166294285D01*
X131424342Y-166294285D02*
X131519580Y-166341904D01*
X131519580Y-166341904D02*
X131567200Y-166389523D01*
X131567200Y-166389523D02*
X131614819Y-166484761D01*
X131614819Y-166484761D02*
X131614819Y-166770475D01*
X131614819Y-166770475D02*
X131567200Y-166865713D01*
X131567200Y-166865713D02*
X131519580Y-166913332D01*
X92366667Y-177107200D02*
X92509524Y-177154819D01*
X92509524Y-177154819D02*
X92747619Y-177154819D01*
X92747619Y-177154819D02*
X92842857Y-177107200D01*
X92842857Y-177107200D02*
X92890476Y-177059580D01*
X92890476Y-177059580D02*
X92938095Y-176964342D01*
X92938095Y-176964342D02*
X92938095Y-176869104D01*
X92938095Y-176869104D02*
X92890476Y-176773866D01*
X92890476Y-176773866D02*
X92842857Y-176726247D01*
X92842857Y-176726247D02*
X92747619Y-176678628D01*
X92747619Y-176678628D02*
X92557143Y-176631009D01*
X92557143Y-176631009D02*
X92461905Y-176583390D01*
X92461905Y-176583390D02*
X92414286Y-176535771D01*
X92414286Y-176535771D02*
X92366667Y-176440533D01*
X92366667Y-176440533D02*
X92366667Y-176345295D01*
X92366667Y-176345295D02*
X92414286Y-176250057D01*
X92414286Y-176250057D02*
X92461905Y-176202438D01*
X92461905Y-176202438D02*
X92557143Y-176154819D01*
X92557143Y-176154819D02*
X92795238Y-176154819D01*
X92795238Y-176154819D02*
X92938095Y-176202438D01*
X93271429Y-176154819D02*
X93509524Y-177154819D01*
X93509524Y-177154819D02*
X93700000Y-176440533D01*
X93700000Y-176440533D02*
X93890476Y-177154819D01*
X93890476Y-177154819D02*
X94128572Y-176154819D01*
X94938095Y-176488152D02*
X94938095Y-177154819D01*
X94700000Y-176107200D02*
X94461905Y-176821485D01*
X94461905Y-176821485D02*
X95080952Y-176821485D01*
X87985000Y-171557419D02*
X87985000Y-171795514D01*
X87746905Y-171700276D02*
X87985000Y-171795514D01*
X87985000Y-171795514D02*
X88223095Y-171700276D01*
X87842143Y-171985990D02*
X87985000Y-171795514D01*
X87985000Y-171795514D02*
X88127857Y-171985990D01*
X87985000Y-171557419D02*
X87985000Y-171795514D01*
X87746905Y-171700276D02*
X87985000Y-171795514D01*
X87985000Y-171795514D02*
X88223095Y-171700276D01*
X87842143Y-171985990D02*
X87985000Y-171795514D01*
X87985000Y-171795514D02*
X88127857Y-171985990D01*
X111256819Y-146088094D02*
X111256819Y-145516666D01*
X112256819Y-145802380D02*
X111256819Y-145802380D01*
X112256819Y-145183332D02*
X111256819Y-145183332D01*
X111256819Y-145183332D02*
X111256819Y-144802380D01*
X111256819Y-144802380D02*
X111304438Y-144707142D01*
X111304438Y-144707142D02*
X111352057Y-144659523D01*
X111352057Y-144659523D02*
X111447295Y-144611904D01*
X111447295Y-144611904D02*
X111590152Y-144611904D01*
X111590152Y-144611904D02*
X111685390Y-144659523D01*
X111685390Y-144659523D02*
X111733009Y-144707142D01*
X111733009Y-144707142D02*
X111780628Y-144802380D01*
X111780628Y-144802380D02*
X111780628Y-145183332D01*
X112256819Y-143659523D02*
X112256819Y-144230951D01*
X112256819Y-143945237D02*
X111256819Y-143945237D01*
X111256819Y-143945237D02*
X111399676Y-144040475D01*
X111399676Y-144040475D02*
X111494914Y-144135713D01*
X111494914Y-144135713D02*
X111542533Y-144230951D01*
X111256819Y-143040475D02*
X111256819Y-142945237D01*
X111256819Y-142945237D02*
X111304438Y-142849999D01*
X111304438Y-142849999D02*
X111352057Y-142802380D01*
X111352057Y-142802380D02*
X111447295Y-142754761D01*
X111447295Y-142754761D02*
X111637771Y-142707142D01*
X111637771Y-142707142D02*
X111875866Y-142707142D01*
X111875866Y-142707142D02*
X112066342Y-142754761D01*
X112066342Y-142754761D02*
X112161580Y-142802380D01*
X112161580Y-142802380D02*
X112209200Y-142849999D01*
X112209200Y-142849999D02*
X112256819Y-142945237D01*
X112256819Y-142945237D02*
X112256819Y-143040475D01*
X112256819Y-143040475D02*
X112209200Y-143135713D01*
X112209200Y-143135713D02*
X112161580Y-143183332D01*
X112161580Y-143183332D02*
X112066342Y-143230951D01*
X112066342Y-143230951D02*
X111875866Y-143278570D01*
X111875866Y-143278570D02*
X111637771Y-143278570D01*
X111637771Y-143278570D02*
X111447295Y-143230951D01*
X111447295Y-143230951D02*
X111352057Y-143183332D01*
X111352057Y-143183332D02*
X111304438Y-143135713D01*
X111304438Y-143135713D02*
X111256819Y-143040475D01*
X146602819Y-168038094D02*
X146602819Y-167466666D01*
X147602819Y-167752380D02*
X146602819Y-167752380D01*
X147602819Y-167133332D02*
X146602819Y-167133332D01*
X146602819Y-167133332D02*
X146602819Y-166752380D01*
X146602819Y-166752380D02*
X146650438Y-166657142D01*
X146650438Y-166657142D02*
X146698057Y-166609523D01*
X146698057Y-166609523D02*
X146793295Y-166561904D01*
X146793295Y-166561904D02*
X146936152Y-166561904D01*
X146936152Y-166561904D02*
X147031390Y-166609523D01*
X147031390Y-166609523D02*
X147079009Y-166657142D01*
X147079009Y-166657142D02*
X147126628Y-166752380D01*
X147126628Y-166752380D02*
X147126628Y-167133332D01*
X147602819Y-165609523D02*
X147602819Y-166180951D01*
X147602819Y-165895237D02*
X146602819Y-165895237D01*
X146602819Y-165895237D02*
X146745676Y-165990475D01*
X146745676Y-165990475D02*
X146840914Y-166085713D01*
X146840914Y-166085713D02*
X146888533Y-166180951D01*
X146936152Y-164752380D02*
X147602819Y-164752380D01*
X146555200Y-164990475D02*
X147269485Y-165228570D01*
X147269485Y-165228570D02*
X147269485Y-164609523D01*
X138611905Y-125506819D02*
X139183333Y-125506819D01*
X138897619Y-126506819D02*
X138897619Y-125506819D01*
X139516667Y-126506819D02*
X139516667Y-125506819D01*
X139516667Y-125506819D02*
X139897619Y-125506819D01*
X139897619Y-125506819D02*
X139992857Y-125554438D01*
X139992857Y-125554438D02*
X140040476Y-125602057D01*
X140040476Y-125602057D02*
X140088095Y-125697295D01*
X140088095Y-125697295D02*
X140088095Y-125840152D01*
X140088095Y-125840152D02*
X140040476Y-125935390D01*
X140040476Y-125935390D02*
X139992857Y-125983009D01*
X139992857Y-125983009D02*
X139897619Y-126030628D01*
X139897619Y-126030628D02*
X139516667Y-126030628D01*
X140421429Y-125506819D02*
X141040476Y-125506819D01*
X141040476Y-125506819D02*
X140707143Y-125887771D01*
X140707143Y-125887771D02*
X140850000Y-125887771D01*
X140850000Y-125887771D02*
X140945238Y-125935390D01*
X140945238Y-125935390D02*
X140992857Y-125983009D01*
X140992857Y-125983009D02*
X141040476Y-126078247D01*
X141040476Y-126078247D02*
X141040476Y-126316342D01*
X141040476Y-126316342D02*
X140992857Y-126411580D01*
X140992857Y-126411580D02*
X140945238Y-126459200D01*
X140945238Y-126459200D02*
X140850000Y-126506819D01*
X140850000Y-126506819D02*
X140564286Y-126506819D01*
X140564286Y-126506819D02*
X140469048Y-126459200D01*
X140469048Y-126459200D02*
X140421429Y-126411580D01*
X141897619Y-125840152D02*
X141897619Y-126506819D01*
X141659524Y-125459200D02*
X141421429Y-126173485D01*
X141421429Y-126173485D02*
X142040476Y-126173485D01*
X97006819Y-132161904D02*
X97006819Y-131590476D01*
X98006819Y-131876190D02*
X97006819Y-131876190D01*
X98006819Y-131257142D02*
X97006819Y-131257142D01*
X97006819Y-131257142D02*
X97006819Y-130876190D01*
X97006819Y-130876190D02*
X97054438Y-130780952D01*
X97054438Y-130780952D02*
X97102057Y-130733333D01*
X97102057Y-130733333D02*
X97197295Y-130685714D01*
X97197295Y-130685714D02*
X97340152Y-130685714D01*
X97340152Y-130685714D02*
X97435390Y-130733333D01*
X97435390Y-130733333D02*
X97483009Y-130780952D01*
X97483009Y-130780952D02*
X97530628Y-130876190D01*
X97530628Y-130876190D02*
X97530628Y-131257142D01*
X97006819Y-130352380D02*
X97006819Y-129733333D01*
X97006819Y-129733333D02*
X97387771Y-130066666D01*
X97387771Y-130066666D02*
X97387771Y-129923809D01*
X97387771Y-129923809D02*
X97435390Y-129828571D01*
X97435390Y-129828571D02*
X97483009Y-129780952D01*
X97483009Y-129780952D02*
X97578247Y-129733333D01*
X97578247Y-129733333D02*
X97816342Y-129733333D01*
X97816342Y-129733333D02*
X97911580Y-129780952D01*
X97911580Y-129780952D02*
X97959200Y-129828571D01*
X97959200Y-129828571D02*
X98006819Y-129923809D01*
X98006819Y-129923809D02*
X98006819Y-130209523D01*
X98006819Y-130209523D02*
X97959200Y-130304761D01*
X97959200Y-130304761D02*
X97911580Y-130352380D01*
X95444642Y-101004819D02*
X95111309Y-100528628D01*
X94873214Y-101004819D02*
X94873214Y-100004819D01*
X94873214Y-100004819D02*
X95254166Y-100004819D01*
X95254166Y-100004819D02*
X95349404Y-100052438D01*
X95349404Y-100052438D02*
X95397023Y-100100057D01*
X95397023Y-100100057D02*
X95444642Y-100195295D01*
X95444642Y-100195295D02*
X95444642Y-100338152D01*
X95444642Y-100338152D02*
X95397023Y-100433390D01*
X95397023Y-100433390D02*
X95349404Y-100481009D01*
X95349404Y-100481009D02*
X95254166Y-100528628D01*
X95254166Y-100528628D02*
X94873214Y-100528628D01*
X96397023Y-101004819D02*
X95825595Y-101004819D01*
X96111309Y-101004819D02*
X96111309Y-100004819D01*
X96111309Y-100004819D02*
X96016071Y-100147676D01*
X96016071Y-100147676D02*
X95920833Y-100242914D01*
X95920833Y-100242914D02*
X95825595Y-100290533D01*
X97254166Y-100338152D02*
X97254166Y-101004819D01*
X97016071Y-99957200D02*
X96777976Y-100671485D01*
X96777976Y-100671485D02*
X97397023Y-100671485D01*
X95928095Y-124924819D02*
X95928095Y-125734342D01*
X95928095Y-125734342D02*
X95975714Y-125829580D01*
X95975714Y-125829580D02*
X96023333Y-125877200D01*
X96023333Y-125877200D02*
X96118571Y-125924819D01*
X96118571Y-125924819D02*
X96309047Y-125924819D01*
X96309047Y-125924819D02*
X96404285Y-125877200D01*
X96404285Y-125877200D02*
X96451904Y-125829580D01*
X96451904Y-125829580D02*
X96499523Y-125734342D01*
X96499523Y-125734342D02*
X96499523Y-124924819D01*
X96880476Y-124924819D02*
X97499523Y-124924819D01*
X97499523Y-124924819D02*
X97166190Y-125305771D01*
X97166190Y-125305771D02*
X97309047Y-125305771D01*
X97309047Y-125305771D02*
X97404285Y-125353390D01*
X97404285Y-125353390D02*
X97451904Y-125401009D01*
X97451904Y-125401009D02*
X97499523Y-125496247D01*
X97499523Y-125496247D02*
X97499523Y-125734342D01*
X97499523Y-125734342D02*
X97451904Y-125829580D01*
X97451904Y-125829580D02*
X97404285Y-125877200D01*
X97404285Y-125877200D02*
X97309047Y-125924819D01*
X97309047Y-125924819D02*
X97023333Y-125924819D01*
X97023333Y-125924819D02*
X96928095Y-125877200D01*
X96928095Y-125877200D02*
X96880476Y-125829580D01*
X159231905Y-160434819D02*
X159803333Y-160434819D01*
X159517619Y-161434819D02*
X159517619Y-160434819D01*
X160136667Y-161434819D02*
X160136667Y-160434819D01*
X160136667Y-160434819D02*
X160517619Y-160434819D01*
X160517619Y-160434819D02*
X160612857Y-160482438D01*
X160612857Y-160482438D02*
X160660476Y-160530057D01*
X160660476Y-160530057D02*
X160708095Y-160625295D01*
X160708095Y-160625295D02*
X160708095Y-160768152D01*
X160708095Y-160768152D02*
X160660476Y-160863390D01*
X160660476Y-160863390D02*
X160612857Y-160911009D01*
X160612857Y-160911009D02*
X160517619Y-160958628D01*
X160517619Y-160958628D02*
X160136667Y-160958628D01*
X161089048Y-160530057D02*
X161136667Y-160482438D01*
X161136667Y-160482438D02*
X161231905Y-160434819D01*
X161231905Y-160434819D02*
X161470000Y-160434819D01*
X161470000Y-160434819D02*
X161565238Y-160482438D01*
X161565238Y-160482438D02*
X161612857Y-160530057D01*
X161612857Y-160530057D02*
X161660476Y-160625295D01*
X161660476Y-160625295D02*
X161660476Y-160720533D01*
X161660476Y-160720533D02*
X161612857Y-160863390D01*
X161612857Y-160863390D02*
X161041429Y-161434819D01*
X161041429Y-161434819D02*
X161660476Y-161434819D01*
X162517619Y-160768152D02*
X162517619Y-161434819D01*
X162279524Y-160387200D02*
X162041429Y-161101485D01*
X162041429Y-161101485D02*
X162660476Y-161101485D01*
X64406819Y-124061904D02*
X64406819Y-123490476D01*
X65406819Y-123776190D02*
X64406819Y-123776190D01*
X65406819Y-123157142D02*
X64406819Y-123157142D01*
X64406819Y-123157142D02*
X64406819Y-122776190D01*
X64406819Y-122776190D02*
X64454438Y-122680952D01*
X64454438Y-122680952D02*
X64502057Y-122633333D01*
X64502057Y-122633333D02*
X64597295Y-122585714D01*
X64597295Y-122585714D02*
X64740152Y-122585714D01*
X64740152Y-122585714D02*
X64835390Y-122633333D01*
X64835390Y-122633333D02*
X64883009Y-122680952D01*
X64883009Y-122680952D02*
X64930628Y-122776190D01*
X64930628Y-122776190D02*
X64930628Y-123157142D01*
X65406819Y-121633333D02*
X65406819Y-122204761D01*
X65406819Y-121919047D02*
X64406819Y-121919047D01*
X64406819Y-121919047D02*
X64549676Y-122014285D01*
X64549676Y-122014285D02*
X64644914Y-122109523D01*
X64644914Y-122109523D02*
X64692533Y-122204761D01*
X166027820Y-189163094D02*
X166027820Y-188591666D01*
X167027820Y-188877380D02*
X166027820Y-188877380D01*
X167027820Y-188258332D02*
X166027820Y-188258332D01*
X166027820Y-188258332D02*
X166027820Y-187877380D01*
X166027820Y-187877380D02*
X166075439Y-187782142D01*
X166075439Y-187782142D02*
X166123058Y-187734523D01*
X166123058Y-187734523D02*
X166218296Y-187686904D01*
X166218296Y-187686904D02*
X166361153Y-187686904D01*
X166361153Y-187686904D02*
X166456391Y-187734523D01*
X166456391Y-187734523D02*
X166504010Y-187782142D01*
X166504010Y-187782142D02*
X166551629Y-187877380D01*
X166551629Y-187877380D02*
X166551629Y-188258332D01*
X166123058Y-187305951D02*
X166075439Y-187258332D01*
X166075439Y-187258332D02*
X166027820Y-187163094D01*
X166027820Y-187163094D02*
X166027820Y-186924999D01*
X166027820Y-186924999D02*
X166075439Y-186829761D01*
X166075439Y-186829761D02*
X166123058Y-186782142D01*
X166123058Y-186782142D02*
X166218296Y-186734523D01*
X166218296Y-186734523D02*
X166313534Y-186734523D01*
X166313534Y-186734523D02*
X166456391Y-186782142D01*
X166456391Y-186782142D02*
X167027820Y-187353570D01*
X167027820Y-187353570D02*
X167027820Y-186734523D01*
X166027820Y-186401189D02*
X166027820Y-185782142D01*
X166027820Y-185782142D02*
X166408772Y-186115475D01*
X166408772Y-186115475D02*
X166408772Y-185972618D01*
X166408772Y-185972618D02*
X166456391Y-185877380D01*
X166456391Y-185877380D02*
X166504010Y-185829761D01*
X166504010Y-185829761D02*
X166599248Y-185782142D01*
X166599248Y-185782142D02*
X166837343Y-185782142D01*
X166837343Y-185782142D02*
X166932581Y-185829761D01*
X166932581Y-185829761D02*
X166980201Y-185877380D01*
X166980201Y-185877380D02*
X167027820Y-185972618D01*
X167027820Y-185972618D02*
X167027820Y-186258332D01*
X167027820Y-186258332D02*
X166980201Y-186353570D01*
X166980201Y-186353570D02*
X166932581Y-186401189D01*
X61481905Y-111454819D02*
X62053333Y-111454819D01*
X61767619Y-112454819D02*
X61767619Y-111454819D01*
X62386667Y-112454819D02*
X62386667Y-111454819D01*
X62386667Y-111454819D02*
X62767619Y-111454819D01*
X62767619Y-111454819D02*
X62862857Y-111502438D01*
X62862857Y-111502438D02*
X62910476Y-111550057D01*
X62910476Y-111550057D02*
X62958095Y-111645295D01*
X62958095Y-111645295D02*
X62958095Y-111788152D01*
X62958095Y-111788152D02*
X62910476Y-111883390D01*
X62910476Y-111883390D02*
X62862857Y-111931009D01*
X62862857Y-111931009D02*
X62767619Y-111978628D01*
X62767619Y-111978628D02*
X62386667Y-111978628D01*
X63291429Y-111454819D02*
X63910476Y-111454819D01*
X63910476Y-111454819D02*
X63577143Y-111835771D01*
X63577143Y-111835771D02*
X63720000Y-111835771D01*
X63720000Y-111835771D02*
X63815238Y-111883390D01*
X63815238Y-111883390D02*
X63862857Y-111931009D01*
X63862857Y-111931009D02*
X63910476Y-112026247D01*
X63910476Y-112026247D02*
X63910476Y-112264342D01*
X63910476Y-112264342D02*
X63862857Y-112359580D01*
X63862857Y-112359580D02*
X63815238Y-112407200D01*
X63815238Y-112407200D02*
X63720000Y-112454819D01*
X63720000Y-112454819D02*
X63434286Y-112454819D01*
X63434286Y-112454819D02*
X63339048Y-112407200D01*
X63339048Y-112407200D02*
X63291429Y-112359580D01*
X64243810Y-111454819D02*
X64910476Y-111454819D01*
X64910476Y-111454819D02*
X64481905Y-112454819D01*
X156484819Y-141038094D02*
X157294342Y-141038094D01*
X157294342Y-141038094D02*
X157389580Y-140990475D01*
X157389580Y-140990475D02*
X157437200Y-140942856D01*
X157437200Y-140942856D02*
X157484819Y-140847618D01*
X157484819Y-140847618D02*
X157484819Y-140657142D01*
X157484819Y-140657142D02*
X157437200Y-140561904D01*
X157437200Y-140561904D02*
X157389580Y-140514285D01*
X157389580Y-140514285D02*
X157294342Y-140466666D01*
X157294342Y-140466666D02*
X156484819Y-140466666D01*
X157484819Y-139466666D02*
X157484819Y-140038094D01*
X157484819Y-139752380D02*
X156484819Y-139752380D01*
X156484819Y-139752380D02*
X156627676Y-139847618D01*
X156627676Y-139847618D02*
X156722914Y-139942856D01*
X156722914Y-139942856D02*
X156770533Y-140038094D01*
X156484819Y-138561904D02*
X156484819Y-139038094D01*
X156484819Y-139038094D02*
X156961009Y-139085713D01*
X156961009Y-139085713D02*
X156913390Y-139038094D01*
X156913390Y-139038094D02*
X156865771Y-138942856D01*
X156865771Y-138942856D02*
X156865771Y-138704761D01*
X156865771Y-138704761D02*
X156913390Y-138609523D01*
X156913390Y-138609523D02*
X156961009Y-138561904D01*
X156961009Y-138561904D02*
X157056247Y-138514285D01*
X157056247Y-138514285D02*
X157294342Y-138514285D01*
X157294342Y-138514285D02*
X157389580Y-138561904D01*
X157389580Y-138561904D02*
X157437200Y-138609523D01*
X157437200Y-138609523D02*
X157484819Y-138704761D01*
X157484819Y-138704761D02*
X157484819Y-138942856D01*
X157484819Y-138942856D02*
X157437200Y-139038094D01*
X157437200Y-139038094D02*
X157389580Y-139085713D01*
X144361905Y-157456819D02*
X144933333Y-157456819D01*
X144647619Y-158456819D02*
X144647619Y-157456819D01*
X145266667Y-158456819D02*
X145266667Y-157456819D01*
X145266667Y-157456819D02*
X145647619Y-157456819D01*
X145647619Y-157456819D02*
X145742857Y-157504438D01*
X145742857Y-157504438D02*
X145790476Y-157552057D01*
X145790476Y-157552057D02*
X145838095Y-157647295D01*
X145838095Y-157647295D02*
X145838095Y-157790152D01*
X145838095Y-157790152D02*
X145790476Y-157885390D01*
X145790476Y-157885390D02*
X145742857Y-157933009D01*
X145742857Y-157933009D02*
X145647619Y-157980628D01*
X145647619Y-157980628D02*
X145266667Y-157980628D01*
X146790476Y-158456819D02*
X146219048Y-158456819D01*
X146504762Y-158456819D02*
X146504762Y-157456819D01*
X146504762Y-157456819D02*
X146409524Y-157599676D01*
X146409524Y-157599676D02*
X146314286Y-157694914D01*
X146314286Y-157694914D02*
X146219048Y-157742533D01*
X147647619Y-157456819D02*
X147457143Y-157456819D01*
X147457143Y-157456819D02*
X147361905Y-157504438D01*
X147361905Y-157504438D02*
X147314286Y-157552057D01*
X147314286Y-157552057D02*
X147219048Y-157694914D01*
X147219048Y-157694914D02*
X147171429Y-157885390D01*
X147171429Y-157885390D02*
X147171429Y-158266342D01*
X147171429Y-158266342D02*
X147219048Y-158361580D01*
X147219048Y-158361580D02*
X147266667Y-158409200D01*
X147266667Y-158409200D02*
X147361905Y-158456819D01*
X147361905Y-158456819D02*
X147552381Y-158456819D01*
X147552381Y-158456819D02*
X147647619Y-158409200D01*
X147647619Y-158409200D02*
X147695238Y-158361580D01*
X147695238Y-158361580D02*
X147742857Y-158266342D01*
X147742857Y-158266342D02*
X147742857Y-158028247D01*
X147742857Y-158028247D02*
X147695238Y-157933009D01*
X147695238Y-157933009D02*
X147647619Y-157885390D01*
X147647619Y-157885390D02*
X147552381Y-157837771D01*
X147552381Y-157837771D02*
X147361905Y-157837771D01*
X147361905Y-157837771D02*
X147266667Y-157885390D01*
X147266667Y-157885390D02*
X147219048Y-157933009D01*
X147219048Y-157933009D02*
X147171429Y-158028247D01*
X97379580Y-102542857D02*
X97427200Y-102590476D01*
X97427200Y-102590476D02*
X97474819Y-102733333D01*
X97474819Y-102733333D02*
X97474819Y-102828571D01*
X97474819Y-102828571D02*
X97427200Y-102971428D01*
X97427200Y-102971428D02*
X97331961Y-103066666D01*
X97331961Y-103066666D02*
X97236723Y-103114285D01*
X97236723Y-103114285D02*
X97046247Y-103161904D01*
X97046247Y-103161904D02*
X96903390Y-103161904D01*
X96903390Y-103161904D02*
X96712914Y-103114285D01*
X96712914Y-103114285D02*
X96617676Y-103066666D01*
X96617676Y-103066666D02*
X96522438Y-102971428D01*
X96522438Y-102971428D02*
X96474819Y-102828571D01*
X96474819Y-102828571D02*
X96474819Y-102733333D01*
X96474819Y-102733333D02*
X96522438Y-102590476D01*
X96522438Y-102590476D02*
X96570057Y-102542857D01*
X97474819Y-101590476D02*
X97474819Y-102161904D01*
X97474819Y-101876190D02*
X96474819Y-101876190D01*
X96474819Y-101876190D02*
X96617676Y-101971428D01*
X96617676Y-101971428D02*
X96712914Y-102066666D01*
X96712914Y-102066666D02*
X96760533Y-102161904D01*
X96474819Y-100733333D02*
X96474819Y-100923809D01*
X96474819Y-100923809D02*
X96522438Y-101019047D01*
X96522438Y-101019047D02*
X96570057Y-101066666D01*
X96570057Y-101066666D02*
X96712914Y-101161904D01*
X96712914Y-101161904D02*
X96903390Y-101209523D01*
X96903390Y-101209523D02*
X97284342Y-101209523D01*
X97284342Y-101209523D02*
X97379580Y-101161904D01*
X97379580Y-101161904D02*
X97427200Y-101114285D01*
X97427200Y-101114285D02*
X97474819Y-101019047D01*
X97474819Y-101019047D02*
X97474819Y-100828571D01*
X97474819Y-100828571D02*
X97427200Y-100733333D01*
X97427200Y-100733333D02*
X97379580Y-100685714D01*
X97379580Y-100685714D02*
X97284342Y-100638095D01*
X97284342Y-100638095D02*
X97046247Y-100638095D01*
X97046247Y-100638095D02*
X96951009Y-100685714D01*
X96951009Y-100685714D02*
X96903390Y-100733333D01*
X96903390Y-100733333D02*
X96855771Y-100828571D01*
X96855771Y-100828571D02*
X96855771Y-101019047D01*
X96855771Y-101019047D02*
X96903390Y-101114285D01*
X96903390Y-101114285D02*
X96951009Y-101161904D01*
X96951009Y-101161904D02*
X97046247Y-101209523D01*
X89054819Y-159838094D02*
X89864342Y-159838094D01*
X89864342Y-159838094D02*
X89959580Y-159790475D01*
X89959580Y-159790475D02*
X90007200Y-159742856D01*
X90007200Y-159742856D02*
X90054819Y-159647618D01*
X90054819Y-159647618D02*
X90054819Y-159457142D01*
X90054819Y-159457142D02*
X90007200Y-159361904D01*
X90007200Y-159361904D02*
X89959580Y-159314285D01*
X89959580Y-159314285D02*
X89864342Y-159266666D01*
X89864342Y-159266666D02*
X89054819Y-159266666D01*
X89150057Y-158838094D02*
X89102438Y-158790475D01*
X89102438Y-158790475D02*
X89054819Y-158695237D01*
X89054819Y-158695237D02*
X89054819Y-158457142D01*
X89054819Y-158457142D02*
X89102438Y-158361904D01*
X89102438Y-158361904D02*
X89150057Y-158314285D01*
X89150057Y-158314285D02*
X89245295Y-158266666D01*
X89245295Y-158266666D02*
X89340533Y-158266666D01*
X89340533Y-158266666D02*
X89483390Y-158314285D01*
X89483390Y-158314285D02*
X90054819Y-158885713D01*
X90054819Y-158885713D02*
X90054819Y-158266666D01*
X89150057Y-157885713D02*
X89102438Y-157838094D01*
X89102438Y-157838094D02*
X89054819Y-157742856D01*
X89054819Y-157742856D02*
X89054819Y-157504761D01*
X89054819Y-157504761D02*
X89102438Y-157409523D01*
X89102438Y-157409523D02*
X89150057Y-157361904D01*
X89150057Y-157361904D02*
X89245295Y-157314285D01*
X89245295Y-157314285D02*
X89340533Y-157314285D01*
X89340533Y-157314285D02*
X89483390Y-157361904D01*
X89483390Y-157361904D02*
X90054819Y-157933332D01*
X90054819Y-157933332D02*
X90054819Y-157314285D01*
X98325819Y-164314999D02*
X98563914Y-164314999D01*
X98468676Y-164553094D02*
X98563914Y-164314999D01*
X98563914Y-164314999D02*
X98468676Y-164076904D01*
X98754390Y-164457856D02*
X98563914Y-164314999D01*
X98563914Y-164314999D02*
X98754390Y-164172142D01*
X98325819Y-164314999D02*
X98563914Y-164314999D01*
X98468676Y-164553094D02*
X98563914Y-164314999D01*
X98563914Y-164314999D02*
X98468676Y-164076904D01*
X98754390Y-164457856D02*
X98563914Y-164314999D01*
X98563914Y-164314999D02*
X98754390Y-164172142D01*
X132357105Y-156404819D02*
X132928533Y-156404819D01*
X132642819Y-157404819D02*
X132642819Y-156404819D01*
X133261867Y-157404819D02*
X133261867Y-156404819D01*
X133261867Y-156404819D02*
X133642819Y-156404819D01*
X133642819Y-156404819D02*
X133738057Y-156452438D01*
X133738057Y-156452438D02*
X133785676Y-156500057D01*
X133785676Y-156500057D02*
X133833295Y-156595295D01*
X133833295Y-156595295D02*
X133833295Y-156738152D01*
X133833295Y-156738152D02*
X133785676Y-156833390D01*
X133785676Y-156833390D02*
X133738057Y-156881009D01*
X133738057Y-156881009D02*
X133642819Y-156928628D01*
X133642819Y-156928628D02*
X133261867Y-156928628D01*
X134785676Y-157404819D02*
X134214248Y-157404819D01*
X134499962Y-157404819D02*
X134499962Y-156404819D01*
X134499962Y-156404819D02*
X134404724Y-156547676D01*
X134404724Y-156547676D02*
X134309486Y-156642914D01*
X134309486Y-156642914D02*
X134214248Y-156690533D01*
X135119010Y-156404819D02*
X135738057Y-156404819D01*
X135738057Y-156404819D02*
X135404724Y-156785771D01*
X135404724Y-156785771D02*
X135547581Y-156785771D01*
X135547581Y-156785771D02*
X135642819Y-156833390D01*
X135642819Y-156833390D02*
X135690438Y-156881009D01*
X135690438Y-156881009D02*
X135738057Y-156976247D01*
X135738057Y-156976247D02*
X135738057Y-157214342D01*
X135738057Y-157214342D02*
X135690438Y-157309580D01*
X135690438Y-157309580D02*
X135642819Y-157357200D01*
X135642819Y-157357200D02*
X135547581Y-157404819D01*
X135547581Y-157404819D02*
X135261867Y-157404819D01*
X135261867Y-157404819D02*
X135166629Y-157357200D01*
X135166629Y-157357200D02*
X135119010Y-157309580D01*
X93975595Y-98754819D02*
X93975595Y-99564342D01*
X93975595Y-99564342D02*
X94023214Y-99659580D01*
X94023214Y-99659580D02*
X94070833Y-99707200D01*
X94070833Y-99707200D02*
X94166071Y-99754819D01*
X94166071Y-99754819D02*
X94356547Y-99754819D01*
X94356547Y-99754819D02*
X94451785Y-99707200D01*
X94451785Y-99707200D02*
X94499404Y-99659580D01*
X94499404Y-99659580D02*
X94547023Y-99564342D01*
X94547023Y-99564342D02*
X94547023Y-98754819D01*
X95451785Y-98754819D02*
X95261309Y-98754819D01*
X95261309Y-98754819D02*
X95166071Y-98802438D01*
X95166071Y-98802438D02*
X95118452Y-98850057D01*
X95118452Y-98850057D02*
X95023214Y-98992914D01*
X95023214Y-98992914D02*
X94975595Y-99183390D01*
X94975595Y-99183390D02*
X94975595Y-99564342D01*
X94975595Y-99564342D02*
X95023214Y-99659580D01*
X95023214Y-99659580D02*
X95070833Y-99707200D01*
X95070833Y-99707200D02*
X95166071Y-99754819D01*
X95166071Y-99754819D02*
X95356547Y-99754819D01*
X95356547Y-99754819D02*
X95451785Y-99707200D01*
X95451785Y-99707200D02*
X95499404Y-99659580D01*
X95499404Y-99659580D02*
X95547023Y-99564342D01*
X95547023Y-99564342D02*
X95547023Y-99326247D01*
X95547023Y-99326247D02*
X95499404Y-99231009D01*
X95499404Y-99231009D02*
X95451785Y-99183390D01*
X95451785Y-99183390D02*
X95356547Y-99135771D01*
X95356547Y-99135771D02*
X95166071Y-99135771D01*
X95166071Y-99135771D02*
X95070833Y-99183390D01*
X95070833Y-99183390D02*
X95023214Y-99231009D01*
X95023214Y-99231009D02*
X94975595Y-99326247D01*
X114754819Y-152616666D02*
X114754819Y-153092856D01*
X114754819Y-153092856D02*
X113754819Y-153092856D01*
X114754819Y-151759523D02*
X114754819Y-152330951D01*
X114754819Y-152045237D02*
X113754819Y-152045237D01*
X113754819Y-152045237D02*
X113897676Y-152140475D01*
X113897676Y-152140475D02*
X113992914Y-152235713D01*
X113992914Y-152235713D02*
X114040533Y-152330951D01*
X135174819Y-118120294D02*
X135174819Y-117548866D01*
X136174819Y-117834580D02*
X135174819Y-117834580D01*
X136174819Y-117215532D02*
X135174819Y-117215532D01*
X135174819Y-117215532D02*
X135174819Y-116834580D01*
X135174819Y-116834580D02*
X135222438Y-116739342D01*
X135222438Y-116739342D02*
X135270057Y-116691723D01*
X135270057Y-116691723D02*
X135365295Y-116644104D01*
X135365295Y-116644104D02*
X135508152Y-116644104D01*
X135508152Y-116644104D02*
X135603390Y-116691723D01*
X135603390Y-116691723D02*
X135651009Y-116739342D01*
X135651009Y-116739342D02*
X135698628Y-116834580D01*
X135698628Y-116834580D02*
X135698628Y-117215532D01*
X135174819Y-116310770D02*
X135174819Y-115691723D01*
X135174819Y-115691723D02*
X135555771Y-116025056D01*
X135555771Y-116025056D02*
X135555771Y-115882199D01*
X135555771Y-115882199D02*
X135603390Y-115786961D01*
X135603390Y-115786961D02*
X135651009Y-115739342D01*
X135651009Y-115739342D02*
X135746247Y-115691723D01*
X135746247Y-115691723D02*
X135984342Y-115691723D01*
X135984342Y-115691723D02*
X136079580Y-115739342D01*
X136079580Y-115739342D02*
X136127200Y-115786961D01*
X136127200Y-115786961D02*
X136174819Y-115882199D01*
X136174819Y-115882199D02*
X136174819Y-116167913D01*
X136174819Y-116167913D02*
X136127200Y-116263151D01*
X136127200Y-116263151D02*
X136079580Y-116310770D01*
X135174819Y-115072675D02*
X135174819Y-114977437D01*
X135174819Y-114977437D02*
X135222438Y-114882199D01*
X135222438Y-114882199D02*
X135270057Y-114834580D01*
X135270057Y-114834580D02*
X135365295Y-114786961D01*
X135365295Y-114786961D02*
X135555771Y-114739342D01*
X135555771Y-114739342D02*
X135793866Y-114739342D01*
X135793866Y-114739342D02*
X135984342Y-114786961D01*
X135984342Y-114786961D02*
X136079580Y-114834580D01*
X136079580Y-114834580D02*
X136127200Y-114882199D01*
X136127200Y-114882199D02*
X136174819Y-114977437D01*
X136174819Y-114977437D02*
X136174819Y-115072675D01*
X136174819Y-115072675D02*
X136127200Y-115167913D01*
X136127200Y-115167913D02*
X136079580Y-115215532D01*
X136079580Y-115215532D02*
X135984342Y-115263151D01*
X135984342Y-115263151D02*
X135793866Y-115310770D01*
X135793866Y-115310770D02*
X135555771Y-115310770D01*
X135555771Y-115310770D02*
X135365295Y-115263151D01*
X135365295Y-115263151D02*
X135270057Y-115215532D01*
X135270057Y-115215532D02*
X135222438Y-115167913D01*
X135222438Y-115167913D02*
X135174819Y-115072675D01*
X147293480Y-110127605D02*
X146483957Y-110127605D01*
X146483957Y-110127605D02*
X146388719Y-110175224D01*
X146388719Y-110175224D02*
X146341100Y-110222843D01*
X146341100Y-110222843D02*
X146293480Y-110318081D01*
X146293480Y-110318081D02*
X146293480Y-110508557D01*
X146293480Y-110508557D02*
X146341100Y-110603795D01*
X146341100Y-110603795D02*
X146388719Y-110651414D01*
X146388719Y-110651414D02*
X146483957Y-110699033D01*
X146483957Y-110699033D02*
X147293480Y-110699033D01*
X146293480Y-111699033D02*
X146293480Y-111127605D01*
X146293480Y-111413319D02*
X147293480Y-111413319D01*
X147293480Y-111413319D02*
X147150623Y-111318081D01*
X147150623Y-111318081D02*
X147055385Y-111222843D01*
X147055385Y-111222843D02*
X147007766Y-111127605D01*
X147198242Y-112079986D02*
X147245861Y-112127605D01*
X147245861Y-112127605D02*
X147293480Y-112222843D01*
X147293480Y-112222843D02*
X147293480Y-112460938D01*
X147293480Y-112460938D02*
X147245861Y-112556176D01*
X147245861Y-112556176D02*
X147198242Y-112603795D01*
X147198242Y-112603795D02*
X147103004Y-112651414D01*
X147103004Y-112651414D02*
X147007766Y-112651414D01*
X147007766Y-112651414D02*
X146864909Y-112603795D01*
X146864909Y-112603795D02*
X146293480Y-112032367D01*
X146293480Y-112032367D02*
X146293480Y-112651414D01*
X156172619Y-107428699D02*
X156410714Y-107428699D01*
X156315476Y-107666794D02*
X156410714Y-107428699D01*
X156410714Y-107428699D02*
X156315476Y-107190604D01*
X156601190Y-107571556D02*
X156410714Y-107428699D01*
X156410714Y-107428699D02*
X156601190Y-107285842D01*
X157262980Y-107428700D02*
X157024885Y-107428700D01*
X157120123Y-107190605D02*
X157024885Y-107428700D01*
X157024885Y-107428700D02*
X157120123Y-107666795D01*
X156834409Y-107285843D02*
X157024885Y-107428700D01*
X157024885Y-107428700D02*
X156834409Y-107571557D01*
X91156819Y-132111904D02*
X91156819Y-131540476D01*
X92156819Y-131826190D02*
X91156819Y-131826190D01*
X92156819Y-131207142D02*
X91156819Y-131207142D01*
X91156819Y-131207142D02*
X91156819Y-130826190D01*
X91156819Y-130826190D02*
X91204438Y-130730952D01*
X91204438Y-130730952D02*
X91252057Y-130683333D01*
X91252057Y-130683333D02*
X91347295Y-130635714D01*
X91347295Y-130635714D02*
X91490152Y-130635714D01*
X91490152Y-130635714D02*
X91585390Y-130683333D01*
X91585390Y-130683333D02*
X91633009Y-130730952D01*
X91633009Y-130730952D02*
X91680628Y-130826190D01*
X91680628Y-130826190D02*
X91680628Y-131207142D01*
X91252057Y-130254761D02*
X91204438Y-130207142D01*
X91204438Y-130207142D02*
X91156819Y-130111904D01*
X91156819Y-130111904D02*
X91156819Y-129873809D01*
X91156819Y-129873809D02*
X91204438Y-129778571D01*
X91204438Y-129778571D02*
X91252057Y-129730952D01*
X91252057Y-129730952D02*
X91347295Y-129683333D01*
X91347295Y-129683333D02*
X91442533Y-129683333D01*
X91442533Y-129683333D02*
X91585390Y-129730952D01*
X91585390Y-129730952D02*
X92156819Y-130302380D01*
X92156819Y-130302380D02*
X92156819Y-129683333D01*
X151381905Y-176434819D02*
X151953333Y-176434819D01*
X151667619Y-177434819D02*
X151667619Y-176434819D01*
X152286667Y-177434819D02*
X152286667Y-176434819D01*
X152286667Y-176434819D02*
X152667619Y-176434819D01*
X152667619Y-176434819D02*
X152762857Y-176482438D01*
X152762857Y-176482438D02*
X152810476Y-176530057D01*
X152810476Y-176530057D02*
X152858095Y-176625295D01*
X152858095Y-176625295D02*
X152858095Y-176768152D01*
X152858095Y-176768152D02*
X152810476Y-176863390D01*
X152810476Y-176863390D02*
X152762857Y-176911009D01*
X152762857Y-176911009D02*
X152667619Y-176958628D01*
X152667619Y-176958628D02*
X152286667Y-176958628D01*
X153239048Y-176530057D02*
X153286667Y-176482438D01*
X153286667Y-176482438D02*
X153381905Y-176434819D01*
X153381905Y-176434819D02*
X153620000Y-176434819D01*
X153620000Y-176434819D02*
X153715238Y-176482438D01*
X153715238Y-176482438D02*
X153762857Y-176530057D01*
X153762857Y-176530057D02*
X153810476Y-176625295D01*
X153810476Y-176625295D02*
X153810476Y-176720533D01*
X153810476Y-176720533D02*
X153762857Y-176863390D01*
X153762857Y-176863390D02*
X153191429Y-177434819D01*
X153191429Y-177434819D02*
X153810476Y-177434819D01*
X154667619Y-176434819D02*
X154477143Y-176434819D01*
X154477143Y-176434819D02*
X154381905Y-176482438D01*
X154381905Y-176482438D02*
X154334286Y-176530057D01*
X154334286Y-176530057D02*
X154239048Y-176672914D01*
X154239048Y-176672914D02*
X154191429Y-176863390D01*
X154191429Y-176863390D02*
X154191429Y-177244342D01*
X154191429Y-177244342D02*
X154239048Y-177339580D01*
X154239048Y-177339580D02*
X154286667Y-177387200D01*
X154286667Y-177387200D02*
X154381905Y-177434819D01*
X154381905Y-177434819D02*
X154572381Y-177434819D01*
X154572381Y-177434819D02*
X154667619Y-177387200D01*
X154667619Y-177387200D02*
X154715238Y-177339580D01*
X154715238Y-177339580D02*
X154762857Y-177244342D01*
X154762857Y-177244342D02*
X154762857Y-177006247D01*
X154762857Y-177006247D02*
X154715238Y-176911009D01*
X154715238Y-176911009D02*
X154667619Y-176863390D01*
X154667619Y-176863390D02*
X154572381Y-176815771D01*
X154572381Y-176815771D02*
X154381905Y-176815771D01*
X154381905Y-176815771D02*
X154286667Y-176863390D01*
X154286667Y-176863390D02*
X154239048Y-176911009D01*
X154239048Y-176911009D02*
X154191429Y-177006247D01*
X155284819Y-120048094D02*
X155284819Y-119476666D01*
X156284819Y-119762380D02*
X155284819Y-119762380D01*
X156284819Y-119143332D02*
X155284819Y-119143332D01*
X155284819Y-119143332D02*
X155284819Y-118762380D01*
X155284819Y-118762380D02*
X155332438Y-118667142D01*
X155332438Y-118667142D02*
X155380057Y-118619523D01*
X155380057Y-118619523D02*
X155475295Y-118571904D01*
X155475295Y-118571904D02*
X155618152Y-118571904D01*
X155618152Y-118571904D02*
X155713390Y-118619523D01*
X155713390Y-118619523D02*
X155761009Y-118667142D01*
X155761009Y-118667142D02*
X155808628Y-118762380D01*
X155808628Y-118762380D02*
X155808628Y-119143332D01*
X155284819Y-118238570D02*
X155284819Y-117619523D01*
X155284819Y-117619523D02*
X155665771Y-117952856D01*
X155665771Y-117952856D02*
X155665771Y-117809999D01*
X155665771Y-117809999D02*
X155713390Y-117714761D01*
X155713390Y-117714761D02*
X155761009Y-117667142D01*
X155761009Y-117667142D02*
X155856247Y-117619523D01*
X155856247Y-117619523D02*
X156094342Y-117619523D01*
X156094342Y-117619523D02*
X156189580Y-117667142D01*
X156189580Y-117667142D02*
X156237200Y-117714761D01*
X156237200Y-117714761D02*
X156284819Y-117809999D01*
X156284819Y-117809999D02*
X156284819Y-118095713D01*
X156284819Y-118095713D02*
X156237200Y-118190951D01*
X156237200Y-118190951D02*
X156189580Y-118238570D01*
X155284819Y-116762380D02*
X155284819Y-116952856D01*
X155284819Y-116952856D02*
X155332438Y-117048094D01*
X155332438Y-117048094D02*
X155380057Y-117095713D01*
X155380057Y-117095713D02*
X155522914Y-117190951D01*
X155522914Y-117190951D02*
X155713390Y-117238570D01*
X155713390Y-117238570D02*
X156094342Y-117238570D01*
X156094342Y-117238570D02*
X156189580Y-117190951D01*
X156189580Y-117190951D02*
X156237200Y-117143332D01*
X156237200Y-117143332D02*
X156284819Y-117048094D01*
X156284819Y-117048094D02*
X156284819Y-116857618D01*
X156284819Y-116857618D02*
X156237200Y-116762380D01*
X156237200Y-116762380D02*
X156189580Y-116714761D01*
X156189580Y-116714761D02*
X156094342Y-116667142D01*
X156094342Y-116667142D02*
X155856247Y-116667142D01*
X155856247Y-116667142D02*
X155761009Y-116714761D01*
X155761009Y-116714761D02*
X155713390Y-116762380D01*
X155713390Y-116762380D02*
X155665771Y-116857618D01*
X155665771Y-116857618D02*
X155665771Y-117048094D01*
X155665771Y-117048094D02*
X155713390Y-117143332D01*
X155713390Y-117143332D02*
X155761009Y-117190951D01*
X155761009Y-117190951D02*
X155856247Y-117238570D01*
X156921905Y-106746819D02*
X157493333Y-106746819D01*
X157207619Y-107746819D02*
X157207619Y-106746819D01*
X157826667Y-107746819D02*
X157826667Y-106746819D01*
X157826667Y-106746819D02*
X158207619Y-106746819D01*
X158207619Y-106746819D02*
X158302857Y-106794438D01*
X158302857Y-106794438D02*
X158350476Y-106842057D01*
X158350476Y-106842057D02*
X158398095Y-106937295D01*
X158398095Y-106937295D02*
X158398095Y-107080152D01*
X158398095Y-107080152D02*
X158350476Y-107175390D01*
X158350476Y-107175390D02*
X158302857Y-107223009D01*
X158302857Y-107223009D02*
X158207619Y-107270628D01*
X158207619Y-107270628D02*
X157826667Y-107270628D01*
X158731429Y-106746819D02*
X159350476Y-106746819D01*
X159350476Y-106746819D02*
X159017143Y-107127771D01*
X159017143Y-107127771D02*
X159160000Y-107127771D01*
X159160000Y-107127771D02*
X159255238Y-107175390D01*
X159255238Y-107175390D02*
X159302857Y-107223009D01*
X159302857Y-107223009D02*
X159350476Y-107318247D01*
X159350476Y-107318247D02*
X159350476Y-107556342D01*
X159350476Y-107556342D02*
X159302857Y-107651580D01*
X159302857Y-107651580D02*
X159255238Y-107699200D01*
X159255238Y-107699200D02*
X159160000Y-107746819D01*
X159160000Y-107746819D02*
X158874286Y-107746819D01*
X158874286Y-107746819D02*
X158779048Y-107699200D01*
X158779048Y-107699200D02*
X158731429Y-107651580D01*
X159683810Y-106746819D02*
X160302857Y-106746819D01*
X160302857Y-106746819D02*
X159969524Y-107127771D01*
X159969524Y-107127771D02*
X160112381Y-107127771D01*
X160112381Y-107127771D02*
X160207619Y-107175390D01*
X160207619Y-107175390D02*
X160255238Y-107223009D01*
X160255238Y-107223009D02*
X160302857Y-107318247D01*
X160302857Y-107318247D02*
X160302857Y-107556342D01*
X160302857Y-107556342D02*
X160255238Y-107651580D01*
X160255238Y-107651580D02*
X160207619Y-107699200D01*
X160207619Y-107699200D02*
X160112381Y-107746819D01*
X160112381Y-107746819D02*
X159826667Y-107746819D01*
X159826667Y-107746819D02*
X159731429Y-107699200D01*
X159731429Y-107699200D02*
X159683810Y-107651580D01*
X151881905Y-141014819D02*
X151881905Y-141824342D01*
X151881905Y-141824342D02*
X151929524Y-141919580D01*
X151929524Y-141919580D02*
X151977143Y-141967200D01*
X151977143Y-141967200D02*
X152072381Y-142014819D01*
X152072381Y-142014819D02*
X152262857Y-142014819D01*
X152262857Y-142014819D02*
X152358095Y-141967200D01*
X152358095Y-141967200D02*
X152405714Y-141919580D01*
X152405714Y-141919580D02*
X152453333Y-141824342D01*
X152453333Y-141824342D02*
X152453333Y-141014819D01*
X152881905Y-141110057D02*
X152929524Y-141062438D01*
X152929524Y-141062438D02*
X153024762Y-141014819D01*
X153024762Y-141014819D02*
X153262857Y-141014819D01*
X153262857Y-141014819D02*
X153358095Y-141062438D01*
X153358095Y-141062438D02*
X153405714Y-141110057D01*
X153405714Y-141110057D02*
X153453333Y-141205295D01*
X153453333Y-141205295D02*
X153453333Y-141300533D01*
X153453333Y-141300533D02*
X153405714Y-141443390D01*
X153405714Y-141443390D02*
X152834286Y-142014819D01*
X152834286Y-142014819D02*
X153453333Y-142014819D01*
X154072381Y-141014819D02*
X154167619Y-141014819D01*
X154167619Y-141014819D02*
X154262857Y-141062438D01*
X154262857Y-141062438D02*
X154310476Y-141110057D01*
X154310476Y-141110057D02*
X154358095Y-141205295D01*
X154358095Y-141205295D02*
X154405714Y-141395771D01*
X154405714Y-141395771D02*
X154405714Y-141633866D01*
X154405714Y-141633866D02*
X154358095Y-141824342D01*
X154358095Y-141824342D02*
X154310476Y-141919580D01*
X154310476Y-141919580D02*
X154262857Y-141967200D01*
X154262857Y-141967200D02*
X154167619Y-142014819D01*
X154167619Y-142014819D02*
X154072381Y-142014819D01*
X154072381Y-142014819D02*
X153977143Y-141967200D01*
X153977143Y-141967200D02*
X153929524Y-141919580D01*
X153929524Y-141919580D02*
X153881905Y-141824342D01*
X153881905Y-141824342D02*
X153834286Y-141633866D01*
X153834286Y-141633866D02*
X153834286Y-141395771D01*
X153834286Y-141395771D02*
X153881905Y-141205295D01*
X153881905Y-141205295D02*
X153929524Y-141110057D01*
X153929524Y-141110057D02*
X153977143Y-141062438D01*
X153977143Y-141062438D02*
X154072381Y-141014819D01*
X154916499Y-146352981D02*
X154916499Y-146114886D01*
X155154594Y-146210124D02*
X154916499Y-146114886D01*
X154916499Y-146114886D02*
X154678404Y-146210124D01*
X155059356Y-145924410D02*
X154916499Y-146114886D01*
X154916499Y-146114886D02*
X154773642Y-145924410D01*
X154916500Y-145262620D02*
X154916500Y-145500715D01*
X154678405Y-145405477D02*
X154916500Y-145500715D01*
X154916500Y-145500715D02*
X155154595Y-145405477D01*
X154773643Y-145691191D02*
X154916500Y-145500715D01*
X154916500Y-145500715D02*
X155059357Y-145691191D01*
X84681905Y-143224819D02*
X85253333Y-143224819D01*
X84967619Y-144224819D02*
X84967619Y-143224819D01*
X85586667Y-144224819D02*
X85586667Y-143224819D01*
X85586667Y-143224819D02*
X85967619Y-143224819D01*
X85967619Y-143224819D02*
X86062857Y-143272438D01*
X86062857Y-143272438D02*
X86110476Y-143320057D01*
X86110476Y-143320057D02*
X86158095Y-143415295D01*
X86158095Y-143415295D02*
X86158095Y-143558152D01*
X86158095Y-143558152D02*
X86110476Y-143653390D01*
X86110476Y-143653390D02*
X86062857Y-143701009D01*
X86062857Y-143701009D02*
X85967619Y-143748628D01*
X85967619Y-143748628D02*
X85586667Y-143748628D01*
X86491429Y-143224819D02*
X87110476Y-143224819D01*
X87110476Y-143224819D02*
X86777143Y-143605771D01*
X86777143Y-143605771D02*
X86920000Y-143605771D01*
X86920000Y-143605771D02*
X87015238Y-143653390D01*
X87015238Y-143653390D02*
X87062857Y-143701009D01*
X87062857Y-143701009D02*
X87110476Y-143796247D01*
X87110476Y-143796247D02*
X87110476Y-144034342D01*
X87110476Y-144034342D02*
X87062857Y-144129580D01*
X87062857Y-144129580D02*
X87015238Y-144177200D01*
X87015238Y-144177200D02*
X86920000Y-144224819D01*
X86920000Y-144224819D02*
X86634286Y-144224819D01*
X86634286Y-144224819D02*
X86539048Y-144177200D01*
X86539048Y-144177200D02*
X86491429Y-144129580D01*
X87586667Y-144224819D02*
X87777143Y-144224819D01*
X87777143Y-144224819D02*
X87872381Y-144177200D01*
X87872381Y-144177200D02*
X87920000Y-144129580D01*
X87920000Y-144129580D02*
X88015238Y-143986723D01*
X88015238Y-143986723D02*
X88062857Y-143796247D01*
X88062857Y-143796247D02*
X88062857Y-143415295D01*
X88062857Y-143415295D02*
X88015238Y-143320057D01*
X88015238Y-143320057D02*
X87967619Y-143272438D01*
X87967619Y-143272438D02*
X87872381Y-143224819D01*
X87872381Y-143224819D02*
X87681905Y-143224819D01*
X87681905Y-143224819D02*
X87586667Y-143272438D01*
X87586667Y-143272438D02*
X87539048Y-143320057D01*
X87539048Y-143320057D02*
X87491429Y-143415295D01*
X87491429Y-143415295D02*
X87491429Y-143653390D01*
X87491429Y-143653390D02*
X87539048Y-143748628D01*
X87539048Y-143748628D02*
X87586667Y-143796247D01*
X87586667Y-143796247D02*
X87681905Y-143843866D01*
X87681905Y-143843866D02*
X87872381Y-143843866D01*
X87872381Y-143843866D02*
X87967619Y-143796247D01*
X87967619Y-143796247D02*
X88015238Y-143748628D01*
X88015238Y-143748628D02*
X88062857Y-143653390D01*
X125014819Y-162488094D02*
X125824342Y-162488094D01*
X125824342Y-162488094D02*
X125919580Y-162440475D01*
X125919580Y-162440475D02*
X125967200Y-162392856D01*
X125967200Y-162392856D02*
X126014819Y-162297618D01*
X126014819Y-162297618D02*
X126014819Y-162107142D01*
X126014819Y-162107142D02*
X125967200Y-162011904D01*
X125967200Y-162011904D02*
X125919580Y-161964285D01*
X125919580Y-161964285D02*
X125824342Y-161916666D01*
X125824342Y-161916666D02*
X125014819Y-161916666D01*
X126014819Y-160916666D02*
X126014819Y-161488094D01*
X126014819Y-161202380D02*
X125014819Y-161202380D01*
X125014819Y-161202380D02*
X125157676Y-161297618D01*
X125157676Y-161297618D02*
X125252914Y-161392856D01*
X125252914Y-161392856D02*
X125300533Y-161488094D01*
X125014819Y-160583332D02*
X125014819Y-159916666D01*
X125014819Y-159916666D02*
X126014819Y-160345237D01*
X125173419Y-164228149D02*
X125411514Y-164228149D01*
X125316276Y-164466244D02*
X125411514Y-164228149D01*
X125411514Y-164228149D02*
X125316276Y-163990054D01*
X125601990Y-164371006D02*
X125411514Y-164228149D01*
X125411514Y-164228149D02*
X125601990Y-164085292D01*
X126329119Y-165299999D02*
X126567214Y-165299999D01*
X126471976Y-165538094D02*
X126567214Y-165299999D01*
X126567214Y-165299999D02*
X126471976Y-165061904D01*
X126757690Y-165442856D02*
X126567214Y-165299999D01*
X126567214Y-165299999D02*
X126757690Y-165157142D01*
X74266667Y-138707200D02*
X74409524Y-138754819D01*
X74409524Y-138754819D02*
X74647619Y-138754819D01*
X74647619Y-138754819D02*
X74742857Y-138707200D01*
X74742857Y-138707200D02*
X74790476Y-138659580D01*
X74790476Y-138659580D02*
X74838095Y-138564342D01*
X74838095Y-138564342D02*
X74838095Y-138469104D01*
X74838095Y-138469104D02*
X74790476Y-138373866D01*
X74790476Y-138373866D02*
X74742857Y-138326247D01*
X74742857Y-138326247D02*
X74647619Y-138278628D01*
X74647619Y-138278628D02*
X74457143Y-138231009D01*
X74457143Y-138231009D02*
X74361905Y-138183390D01*
X74361905Y-138183390D02*
X74314286Y-138135771D01*
X74314286Y-138135771D02*
X74266667Y-138040533D01*
X74266667Y-138040533D02*
X74266667Y-137945295D01*
X74266667Y-137945295D02*
X74314286Y-137850057D01*
X74314286Y-137850057D02*
X74361905Y-137802438D01*
X74361905Y-137802438D02*
X74457143Y-137754819D01*
X74457143Y-137754819D02*
X74695238Y-137754819D01*
X74695238Y-137754819D02*
X74838095Y-137802438D01*
X75171429Y-137754819D02*
X75409524Y-138754819D01*
X75409524Y-138754819D02*
X75600000Y-138040533D01*
X75600000Y-138040533D02*
X75790476Y-138754819D01*
X75790476Y-138754819D02*
X76028572Y-137754819D01*
X76361905Y-137850057D02*
X76409524Y-137802438D01*
X76409524Y-137802438D02*
X76504762Y-137754819D01*
X76504762Y-137754819D02*
X76742857Y-137754819D01*
X76742857Y-137754819D02*
X76838095Y-137802438D01*
X76838095Y-137802438D02*
X76885714Y-137850057D01*
X76885714Y-137850057D02*
X76933333Y-137945295D01*
X76933333Y-137945295D02*
X76933333Y-138040533D01*
X76933333Y-138040533D02*
X76885714Y-138183390D01*
X76885714Y-138183390D02*
X76314286Y-138754819D01*
X76314286Y-138754819D02*
X76933333Y-138754819D01*
X102704819Y-121411904D02*
X102704819Y-120840476D01*
X103704819Y-121126190D02*
X102704819Y-121126190D01*
X103704819Y-120507142D02*
X102704819Y-120507142D01*
X102704819Y-120507142D02*
X102704819Y-120126190D01*
X102704819Y-120126190D02*
X102752438Y-120030952D01*
X102752438Y-120030952D02*
X102800057Y-119983333D01*
X102800057Y-119983333D02*
X102895295Y-119935714D01*
X102895295Y-119935714D02*
X103038152Y-119935714D01*
X103038152Y-119935714D02*
X103133390Y-119983333D01*
X103133390Y-119983333D02*
X103181009Y-120030952D01*
X103181009Y-120030952D02*
X103228628Y-120126190D01*
X103228628Y-120126190D02*
X103228628Y-120507142D01*
X102704819Y-119030952D02*
X102704819Y-119507142D01*
X102704819Y-119507142D02*
X103181009Y-119554761D01*
X103181009Y-119554761D02*
X103133390Y-119507142D01*
X103133390Y-119507142D02*
X103085771Y-119411904D01*
X103085771Y-119411904D02*
X103085771Y-119173809D01*
X103085771Y-119173809D02*
X103133390Y-119078571D01*
X103133390Y-119078571D02*
X103181009Y-119030952D01*
X103181009Y-119030952D02*
X103276247Y-118983333D01*
X103276247Y-118983333D02*
X103514342Y-118983333D01*
X103514342Y-118983333D02*
X103609580Y-119030952D01*
X103609580Y-119030952D02*
X103657200Y-119078571D01*
X103657200Y-119078571D02*
X103704819Y-119173809D01*
X103704819Y-119173809D02*
X103704819Y-119411904D01*
X103704819Y-119411904D02*
X103657200Y-119507142D01*
X103657200Y-119507142D02*
X103609580Y-119554761D01*
X170380057Y-100195238D02*
X170332438Y-100290476D01*
X170332438Y-100290476D02*
X170237200Y-100385714D01*
X170237200Y-100385714D02*
X170094342Y-100528571D01*
X170094342Y-100528571D02*
X170046723Y-100623809D01*
X170046723Y-100623809D02*
X170046723Y-100719047D01*
X170284819Y-100671428D02*
X170237200Y-100766666D01*
X170237200Y-100766666D02*
X170141961Y-100861904D01*
X170141961Y-100861904D02*
X169951485Y-100909523D01*
X169951485Y-100909523D02*
X169618152Y-100909523D01*
X169618152Y-100909523D02*
X169427676Y-100861904D01*
X169427676Y-100861904D02*
X169332438Y-100766666D01*
X169332438Y-100766666D02*
X169284819Y-100671428D01*
X169284819Y-100671428D02*
X169284819Y-100480952D01*
X169284819Y-100480952D02*
X169332438Y-100385714D01*
X169332438Y-100385714D02*
X169427676Y-100290476D01*
X169427676Y-100290476D02*
X169618152Y-100242857D01*
X169618152Y-100242857D02*
X169951485Y-100242857D01*
X169951485Y-100242857D02*
X170141961Y-100290476D01*
X170141961Y-100290476D02*
X170237200Y-100385714D01*
X170237200Y-100385714D02*
X170284819Y-100480952D01*
X170284819Y-100480952D02*
X170284819Y-100671428D01*
X169713390Y-99671428D02*
X169665771Y-99766666D01*
X169665771Y-99766666D02*
X169618152Y-99814285D01*
X169618152Y-99814285D02*
X169522914Y-99861904D01*
X169522914Y-99861904D02*
X169475295Y-99861904D01*
X169475295Y-99861904D02*
X169380057Y-99814285D01*
X169380057Y-99814285D02*
X169332438Y-99766666D01*
X169332438Y-99766666D02*
X169284819Y-99671428D01*
X169284819Y-99671428D02*
X169284819Y-99480952D01*
X169284819Y-99480952D02*
X169332438Y-99385714D01*
X169332438Y-99385714D02*
X169380057Y-99338095D01*
X169380057Y-99338095D02*
X169475295Y-99290476D01*
X169475295Y-99290476D02*
X169522914Y-99290476D01*
X169522914Y-99290476D02*
X169618152Y-99338095D01*
X169618152Y-99338095D02*
X169665771Y-99385714D01*
X169665771Y-99385714D02*
X169713390Y-99480952D01*
X169713390Y-99480952D02*
X169713390Y-99671428D01*
X169713390Y-99671428D02*
X169761009Y-99766666D01*
X169761009Y-99766666D02*
X169808628Y-99814285D01*
X169808628Y-99814285D02*
X169903866Y-99861904D01*
X169903866Y-99861904D02*
X170094342Y-99861904D01*
X170094342Y-99861904D02*
X170189580Y-99814285D01*
X170189580Y-99814285D02*
X170237200Y-99766666D01*
X170237200Y-99766666D02*
X170284819Y-99671428D01*
X170284819Y-99671428D02*
X170284819Y-99480952D01*
X170284819Y-99480952D02*
X170237200Y-99385714D01*
X170237200Y-99385714D02*
X170189580Y-99338095D01*
X170189580Y-99338095D02*
X170094342Y-99290476D01*
X170094342Y-99290476D02*
X169903866Y-99290476D01*
X169903866Y-99290476D02*
X169808628Y-99338095D01*
X169808628Y-99338095D02*
X169761009Y-99385714D01*
X169761009Y-99385714D02*
X169713390Y-99480952D01*
X116661905Y-117606819D02*
X117233333Y-117606819D01*
X116947619Y-118606819D02*
X116947619Y-117606819D01*
X117566667Y-118606819D02*
X117566667Y-117606819D01*
X117566667Y-117606819D02*
X117947619Y-117606819D01*
X117947619Y-117606819D02*
X118042857Y-117654438D01*
X118042857Y-117654438D02*
X118090476Y-117702057D01*
X118090476Y-117702057D02*
X118138095Y-117797295D01*
X118138095Y-117797295D02*
X118138095Y-117940152D01*
X118138095Y-117940152D02*
X118090476Y-118035390D01*
X118090476Y-118035390D02*
X118042857Y-118083009D01*
X118042857Y-118083009D02*
X117947619Y-118130628D01*
X117947619Y-118130628D02*
X117566667Y-118130628D01*
X118519048Y-117702057D02*
X118566667Y-117654438D01*
X118566667Y-117654438D02*
X118661905Y-117606819D01*
X118661905Y-117606819D02*
X118900000Y-117606819D01*
X118900000Y-117606819D02*
X118995238Y-117654438D01*
X118995238Y-117654438D02*
X119042857Y-117702057D01*
X119042857Y-117702057D02*
X119090476Y-117797295D01*
X119090476Y-117797295D02*
X119090476Y-117892533D01*
X119090476Y-117892533D02*
X119042857Y-118035390D01*
X119042857Y-118035390D02*
X118471429Y-118606819D01*
X118471429Y-118606819D02*
X119090476Y-118606819D01*
X119423810Y-117606819D02*
X120090476Y-117606819D01*
X120090476Y-117606819D02*
X119661905Y-118606819D01*
X155224819Y-127118094D02*
X156034342Y-127118094D01*
X156034342Y-127118094D02*
X156129580Y-127070475D01*
X156129580Y-127070475D02*
X156177200Y-127022856D01*
X156177200Y-127022856D02*
X156224819Y-126927618D01*
X156224819Y-126927618D02*
X156224819Y-126737142D01*
X156224819Y-126737142D02*
X156177200Y-126641904D01*
X156177200Y-126641904D02*
X156129580Y-126594285D01*
X156129580Y-126594285D02*
X156034342Y-126546666D01*
X156034342Y-126546666D02*
X155224819Y-126546666D01*
X156224819Y-125546666D02*
X156224819Y-126118094D01*
X156224819Y-125832380D02*
X155224819Y-125832380D01*
X155224819Y-125832380D02*
X155367676Y-125927618D01*
X155367676Y-125927618D02*
X155462914Y-126022856D01*
X155462914Y-126022856D02*
X155510533Y-126118094D01*
X155224819Y-124689523D02*
X155224819Y-124879999D01*
X155224819Y-124879999D02*
X155272438Y-124975237D01*
X155272438Y-124975237D02*
X155320057Y-125022856D01*
X155320057Y-125022856D02*
X155462914Y-125118094D01*
X155462914Y-125118094D02*
X155653390Y-125165713D01*
X155653390Y-125165713D02*
X156034342Y-125165713D01*
X156034342Y-125165713D02*
X156129580Y-125118094D01*
X156129580Y-125118094D02*
X156177200Y-125070475D01*
X156177200Y-125070475D02*
X156224819Y-124975237D01*
X156224819Y-124975237D02*
X156224819Y-124784761D01*
X156224819Y-124784761D02*
X156177200Y-124689523D01*
X156177200Y-124689523D02*
X156129580Y-124641904D01*
X156129580Y-124641904D02*
X156034342Y-124594285D01*
X156034342Y-124594285D02*
X155796247Y-124594285D01*
X155796247Y-124594285D02*
X155701009Y-124641904D01*
X155701009Y-124641904D02*
X155653390Y-124689523D01*
X155653390Y-124689523D02*
X155605771Y-124784761D01*
X155605771Y-124784761D02*
X155605771Y-124975237D01*
X155605771Y-124975237D02*
X155653390Y-125070475D01*
X155653390Y-125070475D02*
X155701009Y-125118094D01*
X155701009Y-125118094D02*
X155796247Y-125165713D01*
X143847019Y-128809999D02*
X144085114Y-128809999D01*
X143989876Y-129048094D02*
X144085114Y-128809999D01*
X144085114Y-128809999D02*
X143989876Y-128571904D01*
X144275590Y-128952856D02*
X144085114Y-128809999D01*
X144085114Y-128809999D02*
X144275590Y-128667142D01*
X143847019Y-128809999D02*
X144085114Y-128809999D01*
X143989876Y-129048094D02*
X144085114Y-128809999D01*
X144085114Y-128809999D02*
X143989876Y-128571904D01*
X144275590Y-128952856D02*
X144085114Y-128809999D01*
X144085114Y-128809999D02*
X144275590Y-128667142D01*
X124029738Y-166060057D02*
X123934500Y-166012438D01*
X123934500Y-166012438D02*
X123839262Y-165917200D01*
X123839262Y-165917200D02*
X123696405Y-165774342D01*
X123696405Y-165774342D02*
X123601167Y-165726723D01*
X123601167Y-165726723D02*
X123505929Y-165726723D01*
X123553548Y-165964819D02*
X123458310Y-165917200D01*
X123458310Y-165917200D02*
X123363072Y-165821961D01*
X123363072Y-165821961D02*
X123315453Y-165631485D01*
X123315453Y-165631485D02*
X123315453Y-165298152D01*
X123315453Y-165298152D02*
X123363072Y-165107676D01*
X123363072Y-165107676D02*
X123458310Y-165012438D01*
X123458310Y-165012438D02*
X123553548Y-164964819D01*
X123553548Y-164964819D02*
X123744024Y-164964819D01*
X123744024Y-164964819D02*
X123839262Y-165012438D01*
X123839262Y-165012438D02*
X123934500Y-165107676D01*
X123934500Y-165107676D02*
X123982119Y-165298152D01*
X123982119Y-165298152D02*
X123982119Y-165631485D01*
X123982119Y-165631485D02*
X123934500Y-165821961D01*
X123934500Y-165821961D02*
X123839262Y-165917200D01*
X123839262Y-165917200D02*
X123744024Y-165964819D01*
X123744024Y-165964819D02*
X123553548Y-165964819D01*
X124363072Y-165060057D02*
X124410691Y-165012438D01*
X124410691Y-165012438D02*
X124505929Y-164964819D01*
X124505929Y-164964819D02*
X124744024Y-164964819D01*
X124744024Y-164964819D02*
X124839262Y-165012438D01*
X124839262Y-165012438D02*
X124886881Y-165060057D01*
X124886881Y-165060057D02*
X124934500Y-165155295D01*
X124934500Y-165155295D02*
X124934500Y-165250533D01*
X124934500Y-165250533D02*
X124886881Y-165393390D01*
X124886881Y-165393390D02*
X124315453Y-165964819D01*
X124315453Y-165964819D02*
X124934500Y-165964819D01*
X61481905Y-136784819D02*
X62053333Y-136784819D01*
X61767619Y-137784819D02*
X61767619Y-136784819D01*
X62386667Y-137784819D02*
X62386667Y-136784819D01*
X62386667Y-136784819D02*
X62767619Y-136784819D01*
X62767619Y-136784819D02*
X62862857Y-136832438D01*
X62862857Y-136832438D02*
X62910476Y-136880057D01*
X62910476Y-136880057D02*
X62958095Y-136975295D01*
X62958095Y-136975295D02*
X62958095Y-137118152D01*
X62958095Y-137118152D02*
X62910476Y-137213390D01*
X62910476Y-137213390D02*
X62862857Y-137261009D01*
X62862857Y-137261009D02*
X62767619Y-137308628D01*
X62767619Y-137308628D02*
X62386667Y-137308628D01*
X63291429Y-136784819D02*
X63910476Y-136784819D01*
X63910476Y-136784819D02*
X63577143Y-137165771D01*
X63577143Y-137165771D02*
X63720000Y-137165771D01*
X63720000Y-137165771D02*
X63815238Y-137213390D01*
X63815238Y-137213390D02*
X63862857Y-137261009D01*
X63862857Y-137261009D02*
X63910476Y-137356247D01*
X63910476Y-137356247D02*
X63910476Y-137594342D01*
X63910476Y-137594342D02*
X63862857Y-137689580D01*
X63862857Y-137689580D02*
X63815238Y-137737200D01*
X63815238Y-137737200D02*
X63720000Y-137784819D01*
X63720000Y-137784819D02*
X63434286Y-137784819D01*
X63434286Y-137784819D02*
X63339048Y-137737200D01*
X63339048Y-137737200D02*
X63291429Y-137689580D01*
X64481905Y-137213390D02*
X64386667Y-137165771D01*
X64386667Y-137165771D02*
X64339048Y-137118152D01*
X64339048Y-137118152D02*
X64291429Y-137022914D01*
X64291429Y-137022914D02*
X64291429Y-136975295D01*
X64291429Y-136975295D02*
X64339048Y-136880057D01*
X64339048Y-136880057D02*
X64386667Y-136832438D01*
X64386667Y-136832438D02*
X64481905Y-136784819D01*
X64481905Y-136784819D02*
X64672381Y-136784819D01*
X64672381Y-136784819D02*
X64767619Y-136832438D01*
X64767619Y-136832438D02*
X64815238Y-136880057D01*
X64815238Y-136880057D02*
X64862857Y-136975295D01*
X64862857Y-136975295D02*
X64862857Y-137022914D01*
X64862857Y-137022914D02*
X64815238Y-137118152D01*
X64815238Y-137118152D02*
X64767619Y-137165771D01*
X64767619Y-137165771D02*
X64672381Y-137213390D01*
X64672381Y-137213390D02*
X64481905Y-137213390D01*
X64481905Y-137213390D02*
X64386667Y-137261009D01*
X64386667Y-137261009D02*
X64339048Y-137308628D01*
X64339048Y-137308628D02*
X64291429Y-137403866D01*
X64291429Y-137403866D02*
X64291429Y-137594342D01*
X64291429Y-137594342D02*
X64339048Y-137689580D01*
X64339048Y-137689580D02*
X64386667Y-137737200D01*
X64386667Y-137737200D02*
X64481905Y-137784819D01*
X64481905Y-137784819D02*
X64672381Y-137784819D01*
X64672381Y-137784819D02*
X64767619Y-137737200D01*
X64767619Y-137737200D02*
X64815238Y-137689580D01*
X64815238Y-137689580D02*
X64862857Y-137594342D01*
X64862857Y-137594342D02*
X64862857Y-137403866D01*
X64862857Y-137403866D02*
X64815238Y-137308628D01*
X64815238Y-137308628D02*
X64767619Y-137261009D01*
X64767619Y-137261009D02*
X64672381Y-137213390D01*
X156361905Y-129556819D02*
X156933333Y-129556819D01*
X156647619Y-130556819D02*
X156647619Y-129556819D01*
X157266667Y-130556819D02*
X157266667Y-129556819D01*
X157266667Y-129556819D02*
X157647619Y-129556819D01*
X157647619Y-129556819D02*
X157742857Y-129604438D01*
X157742857Y-129604438D02*
X157790476Y-129652057D01*
X157790476Y-129652057D02*
X157838095Y-129747295D01*
X157838095Y-129747295D02*
X157838095Y-129890152D01*
X157838095Y-129890152D02*
X157790476Y-129985390D01*
X157790476Y-129985390D02*
X157742857Y-130033009D01*
X157742857Y-130033009D02*
X157647619Y-130080628D01*
X157647619Y-130080628D02*
X157266667Y-130080628D01*
X158171429Y-129556819D02*
X158790476Y-129556819D01*
X158790476Y-129556819D02*
X158457143Y-129937771D01*
X158457143Y-129937771D02*
X158600000Y-129937771D01*
X158600000Y-129937771D02*
X158695238Y-129985390D01*
X158695238Y-129985390D02*
X158742857Y-130033009D01*
X158742857Y-130033009D02*
X158790476Y-130128247D01*
X158790476Y-130128247D02*
X158790476Y-130366342D01*
X158790476Y-130366342D02*
X158742857Y-130461580D01*
X158742857Y-130461580D02*
X158695238Y-130509200D01*
X158695238Y-130509200D02*
X158600000Y-130556819D01*
X158600000Y-130556819D02*
X158314286Y-130556819D01*
X158314286Y-130556819D02*
X158219048Y-130509200D01*
X158219048Y-130509200D02*
X158171429Y-130461580D01*
X159742857Y-130556819D02*
X159171429Y-130556819D01*
X159457143Y-130556819D02*
X159457143Y-129556819D01*
X159457143Y-129556819D02*
X159361905Y-129699676D01*
X159361905Y-129699676D02*
X159266667Y-129794914D01*
X159266667Y-129794914D02*
X159171429Y-129842533D01*
X136354819Y-181628094D02*
X137164342Y-181628094D01*
X137164342Y-181628094D02*
X137259580Y-181580475D01*
X137259580Y-181580475D02*
X137307200Y-181532856D01*
X137307200Y-181532856D02*
X137354819Y-181437618D01*
X137354819Y-181437618D02*
X137354819Y-181247142D01*
X137354819Y-181247142D02*
X137307200Y-181151904D01*
X137307200Y-181151904D02*
X137259580Y-181104285D01*
X137259580Y-181104285D02*
X137164342Y-181056666D01*
X137164342Y-181056666D02*
X136354819Y-181056666D01*
X137354819Y-180056666D02*
X137354819Y-180628094D01*
X137354819Y-180342380D02*
X136354819Y-180342380D01*
X136354819Y-180342380D02*
X136497676Y-180437618D01*
X136497676Y-180437618D02*
X136592914Y-180532856D01*
X136592914Y-180532856D02*
X136640533Y-180628094D01*
X136688152Y-179199523D02*
X137354819Y-179199523D01*
X136307200Y-179437618D02*
X137021485Y-179675713D01*
X137021485Y-179675713D02*
X137021485Y-179056666D01*
X132911905Y-127264819D02*
X133483333Y-127264819D01*
X133197619Y-128264819D02*
X133197619Y-127264819D01*
X133816667Y-128264819D02*
X133816667Y-127264819D01*
X133816667Y-127264819D02*
X134197619Y-127264819D01*
X134197619Y-127264819D02*
X134292857Y-127312438D01*
X134292857Y-127312438D02*
X134340476Y-127360057D01*
X134340476Y-127360057D02*
X134388095Y-127455295D01*
X134388095Y-127455295D02*
X134388095Y-127598152D01*
X134388095Y-127598152D02*
X134340476Y-127693390D01*
X134340476Y-127693390D02*
X134292857Y-127741009D01*
X134292857Y-127741009D02*
X134197619Y-127788628D01*
X134197619Y-127788628D02*
X133816667Y-127788628D01*
X134769048Y-127360057D02*
X134816667Y-127312438D01*
X134816667Y-127312438D02*
X134911905Y-127264819D01*
X134911905Y-127264819D02*
X135150000Y-127264819D01*
X135150000Y-127264819D02*
X135245238Y-127312438D01*
X135245238Y-127312438D02*
X135292857Y-127360057D01*
X135292857Y-127360057D02*
X135340476Y-127455295D01*
X135340476Y-127455295D02*
X135340476Y-127550533D01*
X135340476Y-127550533D02*
X135292857Y-127693390D01*
X135292857Y-127693390D02*
X134721429Y-128264819D01*
X134721429Y-128264819D02*
X135340476Y-128264819D01*
X136245238Y-127264819D02*
X135769048Y-127264819D01*
X135769048Y-127264819D02*
X135721429Y-127741009D01*
X135721429Y-127741009D02*
X135769048Y-127693390D01*
X135769048Y-127693390D02*
X135864286Y-127645771D01*
X135864286Y-127645771D02*
X136102381Y-127645771D01*
X136102381Y-127645771D02*
X136197619Y-127693390D01*
X136197619Y-127693390D02*
X136245238Y-127741009D01*
X136245238Y-127741009D02*
X136292857Y-127836247D01*
X136292857Y-127836247D02*
X136292857Y-128074342D01*
X136292857Y-128074342D02*
X136245238Y-128169580D01*
X136245238Y-128169580D02*
X136197619Y-128217200D01*
X136197619Y-128217200D02*
X136102381Y-128264819D01*
X136102381Y-128264819D02*
X135864286Y-128264819D01*
X135864286Y-128264819D02*
X135769048Y-128217200D01*
X135769048Y-128217200D02*
X135721429Y-128169580D01*
X121954761Y-155550057D02*
X121859523Y-155502438D01*
X121859523Y-155502438D02*
X121764285Y-155407200D01*
X121764285Y-155407200D02*
X121621428Y-155264342D01*
X121621428Y-155264342D02*
X121526190Y-155216723D01*
X121526190Y-155216723D02*
X121430952Y-155216723D01*
X121478571Y-155454819D02*
X121383333Y-155407200D01*
X121383333Y-155407200D02*
X121288095Y-155311961D01*
X121288095Y-155311961D02*
X121240476Y-155121485D01*
X121240476Y-155121485D02*
X121240476Y-154788152D01*
X121240476Y-154788152D02*
X121288095Y-154597676D01*
X121288095Y-154597676D02*
X121383333Y-154502438D01*
X121383333Y-154502438D02*
X121478571Y-154454819D01*
X121478571Y-154454819D02*
X121669047Y-154454819D01*
X121669047Y-154454819D02*
X121764285Y-154502438D01*
X121764285Y-154502438D02*
X121859523Y-154597676D01*
X121859523Y-154597676D02*
X121907142Y-154788152D01*
X121907142Y-154788152D02*
X121907142Y-155121485D01*
X121907142Y-155121485D02*
X121859523Y-155311961D01*
X121859523Y-155311961D02*
X121764285Y-155407200D01*
X121764285Y-155407200D02*
X121669047Y-155454819D01*
X121669047Y-155454819D02*
X121478571Y-155454819D01*
X122811904Y-154454819D02*
X122335714Y-154454819D01*
X122335714Y-154454819D02*
X122288095Y-154931009D01*
X122288095Y-154931009D02*
X122335714Y-154883390D01*
X122335714Y-154883390D02*
X122430952Y-154835771D01*
X122430952Y-154835771D02*
X122669047Y-154835771D01*
X122669047Y-154835771D02*
X122764285Y-154883390D01*
X122764285Y-154883390D02*
X122811904Y-154931009D01*
X122811904Y-154931009D02*
X122859523Y-155026247D01*
X122859523Y-155026247D02*
X122859523Y-155264342D01*
X122859523Y-155264342D02*
X122811904Y-155359580D01*
X122811904Y-155359580D02*
X122764285Y-155407200D01*
X122764285Y-155407200D02*
X122669047Y-155454819D01*
X122669047Y-155454819D02*
X122430952Y-155454819D01*
X122430952Y-155454819D02*
X122335714Y-155407200D01*
X122335714Y-155407200D02*
X122288095Y-155359580D01*
X84056576Y-103877630D02*
X84056576Y-104591915D01*
X84056576Y-104591915D02*
X84008957Y-104734772D01*
X84008957Y-104734772D02*
X83913719Y-104830011D01*
X83913719Y-104830011D02*
X83770862Y-104877630D01*
X83770862Y-104877630D02*
X83675624Y-104877630D01*
X85056576Y-104877630D02*
X84485148Y-104877630D01*
X84770862Y-104877630D02*
X84770862Y-103877630D01*
X84770862Y-103877630D02*
X84675624Y-104020487D01*
X84675624Y-104020487D02*
X84580386Y-104115725D01*
X84580386Y-104115725D02*
X84485148Y-104163344D01*
X123435180Y-134611905D02*
X122625657Y-134611905D01*
X122625657Y-134611905D02*
X122530419Y-134659524D01*
X122530419Y-134659524D02*
X122482800Y-134707143D01*
X122482800Y-134707143D02*
X122435180Y-134802381D01*
X122435180Y-134802381D02*
X122435180Y-134992857D01*
X122435180Y-134992857D02*
X122482800Y-135088095D01*
X122482800Y-135088095D02*
X122530419Y-135135714D01*
X122530419Y-135135714D02*
X122625657Y-135183333D01*
X122625657Y-135183333D02*
X123435180Y-135183333D01*
X122435180Y-136183333D02*
X122435180Y-135611905D01*
X122435180Y-135897619D02*
X123435180Y-135897619D01*
X123435180Y-135897619D02*
X123292323Y-135802381D01*
X123292323Y-135802381D02*
X123197085Y-135707143D01*
X123197085Y-135707143D02*
X123149466Y-135611905D01*
X123006609Y-136754762D02*
X123054228Y-136659524D01*
X123054228Y-136659524D02*
X123101847Y-136611905D01*
X123101847Y-136611905D02*
X123197085Y-136564286D01*
X123197085Y-136564286D02*
X123244704Y-136564286D01*
X123244704Y-136564286D02*
X123339942Y-136611905D01*
X123339942Y-136611905D02*
X123387561Y-136659524D01*
X123387561Y-136659524D02*
X123435180Y-136754762D01*
X123435180Y-136754762D02*
X123435180Y-136945238D01*
X123435180Y-136945238D02*
X123387561Y-137040476D01*
X123387561Y-137040476D02*
X123339942Y-137088095D01*
X123339942Y-137088095D02*
X123244704Y-137135714D01*
X123244704Y-137135714D02*
X123197085Y-137135714D01*
X123197085Y-137135714D02*
X123101847Y-137088095D01*
X123101847Y-137088095D02*
X123054228Y-137040476D01*
X123054228Y-137040476D02*
X123006609Y-136945238D01*
X123006609Y-136945238D02*
X123006609Y-136754762D01*
X123006609Y-136754762D02*
X122958990Y-136659524D01*
X122958990Y-136659524D02*
X122911371Y-136611905D01*
X122911371Y-136611905D02*
X122816133Y-136564286D01*
X122816133Y-136564286D02*
X122625657Y-136564286D01*
X122625657Y-136564286D02*
X122530419Y-136611905D01*
X122530419Y-136611905D02*
X122482800Y-136659524D01*
X122482800Y-136659524D02*
X122435180Y-136754762D01*
X122435180Y-136754762D02*
X122435180Y-136945238D01*
X122435180Y-136945238D02*
X122482800Y-137040476D01*
X122482800Y-137040476D02*
X122530419Y-137088095D01*
X122530419Y-137088095D02*
X122625657Y-137135714D01*
X122625657Y-137135714D02*
X122816133Y-137135714D01*
X122816133Y-137135714D02*
X122911371Y-137088095D01*
X122911371Y-137088095D02*
X122958990Y-137040476D01*
X122958990Y-137040476D02*
X123006609Y-136945238D01*
X134112619Y-132039999D02*
X134350714Y-132039999D01*
X134255476Y-132278094D02*
X134350714Y-132039999D01*
X134350714Y-132039999D02*
X134255476Y-131801904D01*
X134541190Y-132182856D02*
X134350714Y-132039999D01*
X134350714Y-132039999D02*
X134541190Y-131897142D01*
X135202980Y-132040000D02*
X134964885Y-132040000D01*
X135060123Y-131801905D02*
X134964885Y-132040000D01*
X134964885Y-132040000D02*
X135060123Y-132278095D01*
X134774409Y-131897143D02*
X134964885Y-132040000D01*
X134964885Y-132040000D02*
X134774409Y-132182857D01*
X149194761Y-188316207D02*
X149099523Y-188268588D01*
X149099523Y-188268588D02*
X149004285Y-188173350D01*
X149004285Y-188173350D02*
X148861428Y-188030492D01*
X148861428Y-188030492D02*
X148766190Y-187982873D01*
X148766190Y-187982873D02*
X148670952Y-187982873D01*
X148718571Y-188220969D02*
X148623333Y-188173350D01*
X148623333Y-188173350D02*
X148528095Y-188078111D01*
X148528095Y-188078111D02*
X148480476Y-187887635D01*
X148480476Y-187887635D02*
X148480476Y-187554302D01*
X148480476Y-187554302D02*
X148528095Y-187363826D01*
X148528095Y-187363826D02*
X148623333Y-187268588D01*
X148623333Y-187268588D02*
X148718571Y-187220969D01*
X148718571Y-187220969D02*
X148909047Y-187220969D01*
X148909047Y-187220969D02*
X149004285Y-187268588D01*
X149004285Y-187268588D02*
X149099523Y-187363826D01*
X149099523Y-187363826D02*
X149147142Y-187554302D01*
X149147142Y-187554302D02*
X149147142Y-187887635D01*
X149147142Y-187887635D02*
X149099523Y-188078111D01*
X149099523Y-188078111D02*
X149004285Y-188173350D01*
X149004285Y-188173350D02*
X148909047Y-188220969D01*
X148909047Y-188220969D02*
X148718571Y-188220969D01*
X149480476Y-187220969D02*
X150147142Y-187220969D01*
X150147142Y-187220969D02*
X149718571Y-188220969D01*
X160504761Y-179500057D02*
X160409523Y-179452438D01*
X160409523Y-179452438D02*
X160314285Y-179357200D01*
X160314285Y-179357200D02*
X160171428Y-179214342D01*
X160171428Y-179214342D02*
X160076190Y-179166723D01*
X160076190Y-179166723D02*
X159980952Y-179166723D01*
X160028571Y-179404819D02*
X159933333Y-179357200D01*
X159933333Y-179357200D02*
X159838095Y-179261961D01*
X159838095Y-179261961D02*
X159790476Y-179071485D01*
X159790476Y-179071485D02*
X159790476Y-178738152D01*
X159790476Y-178738152D02*
X159838095Y-178547676D01*
X159838095Y-178547676D02*
X159933333Y-178452438D01*
X159933333Y-178452438D02*
X160028571Y-178404819D01*
X160028571Y-178404819D02*
X160219047Y-178404819D01*
X160219047Y-178404819D02*
X160314285Y-178452438D01*
X160314285Y-178452438D02*
X160409523Y-178547676D01*
X160409523Y-178547676D02*
X160457142Y-178738152D01*
X160457142Y-178738152D02*
X160457142Y-179071485D01*
X160457142Y-179071485D02*
X160409523Y-179261961D01*
X160409523Y-179261961D02*
X160314285Y-179357200D01*
X160314285Y-179357200D02*
X160219047Y-179404819D01*
X160219047Y-179404819D02*
X160028571Y-179404819D01*
X160790476Y-178404819D02*
X161409523Y-178404819D01*
X161409523Y-178404819D02*
X161076190Y-178785771D01*
X161076190Y-178785771D02*
X161219047Y-178785771D01*
X161219047Y-178785771D02*
X161314285Y-178833390D01*
X161314285Y-178833390D02*
X161361904Y-178881009D01*
X161361904Y-178881009D02*
X161409523Y-178976247D01*
X161409523Y-178976247D02*
X161409523Y-179214342D01*
X161409523Y-179214342D02*
X161361904Y-179309580D01*
X161361904Y-179309580D02*
X161314285Y-179357200D01*
X161314285Y-179357200D02*
X161219047Y-179404819D01*
X161219047Y-179404819D02*
X160933333Y-179404819D01*
X160933333Y-179404819D02*
X160838095Y-179357200D01*
X160838095Y-179357200D02*
X160790476Y-179309580D01*
X113085595Y-106706819D02*
X113657023Y-106706819D01*
X113371309Y-107706819D02*
X113371309Y-106706819D01*
X113990357Y-107706819D02*
X113990357Y-106706819D01*
X113990357Y-106706819D02*
X114371309Y-106706819D01*
X114371309Y-106706819D02*
X114466547Y-106754438D01*
X114466547Y-106754438D02*
X114514166Y-106802057D01*
X114514166Y-106802057D02*
X114561785Y-106897295D01*
X114561785Y-106897295D02*
X114561785Y-107040152D01*
X114561785Y-107040152D02*
X114514166Y-107135390D01*
X114514166Y-107135390D02*
X114466547Y-107183009D01*
X114466547Y-107183009D02*
X114371309Y-107230628D01*
X114371309Y-107230628D02*
X113990357Y-107230628D01*
X115418928Y-107040152D02*
X115418928Y-107706819D01*
X115180833Y-106659200D02*
X114942738Y-107373485D01*
X114942738Y-107373485D02*
X115561785Y-107373485D01*
X97631904Y-114415180D02*
X97631904Y-113605657D01*
X97631904Y-113605657D02*
X97584285Y-113510419D01*
X97584285Y-113510419D02*
X97536666Y-113462800D01*
X97536666Y-113462800D02*
X97441428Y-113415180D01*
X97441428Y-113415180D02*
X97250952Y-113415180D01*
X97250952Y-113415180D02*
X97155714Y-113462800D01*
X97155714Y-113462800D02*
X97108095Y-113510419D01*
X97108095Y-113510419D02*
X97060476Y-113605657D01*
X97060476Y-113605657D02*
X97060476Y-114415180D01*
X96631904Y-114319942D02*
X96584285Y-114367561D01*
X96584285Y-114367561D02*
X96489047Y-114415180D01*
X96489047Y-114415180D02*
X96250952Y-114415180D01*
X96250952Y-114415180D02*
X96155714Y-114367561D01*
X96155714Y-114367561D02*
X96108095Y-114319942D01*
X96108095Y-114319942D02*
X96060476Y-114224704D01*
X96060476Y-114224704D02*
X96060476Y-114129466D01*
X96060476Y-114129466D02*
X96108095Y-113986609D01*
X96108095Y-113986609D02*
X96679523Y-113415180D01*
X96679523Y-113415180D02*
X96060476Y-113415180D01*
X132911905Y-118506819D02*
X133483333Y-118506819D01*
X133197619Y-119506819D02*
X133197619Y-118506819D01*
X133816667Y-119506819D02*
X133816667Y-118506819D01*
X133816667Y-118506819D02*
X134197619Y-118506819D01*
X134197619Y-118506819D02*
X134292857Y-118554438D01*
X134292857Y-118554438D02*
X134340476Y-118602057D01*
X134340476Y-118602057D02*
X134388095Y-118697295D01*
X134388095Y-118697295D02*
X134388095Y-118840152D01*
X134388095Y-118840152D02*
X134340476Y-118935390D01*
X134340476Y-118935390D02*
X134292857Y-118983009D01*
X134292857Y-118983009D02*
X134197619Y-119030628D01*
X134197619Y-119030628D02*
X133816667Y-119030628D01*
X134721429Y-118506819D02*
X135340476Y-118506819D01*
X135340476Y-118506819D02*
X135007143Y-118887771D01*
X135007143Y-118887771D02*
X135150000Y-118887771D01*
X135150000Y-118887771D02*
X135245238Y-118935390D01*
X135245238Y-118935390D02*
X135292857Y-118983009D01*
X135292857Y-118983009D02*
X135340476Y-119078247D01*
X135340476Y-119078247D02*
X135340476Y-119316342D01*
X135340476Y-119316342D02*
X135292857Y-119411580D01*
X135292857Y-119411580D02*
X135245238Y-119459200D01*
X135245238Y-119459200D02*
X135150000Y-119506819D01*
X135150000Y-119506819D02*
X134864286Y-119506819D01*
X134864286Y-119506819D02*
X134769048Y-119459200D01*
X134769048Y-119459200D02*
X134721429Y-119411580D01*
X136245238Y-118506819D02*
X135769048Y-118506819D01*
X135769048Y-118506819D02*
X135721429Y-118983009D01*
X135721429Y-118983009D02*
X135769048Y-118935390D01*
X135769048Y-118935390D02*
X135864286Y-118887771D01*
X135864286Y-118887771D02*
X136102381Y-118887771D01*
X136102381Y-118887771D02*
X136197619Y-118935390D01*
X136197619Y-118935390D02*
X136245238Y-118983009D01*
X136245238Y-118983009D02*
X136292857Y-119078247D01*
X136292857Y-119078247D02*
X136292857Y-119316342D01*
X136292857Y-119316342D02*
X136245238Y-119411580D01*
X136245238Y-119411580D02*
X136197619Y-119459200D01*
X136197619Y-119459200D02*
X136102381Y-119506819D01*
X136102381Y-119506819D02*
X135864286Y-119506819D01*
X135864286Y-119506819D02*
X135769048Y-119459200D01*
X135769048Y-119459200D02*
X135721429Y-119411580D01*
X102024819Y-127891904D02*
X102024819Y-127320476D01*
X103024819Y-127606190D02*
X102024819Y-127606190D01*
X103024819Y-126987142D02*
X102024819Y-126987142D01*
X102024819Y-126987142D02*
X102024819Y-126606190D01*
X102024819Y-126606190D02*
X102072438Y-126510952D01*
X102072438Y-126510952D02*
X102120057Y-126463333D01*
X102120057Y-126463333D02*
X102215295Y-126415714D01*
X102215295Y-126415714D02*
X102358152Y-126415714D01*
X102358152Y-126415714D02*
X102453390Y-126463333D01*
X102453390Y-126463333D02*
X102501009Y-126510952D01*
X102501009Y-126510952D02*
X102548628Y-126606190D01*
X102548628Y-126606190D02*
X102548628Y-126987142D01*
X102024819Y-125558571D02*
X102024819Y-125749047D01*
X102024819Y-125749047D02*
X102072438Y-125844285D01*
X102072438Y-125844285D02*
X102120057Y-125891904D01*
X102120057Y-125891904D02*
X102262914Y-125987142D01*
X102262914Y-125987142D02*
X102453390Y-126034761D01*
X102453390Y-126034761D02*
X102834342Y-126034761D01*
X102834342Y-126034761D02*
X102929580Y-125987142D01*
X102929580Y-125987142D02*
X102977200Y-125939523D01*
X102977200Y-125939523D02*
X103024819Y-125844285D01*
X103024819Y-125844285D02*
X103024819Y-125653809D01*
X103024819Y-125653809D02*
X102977200Y-125558571D01*
X102977200Y-125558571D02*
X102929580Y-125510952D01*
X102929580Y-125510952D02*
X102834342Y-125463333D01*
X102834342Y-125463333D02*
X102596247Y-125463333D01*
X102596247Y-125463333D02*
X102501009Y-125510952D01*
X102501009Y-125510952D02*
X102453390Y-125558571D01*
X102453390Y-125558571D02*
X102405771Y-125653809D01*
X102405771Y-125653809D02*
X102405771Y-125844285D01*
X102405771Y-125844285D02*
X102453390Y-125939523D01*
X102453390Y-125939523D02*
X102501009Y-125987142D01*
X102501009Y-125987142D02*
X102596247Y-126034761D01*
X129184819Y-148898094D02*
X129184819Y-148326666D01*
X130184819Y-148612380D02*
X129184819Y-148612380D01*
X130184819Y-147993332D02*
X129184819Y-147993332D01*
X129184819Y-147993332D02*
X129184819Y-147612380D01*
X129184819Y-147612380D02*
X129232438Y-147517142D01*
X129232438Y-147517142D02*
X129280057Y-147469523D01*
X129280057Y-147469523D02*
X129375295Y-147421904D01*
X129375295Y-147421904D02*
X129518152Y-147421904D01*
X129518152Y-147421904D02*
X129613390Y-147469523D01*
X129613390Y-147469523D02*
X129661009Y-147517142D01*
X129661009Y-147517142D02*
X129708628Y-147612380D01*
X129708628Y-147612380D02*
X129708628Y-147993332D01*
X130184819Y-146469523D02*
X130184819Y-147040951D01*
X130184819Y-146755237D02*
X129184819Y-146755237D01*
X129184819Y-146755237D02*
X129327676Y-146850475D01*
X129327676Y-146850475D02*
X129422914Y-146945713D01*
X129422914Y-146945713D02*
X129470533Y-147040951D01*
X129184819Y-145564761D02*
X129184819Y-146040951D01*
X129184819Y-146040951D02*
X129661009Y-146088570D01*
X129661009Y-146088570D02*
X129613390Y-146040951D01*
X129613390Y-146040951D02*
X129565771Y-145945713D01*
X129565771Y-145945713D02*
X129565771Y-145707618D01*
X129565771Y-145707618D02*
X129613390Y-145612380D01*
X129613390Y-145612380D02*
X129661009Y-145564761D01*
X129661009Y-145564761D02*
X129756247Y-145517142D01*
X129756247Y-145517142D02*
X129994342Y-145517142D01*
X129994342Y-145517142D02*
X130089580Y-145564761D01*
X130089580Y-145564761D02*
X130137200Y-145612380D01*
X130137200Y-145612380D02*
X130184819Y-145707618D01*
X130184819Y-145707618D02*
X130184819Y-145945713D01*
X130184819Y-145945713D02*
X130137200Y-146040951D01*
X130137200Y-146040951D02*
X130089580Y-146088570D01*
X141211905Y-94556819D02*
X141783333Y-94556819D01*
X141497619Y-95556819D02*
X141497619Y-94556819D01*
X142116667Y-95556819D02*
X142116667Y-94556819D01*
X142116667Y-94556819D02*
X142497619Y-94556819D01*
X142497619Y-94556819D02*
X142592857Y-94604438D01*
X142592857Y-94604438D02*
X142640476Y-94652057D01*
X142640476Y-94652057D02*
X142688095Y-94747295D01*
X142688095Y-94747295D02*
X142688095Y-94890152D01*
X142688095Y-94890152D02*
X142640476Y-94985390D01*
X142640476Y-94985390D02*
X142592857Y-95033009D01*
X142592857Y-95033009D02*
X142497619Y-95080628D01*
X142497619Y-95080628D02*
X142116667Y-95080628D01*
X143069048Y-94652057D02*
X143116667Y-94604438D01*
X143116667Y-94604438D02*
X143211905Y-94556819D01*
X143211905Y-94556819D02*
X143450000Y-94556819D01*
X143450000Y-94556819D02*
X143545238Y-94604438D01*
X143545238Y-94604438D02*
X143592857Y-94652057D01*
X143592857Y-94652057D02*
X143640476Y-94747295D01*
X143640476Y-94747295D02*
X143640476Y-94842533D01*
X143640476Y-94842533D02*
X143592857Y-94985390D01*
X143592857Y-94985390D02*
X143021429Y-95556819D01*
X143021429Y-95556819D02*
X143640476Y-95556819D01*
X144116667Y-95556819D02*
X144307143Y-95556819D01*
X144307143Y-95556819D02*
X144402381Y-95509200D01*
X144402381Y-95509200D02*
X144450000Y-95461580D01*
X144450000Y-95461580D02*
X144545238Y-95318723D01*
X144545238Y-95318723D02*
X144592857Y-95128247D01*
X144592857Y-95128247D02*
X144592857Y-94747295D01*
X144592857Y-94747295D02*
X144545238Y-94652057D01*
X144545238Y-94652057D02*
X144497619Y-94604438D01*
X144497619Y-94604438D02*
X144402381Y-94556819D01*
X144402381Y-94556819D02*
X144211905Y-94556819D01*
X144211905Y-94556819D02*
X144116667Y-94604438D01*
X144116667Y-94604438D02*
X144069048Y-94652057D01*
X144069048Y-94652057D02*
X144021429Y-94747295D01*
X144021429Y-94747295D02*
X144021429Y-94985390D01*
X144021429Y-94985390D02*
X144069048Y-95080628D01*
X144069048Y-95080628D02*
X144116667Y-95128247D01*
X144116667Y-95128247D02*
X144211905Y-95175866D01*
X144211905Y-95175866D02*
X144402381Y-95175866D01*
X144402381Y-95175866D02*
X144497619Y-95128247D01*
X144497619Y-95128247D02*
X144545238Y-95080628D01*
X144545238Y-95080628D02*
X144592857Y-94985390D01*
X122851905Y-153024819D02*
X123423333Y-153024819D01*
X123137619Y-154024819D02*
X123137619Y-153024819D01*
X123756667Y-154024819D02*
X123756667Y-153024819D01*
X123756667Y-153024819D02*
X124137619Y-153024819D01*
X124137619Y-153024819D02*
X124232857Y-153072438D01*
X124232857Y-153072438D02*
X124280476Y-153120057D01*
X124280476Y-153120057D02*
X124328095Y-153215295D01*
X124328095Y-153215295D02*
X124328095Y-153358152D01*
X124328095Y-153358152D02*
X124280476Y-153453390D01*
X124280476Y-153453390D02*
X124232857Y-153501009D01*
X124232857Y-153501009D02*
X124137619Y-153548628D01*
X124137619Y-153548628D02*
X123756667Y-153548628D01*
X125280476Y-154024819D02*
X124709048Y-154024819D01*
X124994762Y-154024819D02*
X124994762Y-153024819D01*
X124994762Y-153024819D02*
X124899524Y-153167676D01*
X124899524Y-153167676D02*
X124804286Y-153262914D01*
X124804286Y-153262914D02*
X124709048Y-153310533D01*
X125661429Y-153120057D02*
X125709048Y-153072438D01*
X125709048Y-153072438D02*
X125804286Y-153024819D01*
X125804286Y-153024819D02*
X126042381Y-153024819D01*
X126042381Y-153024819D02*
X126137619Y-153072438D01*
X126137619Y-153072438D02*
X126185238Y-153120057D01*
X126185238Y-153120057D02*
X126232857Y-153215295D01*
X126232857Y-153215295D02*
X126232857Y-153310533D01*
X126232857Y-153310533D02*
X126185238Y-153453390D01*
X126185238Y-153453390D02*
X125613810Y-154024819D01*
X125613810Y-154024819D02*
X126232857Y-154024819D01*
X158129820Y-188138094D02*
X157129820Y-188138094D01*
X157129820Y-188138094D02*
X157129820Y-187899999D01*
X157129820Y-187899999D02*
X157177439Y-187757142D01*
X157177439Y-187757142D02*
X157272677Y-187661904D01*
X157272677Y-187661904D02*
X157367915Y-187614285D01*
X157367915Y-187614285D02*
X157558391Y-187566666D01*
X157558391Y-187566666D02*
X157701248Y-187566666D01*
X157701248Y-187566666D02*
X157891724Y-187614285D01*
X157891724Y-187614285D02*
X157986962Y-187661904D01*
X157986962Y-187661904D02*
X158082201Y-187757142D01*
X158082201Y-187757142D02*
X158129820Y-187899999D01*
X158129820Y-187899999D02*
X158129820Y-188138094D01*
X157463153Y-186709523D02*
X158129820Y-186709523D01*
X157082201Y-186947618D02*
X157796486Y-187185713D01*
X157796486Y-187185713D02*
X157796486Y-186566666D01*
D12*
%TO.C,C18*%
X120078948Y-133848800D02*
X120601452Y-133848800D01*
X120078948Y-135318800D02*
X120601452Y-135318800D01*
%TO.C,C51*%
X103895448Y-151050200D02*
X104417952Y-151050200D01*
X103895448Y-152520200D02*
X104417952Y-152520200D01*
%TO.C,C27*%
X140240200Y-154550423D02*
X140240200Y-154027919D01*
X141710200Y-154550423D02*
X141710200Y-154027919D01*
%TO.C,C26*%
X137190200Y-154550423D02*
X137190200Y-154027919D01*
X138660200Y-154550423D02*
X138660200Y-154027919D01*
%TO.C,D5*%
X96710000Y-164450000D02*
X91200000Y-164450000D01*
X96710000Y-167750000D02*
X91200000Y-167750000D01*
X96710000Y-167750000D02*
X96710000Y-164450000D01*
%TO.C,C11*%
X77838748Y-128050200D02*
X78361252Y-128050200D01*
X77838748Y-129520200D02*
X78361252Y-129520200D01*
%TO.C,R42*%
X156247937Y-185080200D02*
X156702065Y-185080200D01*
X156247937Y-186550200D02*
X156702065Y-186550200D01*
%TO.C,C25*%
X144911252Y-101229800D02*
X144388748Y-101229800D01*
X144911252Y-102699800D02*
X144388748Y-102699800D01*
%TO.C,TP11*%
X126200000Y-162000000D02*
G75*
G02*
X122800000Y-162000000I-1700000J0D01*
G01*
X122800000Y-162000000D02*
G75*
G02*
X126200000Y-162000000I1700000J0D01*
G01*
D13*
%TO.C,U21*%
X138422499Y-158099250D02*
X138422499Y-159953450D01*
X139659438Y-159953450D02*
X140335160Y-159953450D01*
X141572099Y-159953450D02*
X141572099Y-158099250D01*
D12*
%TO.C,TP28*%
X128380000Y-189430000D02*
G75*
G02*
X124980000Y-189430000I-1700000J0D01*
G01*
X124980000Y-189430000D02*
G75*
G02*
X128380000Y-189430000I1700000J0D01*
G01*
%TO.C,TP18*%
X143650000Y-181900000D02*
G75*
G02*
X140250000Y-181900000I-1700000J0D01*
G01*
X140250000Y-181900000D02*
G75*
G02*
X143650000Y-181900000I1700000J0D01*
G01*
%TO.C,TP19*%
X157475000Y-167787499D02*
G75*
G02*
X154075000Y-167787499I-1700000J0D01*
G01*
X154075000Y-167787499D02*
G75*
G02*
X157475000Y-167787499I1700000J0D01*
G01*
D13*
%TO.C,U19*%
X124548000Y-117420000D02*
X124548000Y-117807186D01*
X124548000Y-119572814D02*
X124548000Y-120347186D01*
X124548000Y-122112814D02*
X124548000Y-122887186D01*
X124548000Y-124652814D02*
X124548000Y-125427186D01*
X124548000Y-127192814D02*
X124548000Y-127580000D01*
X124548000Y-127580000D02*
X131152000Y-127580000D01*
X131152000Y-117420000D02*
X124548000Y-117420000D01*
X131152000Y-117807186D02*
X131152000Y-117420000D01*
X131152000Y-120347186D02*
X131152000Y-119572814D01*
X131152000Y-122887186D02*
X131152000Y-122112814D01*
X131152000Y-125291460D02*
X131152000Y-124652814D01*
X127545200Y-127580000D02*
G75*
G02*
X128154800Y-127580000I304800J0D01*
G01*
D12*
%TO.C,Q4*%
X119540000Y-162927500D02*
X119590000Y-162927500D01*
X119540000Y-164447500D02*
X119540000Y-162927500D01*
X120540000Y-164447500D02*
X119540000Y-164447500D01*
X120710000Y-162927500D02*
X121490000Y-162927500D01*
X122610000Y-162927500D02*
X122660000Y-162927500D01*
X122660000Y-162927500D02*
X122660000Y-164447500D01*
X122660000Y-164447500D02*
X121660000Y-164447500D01*
X121480000Y-162387500D02*
X121150000Y-162627500D01*
X121150000Y-162147500D01*
X121480000Y-162387500D01*
G36*
X121480000Y-162387500D02*
G01*
X121150000Y-162627500D01*
X121150000Y-162147500D01*
X121480000Y-162387500D01*
G37*
%TO.C,R4*%
X74030200Y-147027064D02*
X74030200Y-146572936D01*
X75500200Y-147027064D02*
X75500200Y-146572936D01*
%TO.C,R41*%
X110330200Y-126477064D02*
X110330200Y-126022936D01*
X111800200Y-126477064D02*
X111800200Y-126022936D01*
D13*
%TO.C,U8*%
X154660200Y-170722899D02*
X154660200Y-172577099D01*
X156572861Y-170722899D02*
X155897139Y-170722899D01*
X157809800Y-172577099D02*
X157809800Y-170722899D01*
D12*
%TO.C,C2*%
X92338748Y-98265000D02*
X92861252Y-98265000D01*
X92338748Y-99735000D02*
X92861252Y-99735000D01*
D13*
%TO.C,U4*%
X100044800Y-118564000D02*
X101340200Y-118564000D01*
X101340200Y-118564000D02*
X101949800Y-118564000D01*
X101949800Y-118564000D02*
X103245200Y-118564000D01*
X103245200Y-115363600D02*
X100044800Y-115363600D01*
D14*
X101340200Y-118564000D02*
G75*
G02*
X101949800Y-118564000I304800J0D01*
G01*
D12*
%TO.C,R40*%
X112480200Y-126477064D02*
X112480200Y-126022936D01*
X113950200Y-126477064D02*
X113950200Y-126022936D01*
%TO.C,TP21*%
X154475000Y-169837499D02*
G75*
G02*
X151075000Y-169837499I-1700000J0D01*
G01*
X151075000Y-169837499D02*
G75*
G02*
X154475000Y-169837499I1700000J0D01*
G01*
%TO.C,C47*%
X131288748Y-141000200D02*
X131811252Y-141000200D01*
X131288748Y-142470200D02*
X131811252Y-142470200D01*
%TO.C,SW3*%
X126500000Y-172050000D02*
X126500000Y-176550000D01*
X129000000Y-177800000D02*
X130500000Y-177800000D01*
X130500000Y-170800000D02*
X129000000Y-170800000D01*
X133000000Y-176550000D02*
X133000000Y-172050000D01*
%TO.C,R13*%
X121680200Y-180677064D02*
X121680200Y-180222936D01*
X123150200Y-180677064D02*
X123150200Y-180222936D01*
%TO.C,Re1*%
X150320814Y-156237300D02*
X149866686Y-156237300D01*
X150320814Y-157707300D02*
X149866686Y-157707300D01*
%TO.C,SW1*%
X81850000Y-133250000D02*
X81850000Y-134750000D01*
X83100000Y-137250000D02*
X87600000Y-137250000D01*
X87600000Y-130750000D02*
X83100000Y-130750000D01*
X88850000Y-134750000D02*
X88850000Y-133250000D01*
%TO.C,C8*%
X109250200Y-131411252D02*
X109250200Y-130888748D01*
X110720200Y-131411252D02*
X110720200Y-130888748D01*
%TO.C,J2*%
X115740000Y-183540000D02*
X115740000Y-184790000D01*
X116040000Y-183840000D02*
X116040000Y-188560000D01*
X116040000Y-185150000D02*
X116650000Y-185150000D01*
X116040000Y-186450000D02*
X116650000Y-186450000D01*
X116040000Y-188560000D02*
X122160000Y-188560000D01*
X116650000Y-184450000D02*
X116650000Y-187950000D01*
X116650000Y-187950000D02*
X121550000Y-187950000D01*
X116990000Y-183540000D02*
X115740000Y-183540000D01*
X117500000Y-183640000D02*
X117500000Y-183840000D01*
X117800000Y-183640000D02*
X117500000Y-183640000D01*
X117800000Y-183740000D02*
X117500000Y-183740000D01*
X117800000Y-183840000D02*
X117800000Y-183640000D01*
X118600000Y-183840000D02*
X118600000Y-184450000D01*
X118600000Y-184450000D02*
X116650000Y-184450000D01*
X119000000Y-187450000D02*
X119200000Y-187450000D01*
X119000000Y-187950000D02*
X119000000Y-187450000D01*
X119100000Y-187950000D02*
X119100000Y-187450000D01*
X119200000Y-187450000D02*
X119200000Y-187950000D01*
X119600000Y-184450000D02*
X119600000Y-183840000D01*
X121550000Y-184450000D02*
X119600000Y-184450000D01*
X121550000Y-187950000D02*
X121550000Y-184450000D01*
X122160000Y-183840000D02*
X116040000Y-183840000D01*
X122160000Y-185150000D02*
X121550000Y-185150000D01*
X122160000Y-186450000D02*
X121550000Y-186450000D01*
X122160000Y-188560000D02*
X122160000Y-183840000D01*
D15*
%TO.C,U5*%
X70350000Y-106660000D02*
X70350000Y-124660000D01*
X70350000Y-124660000D02*
X76680000Y-124660000D01*
X76680000Y-106660000D02*
X70350000Y-106660000D01*
X90350000Y-106660000D02*
X90220000Y-106660000D01*
X90350000Y-124660000D02*
X90220000Y-124660000D01*
X90350000Y-124660000D02*
X90350000Y-106660000D01*
D16*
X77550000Y-126160000D02*
G75*
G02*
X77350000Y-126160000I-100000J0D01*
G01*
X77350000Y-126160000D02*
G75*
G02*
X77550000Y-126160000I100000J0D01*
G01*
D12*
%TO.C,D1*%
X96910000Y-94450000D02*
X91400000Y-94450000D01*
X96910000Y-97750000D02*
X91400000Y-97750000D01*
X96910000Y-97750000D02*
X96910000Y-94450000D01*
D13*
%TO.C,U7*%
X107659600Y-125873600D02*
X107659600Y-125543400D01*
X107659600Y-126483200D02*
X107659600Y-125873600D01*
X107659600Y-126813400D02*
X107659600Y-126483200D01*
X107659600Y-126483200D02*
G75*
G02*
X107659600Y-125873600I0J304800D01*
G01*
D16*
%TO.C,U11*%
X163850000Y-165949997D02*
X163850000Y-165649998D01*
X166049998Y-165649998D02*
X163850000Y-165649998D01*
X166049998Y-165949997D02*
X163850000Y-165949997D01*
X166049998Y-165949997D02*
X166049998Y-165649998D01*
D12*
%TO.C,R35*%
X142349800Y-126022936D02*
X142349800Y-126477064D01*
X143819800Y-126022936D02*
X143819800Y-126477064D01*
%TO.C,R34*%
X157080200Y-136577064D02*
X157080200Y-136122936D01*
X158550200Y-136577064D02*
X158550200Y-136122936D01*
D13*
%TO.C,U9*%
X158683850Y-170822900D02*
X158683850Y-172677100D01*
X159920789Y-172677100D02*
X160596511Y-172677100D01*
X161833450Y-172677100D02*
X161833450Y-170822900D01*
D12*
%TO.C,R26*%
X132330200Y-163227064D02*
X132330200Y-162772936D01*
X133800200Y-163227064D02*
X133800200Y-162772936D01*
%TO.C,TP9*%
X118250000Y-159700000D02*
G75*
G02*
X114850000Y-159700000I-1700000J0D01*
G01*
X114850000Y-159700000D02*
G75*
G02*
X118250000Y-159700000I1700000J0D01*
G01*
%TO.C,R39*%
X131180200Y-112977064D02*
X131180200Y-112522936D01*
X132650200Y-112977064D02*
X132650200Y-112522936D01*
%TO.C,R25*%
X163638850Y-170389564D02*
X163638850Y-169935436D01*
X165108850Y-170389564D02*
X165108850Y-169935436D01*
%TO.C,C28*%
X143140200Y-154600423D02*
X143140200Y-154077919D01*
X144610200Y-154600423D02*
X144610200Y-154077919D01*
%TO.C,C4*%
X101311252Y-96079800D02*
X100788748Y-96079800D01*
X101311252Y-97549800D02*
X100788748Y-97549800D01*
%TO.C,R3*%
X101722936Y-98180200D02*
X102177064Y-98180200D01*
X101722936Y-99650200D02*
X102177064Y-99650200D01*
%TO.C,Q6*%
X111540000Y-113280000D02*
X116160000Y-113280000D01*
X111540000Y-116540000D02*
X112920000Y-116540000D01*
X111540000Y-120240000D02*
X112920000Y-120240000D01*
X111540000Y-123500000D02*
X111540000Y-113280000D01*
X112920000Y-123500000D02*
X112920000Y-113280000D01*
X116160000Y-113280000D02*
X116160000Y-123500000D01*
X116160000Y-123500000D02*
X111540000Y-123500000D01*
%TO.C,TP32*%
X144150000Y-122350000D02*
G75*
G02*
X140750000Y-122350000I-1700000J0D01*
G01*
X140750000Y-122350000D02*
G75*
G02*
X144150000Y-122350000I1700000J0D01*
G01*
%TO.C,C1*%
X101271252Y-112975000D02*
X100748748Y-112975000D01*
X101271252Y-114445000D02*
X100748748Y-114445000D01*
%TO.C,R52*%
X138920200Y-144153735D02*
X138920200Y-143699607D01*
X140390200Y-144153735D02*
X140390200Y-143699607D01*
%TO.C,R1*%
X100922936Y-108780200D02*
X101377064Y-108780200D01*
X100922936Y-110250200D02*
X101377064Y-110250200D01*
%TO.C,R19*%
X85677064Y-128249800D02*
X85222936Y-128249800D01*
X85677064Y-129719800D02*
X85222936Y-129719800D01*
%TO.C,C6*%
X93411252Y-113479800D02*
X92888748Y-113479800D01*
X93411252Y-114949800D02*
X92888748Y-114949800D01*
%TO.C,Q1*%
X99610000Y-175460000D02*
X99610000Y-165240000D01*
X115480000Y-165240000D02*
X99610000Y-165240000D01*
X115480000Y-167325000D02*
X117920000Y-167325000D01*
X115480000Y-168295000D02*
X117920000Y-168295000D01*
X115480000Y-169865000D02*
X117920000Y-169865000D01*
X115480000Y-170835000D02*
X117920000Y-170835000D01*
X115480000Y-172405000D02*
X117920000Y-172405000D01*
X115480000Y-173375000D02*
X117920000Y-173375000D01*
X115480000Y-175460000D02*
X99610000Y-175460000D01*
X115480000Y-175460000D02*
X115480000Y-165240000D01*
%TO.C,C13*%
X114750200Y-131361252D02*
X114750200Y-130838748D01*
X116220200Y-131361252D02*
X116220200Y-130838748D01*
%TO.C,R10*%
X90094710Y-101585747D02*
X90094710Y-102039875D01*
X91564710Y-101585747D02*
X91564710Y-102039875D01*
%TO.C,J3*%
X70590000Y-138390000D02*
X70590000Y-139640000D01*
X70890000Y-138690000D02*
X70890000Y-143410000D01*
X70890000Y-140000000D02*
X71500000Y-140000000D01*
X70890000Y-141300000D02*
X71500000Y-141300000D01*
X70890000Y-143410000D02*
X81010000Y-143410000D01*
X71500000Y-139300000D02*
X71500000Y-142800000D01*
X71500000Y-142800000D02*
X80400000Y-142800000D01*
X71840000Y-138390000D02*
X70590000Y-138390000D01*
X72350000Y-138490000D02*
X72350000Y-138690000D01*
X72650000Y-138490000D02*
X72350000Y-138490000D01*
X72650000Y-138590000D02*
X72350000Y-138590000D01*
X72650000Y-138690000D02*
X72650000Y-138490000D01*
X73450000Y-138690000D02*
X73450000Y-139300000D01*
X73450000Y-139300000D02*
X71500000Y-139300000D01*
X73850000Y-142300000D02*
X74050000Y-142300000D01*
X73850000Y-142800000D02*
X73850000Y-142300000D01*
X73950000Y-142800000D02*
X73950000Y-142300000D01*
X74050000Y-142300000D02*
X74050000Y-142800000D01*
X75850000Y-142300000D02*
X76050000Y-142300000D01*
X75850000Y-142800000D02*
X75850000Y-142300000D01*
X75950000Y-142800000D02*
X75950000Y-142300000D01*
X76050000Y-142300000D02*
X76050000Y-142800000D01*
X77850000Y-142300000D02*
X78050000Y-142300000D01*
X77850000Y-142800000D02*
X77850000Y-142300000D01*
X77950000Y-142800000D02*
X77950000Y-142300000D01*
X78050000Y-142300000D02*
X78050000Y-142800000D01*
X78450000Y-139300000D02*
X78450000Y-138690000D01*
X80400000Y-139300000D02*
X78450000Y-139300000D01*
X80400000Y-142800000D02*
X80400000Y-139300000D01*
X81010000Y-138690000D02*
X70890000Y-138690000D01*
X81010000Y-140000000D02*
X80400000Y-140000000D01*
X81010000Y-141300000D02*
X80400000Y-141300000D01*
X81010000Y-143410000D02*
X81010000Y-138690000D01*
%TO.C,R32*%
X138920200Y-151078735D02*
X138920200Y-150624607D01*
X140390200Y-151078735D02*
X140390200Y-150624607D01*
%TO.C,C7*%
X105988748Y-129100200D02*
X106511252Y-129100200D01*
X105988748Y-130570200D02*
X106511252Y-130570200D01*
%TO.C,TP7*%
X80150000Y-147600000D02*
G75*
G02*
X76750000Y-147600000I-1700000J0D01*
G01*
X76750000Y-147600000D02*
G75*
G02*
X80150000Y-147600000I1700000J0D01*
G01*
%TO.C,C30*%
X153855002Y-154779800D02*
X153332498Y-154779800D01*
X153855002Y-156249800D02*
X153332498Y-156249800D01*
%TO.C,TP22*%
X162900000Y-165800000D02*
G75*
G02*
X159500000Y-165800000I-1700000J0D01*
G01*
X159500000Y-165800000D02*
G75*
G02*
X162900000Y-165800000I1700000J0D01*
G01*
D16*
%TO.C,U10*%
X153325001Y-164537498D02*
X153325001Y-164237499D01*
X155524999Y-164237499D02*
X153325001Y-164237499D01*
X155524999Y-164537498D02*
X153325001Y-164537498D01*
X155524999Y-164537498D02*
X155524999Y-164237499D01*
D12*
%TO.C,C32*%
X153855002Y-149039800D02*
X153332498Y-149039800D01*
X153855002Y-150509800D02*
X153332498Y-150509800D01*
%TO.C,C23*%
X127738748Y-110550200D02*
X128261252Y-110550200D01*
X127738748Y-112020200D02*
X128261252Y-112020200D01*
D13*
%TO.C,U1*%
X99943100Y-102990147D02*
X99943100Y-105737453D01*
X104946900Y-105737453D02*
X104946900Y-102990147D01*
X99943100Y-104059000D02*
G75*
G02*
X99943100Y-104668600I0J-304800D01*
G01*
D12*
%TO.C,TP8*%
X95390000Y-105650000D02*
G75*
G02*
X91990000Y-105650000I-1700000J0D01*
G01*
X91990000Y-105650000D02*
G75*
G02*
X95390000Y-105650000I1700000J0D01*
G01*
%TO.C,D3*%
X132100000Y-167350000D02*
X132100000Y-165390000D01*
X133300000Y-165390000D02*
X132100000Y-165390000D01*
X133300000Y-167350000D02*
X133300000Y-165390000D01*
%TO.C,C37*%
X157405002Y-147679800D02*
X156882498Y-147679800D01*
X157405002Y-149149800D02*
X156882498Y-149149800D01*
%TO.C,R5*%
X71330200Y-147027064D02*
X71330200Y-146572936D01*
X72800200Y-147027064D02*
X72800200Y-146572936D01*
D13*
%TO.C,SW4*%
X88366000Y-168343400D02*
X88366000Y-185056600D01*
X88366000Y-185056600D02*
X99034000Y-185056600D01*
X99034000Y-168343400D02*
X88366000Y-168343400D01*
X99034000Y-185056600D02*
X99034000Y-168343400D01*
D12*
%TO.C,C34*%
X157405002Y-156267300D02*
X156882498Y-156267300D01*
X157405002Y-157737300D02*
X156882498Y-157737300D01*
%TO.C,R46*%
X137180200Y-147628735D02*
X137180200Y-147174607D01*
X138650200Y-147628735D02*
X138650200Y-147174607D01*
%TO.C,TP10*%
X116000000Y-144350000D02*
G75*
G02*
X112600000Y-144350000I-1700000J0D01*
G01*
X112600000Y-144350000D02*
G75*
G02*
X116000000Y-144350000I1700000J0D01*
G01*
%TO.C,TP14*%
X146350000Y-166300000D02*
G75*
G02*
X142950000Y-166300000I-1700000J0D01*
G01*
X142950000Y-166300000D02*
G75*
G02*
X146350000Y-166300000I1700000J0D01*
G01*
%TO.C,C15*%
X120038748Y-143150200D02*
X120561252Y-143150200D01*
X120038748Y-144620200D02*
X120561252Y-144620200D01*
%TO.C,TP34*%
X142050000Y-128550000D02*
G75*
G02*
X138650000Y-128550000I-1700000J0D01*
G01*
X138650000Y-128550000D02*
G75*
G02*
X142050000Y-128550000I1700000J0D01*
G01*
%TO.C,R2*%
X105422936Y-98280200D02*
X105877064Y-98280200D01*
X105422936Y-99750200D02*
X105877064Y-99750200D01*
%TO.C,TP3*%
X101750000Y-130900000D02*
G75*
G02*
X98350000Y-130900000I-1700000J0D01*
G01*
X98350000Y-130900000D02*
G75*
G02*
X101750000Y-130900000I1700000J0D01*
G01*
%TO.C,C14*%
X120038748Y-140140200D02*
X120561252Y-140140200D01*
X120038748Y-141610200D02*
X120561252Y-141610200D01*
%TO.C,R14*%
X96314564Y-98165000D02*
X95860436Y-98165000D01*
X96314564Y-99635000D02*
X95860436Y-99635000D01*
D15*
%TO.C,U3*%
X96945000Y-119275000D02*
X93045000Y-119275000D01*
X96945000Y-124325000D02*
X93045000Y-124325000D01*
D16*
X99135000Y-124105000D02*
G75*
G02*
X98935000Y-124105000I-100000J0D01*
G01*
X98935000Y-124105000D02*
G75*
G02*
X99135000Y-124105000I100000J0D01*
G01*
D12*
%TO.C,C20*%
X134340200Y-154550423D02*
X134340200Y-154027919D01*
X135810200Y-154550423D02*
X135810200Y-154027919D01*
%TO.C,R17*%
X79477064Y-104049800D02*
X79022936Y-104049800D01*
X79477064Y-105519800D02*
X79022936Y-105519800D01*
%TO.C,TP24*%
X159533649Y-163650000D02*
G75*
G02*
X156133649Y-163650000I-1700000J0D01*
G01*
X156133649Y-163650000D02*
G75*
G02*
X159533649Y-163650000I1700000J0D01*
G01*
%TO.C,C46*%
X149088748Y-116900200D02*
X149611252Y-116900200D01*
X149088748Y-118370200D02*
X149611252Y-118370200D01*
%TO.C,TP1*%
X69150000Y-122800000D02*
G75*
G02*
X65750000Y-122800000I-1700000J0D01*
G01*
X65750000Y-122800000D02*
G75*
G02*
X69150000Y-122800000I1700000J0D01*
G01*
%TO.C,R28*%
X134195200Y-144153735D02*
X134195200Y-143699607D01*
X135665200Y-144153735D02*
X135665200Y-143699607D01*
%TO.C,C50*%
X103888748Y-159600200D02*
X104411252Y-159600200D01*
X103888748Y-161070200D02*
X104411252Y-161070200D01*
%TO.C,Re2*%
X150320814Y-153374800D02*
X149866686Y-153374800D01*
X150320814Y-154844800D02*
X149866686Y-154844800D01*
%TO.C,C41*%
X159561252Y-167922299D02*
X159038748Y-167922299D01*
X159561252Y-169392299D02*
X159038748Y-169392299D01*
%TO.C,R48*%
X143130200Y-147628735D02*
X143130200Y-147174607D01*
X144600200Y-147628735D02*
X144600200Y-147174607D01*
%TO.C,TP23*%
X165775001Y-187425000D02*
G75*
G02*
X162375001Y-187425000I-1700000J0D01*
G01*
X162375001Y-187425000D02*
G75*
G02*
X165775001Y-187425000I1700000J0D01*
G01*
%TO.C,C39*%
X150130002Y-144589800D02*
X149607498Y-144589800D01*
X150130002Y-146059800D02*
X149607498Y-146059800D01*
%TO.C,R16*%
X108277064Y-121699800D02*
X107822936Y-121699800D01*
X108277064Y-123169800D02*
X107822936Y-123169800D01*
%TO.C,R27*%
X132670200Y-151066235D02*
X132670200Y-150612107D01*
X134140200Y-151066235D02*
X134140200Y-150612107D01*
%TO.C,C5*%
X93821252Y-125039800D02*
X93298748Y-125039800D01*
X93821252Y-126509800D02*
X93298748Y-126509800D01*
%TO.C,C45*%
X121561252Y-123129800D02*
X121038748Y-123129800D01*
X121561252Y-124599800D02*
X121038748Y-124599800D01*
%TO.C,R18*%
X85777064Y-125849800D02*
X85322936Y-125849800D01*
X85777064Y-127319800D02*
X85322936Y-127319800D01*
D15*
%TO.C,U15*%
X136762500Y-132172500D02*
X136762500Y-138652500D01*
X155937500Y-132172500D02*
X155937500Y-138652500D01*
D16*
X154070000Y-130372500D02*
G75*
G02*
X153870000Y-130372500I-100000J0D01*
G01*
X153870000Y-130372500D02*
G75*
G02*
X154070000Y-130372500I100000J0D01*
G01*
D12*
%TO.C,TP16*%
X147800000Y-160500000D02*
G75*
G02*
X144400000Y-160500000I-1700000J0D01*
G01*
X144400000Y-160500000D02*
G75*
G02*
X147800000Y-160500000I1700000J0D01*
G01*
%TO.C,R11*%
X123120436Y-174055200D02*
X123574564Y-174055200D01*
X123120436Y-175525200D02*
X123574564Y-175525200D01*
%TO.C,C29*%
X145940200Y-154600423D02*
X145940200Y-154077919D01*
X147410200Y-154600423D02*
X147410200Y-154077919D01*
%TO.C,C19*%
X120078948Y-136858800D02*
X120601452Y-136858800D01*
X120078948Y-138328800D02*
X120601452Y-138328800D01*
%TO.C,R47*%
X140230200Y-147628735D02*
X140230200Y-147174607D01*
X141700200Y-147628735D02*
X141700200Y-147174607D01*
%TO.C,C16*%
X97965000Y-102161252D02*
X97965000Y-101638748D01*
X99435000Y-102161252D02*
X99435000Y-101638748D01*
D13*
%TO.C,U22*%
X95495340Y-155615500D02*
X96762800Y-155615500D01*
X95495340Y-156504500D02*
X96762800Y-156504500D01*
X95495340Y-160695500D02*
X96762800Y-160695500D01*
X95495340Y-161584500D02*
X96762800Y-161584500D01*
D12*
%TO.C,Re3*%
X150320814Y-150512300D02*
X149866686Y-150512300D01*
X150320814Y-151982300D02*
X149866686Y-151982300D01*
%TO.C,TP13*%
X138050000Y-157450000D02*
G75*
G02*
X136650000Y-157450000I-700000J0D01*
G01*
X136650000Y-157450000D02*
G75*
G02*
X138050000Y-157450000I700000J0D01*
G01*
%TO.C,C12*%
X111740200Y-131361252D02*
X111740200Y-130838748D01*
X113210200Y-131361252D02*
X113210200Y-130838748D01*
%TO.C,U6*%
X93827500Y-100140000D02*
X95647500Y-100140000D01*
X93827500Y-100190000D02*
X93827500Y-100140000D01*
X93827500Y-103260000D02*
X93827500Y-103210000D01*
X95647500Y-100140000D02*
X95647500Y-100190000D01*
X95647500Y-101310000D02*
X95647500Y-102090000D01*
X95647500Y-103210000D02*
X95647500Y-103260000D01*
X95647500Y-103260000D02*
X93827500Y-103260000D01*
X93287500Y-100190000D02*
X93047500Y-99860000D01*
X93527500Y-99860000D01*
X93287500Y-100190000D01*
G36*
X93287500Y-100190000D02*
G01*
X93047500Y-99860000D01*
X93527500Y-99860000D01*
X93287500Y-100190000D01*
G37*
D13*
%TO.C,L1*%
X109016800Y-151181853D02*
X109016800Y-153718147D01*
X119583200Y-153718147D02*
X119583200Y-151181853D01*
D12*
%TO.C,TP30*%
X140050000Y-118450000D02*
G75*
G02*
X136650000Y-118450000I-1700000J0D01*
G01*
X136650000Y-118450000D02*
G75*
G02*
X140050000Y-118450000I1700000J0D01*
G01*
D13*
%TO.C,U12*%
X136969300Y-107682700D02*
X136969300Y-115048700D01*
X136969300Y-115048700D02*
X137236254Y-115048700D01*
X137236254Y-107682700D02*
X136969300Y-107682700D01*
X139496346Y-115048700D02*
X140030254Y-115048700D01*
X140030254Y-107682700D02*
X139496346Y-107682700D01*
X142290346Y-115048700D02*
X142824254Y-115048700D01*
X142824254Y-107682700D02*
X142290346Y-107682700D01*
X145084346Y-115048700D02*
X145618254Y-115048700D01*
X145618254Y-107682700D02*
X145084346Y-107682700D01*
X147878346Y-115048700D02*
X148412254Y-115048700D01*
X148412254Y-107682700D02*
X147878346Y-107682700D01*
X150672346Y-115048700D02*
X151206254Y-115048700D01*
X151206254Y-107682700D02*
X150672346Y-107682700D01*
X153466346Y-115048700D02*
X154000254Y-115048700D01*
X153972060Y-107682700D02*
X153466346Y-107682700D01*
X156260346Y-115048700D02*
X156527300Y-115048700D01*
X156527300Y-107682700D02*
X156288540Y-107682700D01*
X156527300Y-115048700D02*
X156527300Y-107682700D01*
D12*
%TO.C,C10*%
X129888748Y-165200200D02*
X130411252Y-165200200D01*
X129888748Y-166670200D02*
X130411252Y-166670200D01*
%TO.C,R9*%
X77494710Y-101685747D02*
X77494710Y-102139875D01*
X78964710Y-101685747D02*
X78964710Y-102139875D01*
%TO.C,R23*%
X163638850Y-174039564D02*
X163638850Y-173585436D01*
X165108850Y-174039564D02*
X165108850Y-173585436D01*
%TO.C,TP2*%
X95900000Y-130850000D02*
G75*
G02*
X92500000Y-130850000I-1700000J0D01*
G01*
X92500000Y-130850000D02*
G75*
G02*
X95900000Y-130850000I1700000J0D01*
G01*
%TO.C,TP26*%
X155200000Y-180000000D02*
G75*
G02*
X151800000Y-180000000I-1700000J0D01*
G01*
X151800000Y-180000000D02*
G75*
G02*
X155200000Y-180000000I1700000J0D01*
G01*
%TO.C,R21*%
X155913849Y-177964564D02*
X155913849Y-177510436D01*
X157383849Y-177964564D02*
X157383849Y-177510436D01*
%TO.C,R6*%
X95377064Y-116649800D02*
X94922936Y-116649800D01*
X95377064Y-118119800D02*
X94922936Y-118119800D01*
%TO.C,TP36*%
X154650000Y-118250000D02*
G75*
G02*
X151250000Y-118250000I-1700000J0D01*
G01*
X151250000Y-118250000D02*
G75*
G02*
X154650000Y-118250000I1700000J0D01*
G01*
%TO.C,R33*%
X141870200Y-151016235D02*
X141870200Y-150562107D01*
X143340200Y-151016235D02*
X143340200Y-150562107D01*
%TO.C,R8*%
X149980200Y-180327064D02*
X149980200Y-179872936D01*
X151450200Y-180327064D02*
X151450200Y-179872936D01*
%TO.C,C42*%
X155344901Y-174029800D02*
X154822397Y-174029800D01*
X155344901Y-175499800D02*
X154822397Y-175499800D01*
%TO.C,TP33*%
X160360000Y-109790000D02*
G75*
G02*
X156960000Y-109790000I-1700000J0D01*
G01*
X156960000Y-109790000D02*
G75*
G02*
X160360000Y-109790000I1700000J0D01*
G01*
%TO.C,C21*%
X153855002Y-157649800D02*
X153332498Y-157649800D01*
X153855002Y-159119800D02*
X153332498Y-159119800D01*
%TO.C,R67*%
X150320814Y-159099800D02*
X149866686Y-159099800D01*
X150320814Y-160569800D02*
X149866686Y-160569800D01*
%TO.C,R31*%
X135970200Y-151066235D02*
X135970200Y-150612107D01*
X137440200Y-151066235D02*
X137440200Y-150612107D01*
%TO.C,R15*%
X104677064Y-121699800D02*
X104222936Y-121699800D01*
X104677064Y-123169800D02*
X104222936Y-123169800D01*
D13*
%TO.C,U20*%
X152751150Y-143545142D02*
X152751150Y-143874860D01*
X152751150Y-144941901D02*
X154351350Y-144941901D01*
X154351350Y-142478101D02*
X152751150Y-142478101D01*
D12*
%TO.C,R36*%
X127772936Y-114980200D02*
X128227064Y-114980200D01*
X127772936Y-116450200D02*
X128227064Y-116450200D01*
%TO.C,C17*%
X120078948Y-130838800D02*
X120601452Y-130838800D01*
X120078948Y-132308800D02*
X120601452Y-132308800D01*
%TO.C,R38*%
X122380200Y-111727064D02*
X122380200Y-111272936D01*
X123850200Y-111727064D02*
X123850200Y-111272936D01*
D13*
%TO.C,U17*%
X126683800Y-159129100D02*
X126683800Y-163370900D01*
X131916200Y-163370900D02*
X131916200Y-159129100D01*
D12*
%TO.C,SW2*%
X72100000Y-133300000D02*
X72100000Y-134800000D01*
X73350000Y-137300000D02*
X77850000Y-137300000D01*
X77850000Y-130800000D02*
X73350000Y-130800000D01*
X79100000Y-134800000D02*
X79100000Y-133300000D01*
%TO.C,C49*%
X137826450Y-173396252D02*
X137826450Y-172873748D01*
X139296450Y-173396252D02*
X139296450Y-172873748D01*
%TO.C,R7*%
X99107064Y-126599800D02*
X98652936Y-126599800D01*
X99107064Y-128069800D02*
X98652936Y-128069800D01*
%TO.C,TP5*%
X102250000Y-120150000D02*
G75*
G02*
X98850000Y-120150000I-1700000J0D01*
G01*
X98850000Y-120150000D02*
G75*
G02*
X102250000Y-120150000I1700000J0D01*
G01*
%TO.C,Q8*%
X153120000Y-94990000D02*
X153120000Y-105210000D01*
X153120000Y-94990000D02*
X168990000Y-94990000D01*
X153120000Y-97075000D02*
X150680000Y-97075000D01*
X153120000Y-98045000D02*
X150680000Y-98045000D01*
X153120000Y-99615000D02*
X150680000Y-99615000D01*
X153120000Y-100585000D02*
X150680000Y-100585000D01*
X153120000Y-102155000D02*
X150680000Y-102155000D01*
X153120000Y-103125000D02*
X150680000Y-103125000D01*
X153120000Y-105210000D02*
X168990000Y-105210000D01*
X168990000Y-94990000D02*
X168990000Y-105210000D01*
%TO.C,R50*%
X134330200Y-147641235D02*
X134330200Y-147187107D01*
X135800200Y-147641235D02*
X135800200Y-147187107D01*
%TO.C,TP27*%
X120100000Y-120650000D02*
G75*
G02*
X116700000Y-120650000I-1700000J0D01*
G01*
X116700000Y-120650000D02*
G75*
G02*
X120100000Y-120650000I1700000J0D01*
G01*
D13*
%TO.C,U16*%
X144570000Y-121698000D02*
X144570000Y-128302000D01*
X144957186Y-121698000D02*
X144570000Y-121698000D01*
X146858540Y-128302000D02*
X147497186Y-128302000D01*
X147497186Y-121698000D02*
X146722814Y-121698000D01*
X149262814Y-128302000D02*
X150037186Y-128302000D01*
X150037186Y-121698000D02*
X149262814Y-121698000D01*
X151802814Y-128302000D02*
X152577186Y-128302000D01*
X152577186Y-121698000D02*
X151802814Y-121698000D01*
X154342814Y-128302000D02*
X154730000Y-128302000D01*
X154730000Y-121698000D02*
X154342814Y-121698000D01*
X154730000Y-128302000D02*
X154730000Y-121698000D01*
X144570000Y-124695200D02*
G75*
G02*
X144570000Y-125304800I0J-304800D01*
G01*
D12*
%TO.C,C38*%
X125111252Y-164179800D02*
X124588748Y-164179800D01*
X125111252Y-165649800D02*
X124588748Y-165649800D01*
%TO.C,Q2*%
X121280000Y-167170000D02*
X121280000Y-170770000D01*
X121291522Y-167131522D02*
G75*
G02*
X125730001Y-168970000I1838478J-1838478D01*
G01*
X125730000Y-168970000D02*
G75*
G02*
X121291522Y-170808478I-2600000J0D01*
G01*
%TO.C,Re4*%
X150320814Y-147649800D02*
X149866686Y-147649800D01*
X150320814Y-149119800D02*
X149866686Y-149119800D01*
%TO.C,R24*%
X78377064Y-125849800D02*
X77922936Y-125849800D01*
X78377064Y-127319800D02*
X77922936Y-127319800D01*
%TO.C,C9*%
X159322397Y-175950200D02*
X159844901Y-175950200D01*
X159322397Y-177420200D02*
X159844901Y-177420200D01*
%TO.C,R51*%
X136557700Y-144153735D02*
X136557700Y-143699607D01*
X138027700Y-144153735D02*
X138027700Y-143699607D01*
%TO.C,R12*%
X126260200Y-167914564D02*
X126260200Y-167460436D01*
X127730200Y-167914564D02*
X127730200Y-167460436D01*
%TO.C,TP31*%
X159800000Y-132600000D02*
G75*
G02*
X156400000Y-132600000I-1700000J0D01*
G01*
X156400000Y-132600000D02*
G75*
G02*
X159800000Y-132600000I1700000J0D01*
G01*
%TO.C,U14*%
X137866250Y-179045000D02*
X137866250Y-176325000D01*
X138846250Y-179045000D02*
X137866250Y-179045000D01*
X141606250Y-179045000D02*
X142586250Y-179045000D01*
X142586250Y-176465000D02*
X142586250Y-179045000D01*
X142766250Y-176155000D02*
X142436250Y-175915000D01*
X142766250Y-175675000D01*
X142766250Y-176155000D01*
G36*
X142766250Y-176155000D02*
G01*
X142436250Y-175915000D01*
X142766250Y-175675000D01*
X142766250Y-176155000D01*
G37*
%TO.C,TP25*%
X136350000Y-125250000D02*
G75*
G02*
X132950000Y-125250000I-1700000J0D01*
G01*
X132950000Y-125250000D02*
G75*
G02*
X136350000Y-125250000I1700000J0D01*
G01*
%TO.C,Q5*%
X120490000Y-157040000D02*
X120540000Y-157040000D01*
X120490000Y-158560000D02*
X120490000Y-157040000D01*
X121490000Y-158560000D02*
X120490000Y-158560000D01*
X121660000Y-157040000D02*
X122440000Y-157040000D01*
X123560000Y-157040000D02*
X123610000Y-157040000D01*
X123610000Y-157040000D02*
X123610000Y-158560000D01*
X123610000Y-158560000D02*
X122610000Y-158560000D01*
X122430000Y-156500000D02*
X122100000Y-156740000D01*
X122100000Y-156260000D01*
X122430000Y-156500000D01*
G36*
X122430000Y-156500000D02*
G01*
X122100000Y-156740000D01*
X122100000Y-156260000D01*
X122430000Y-156500000D01*
G37*
D11*
%TO.C,J1*%
X80024910Y-95837811D02*
X89264910Y-95837811D01*
X80024910Y-96667811D02*
X80024910Y-95837811D01*
X80024910Y-100867811D02*
X80024910Y-99507811D01*
X89264910Y-95837811D02*
X89264910Y-96667811D01*
X89264910Y-99507811D02*
X89264910Y-100867811D01*
D13*
%TO.C,U18*%
X124320000Y-132548000D02*
X124320000Y-139152000D01*
X124320000Y-139152000D02*
X124707186Y-139152000D01*
X124707186Y-132548000D02*
X124320000Y-132548000D01*
X126472814Y-139152000D02*
X127247186Y-139152000D01*
X127247186Y-132548000D02*
X126472814Y-132548000D01*
X129012814Y-139152000D02*
X129787186Y-139152000D01*
X129787186Y-132548000D02*
X129012814Y-132548000D01*
X131552814Y-139152000D02*
X132327186Y-139152000D01*
X132191460Y-132548000D02*
X131552814Y-132548000D01*
X134092814Y-139152000D02*
X134480000Y-139152000D01*
X134480000Y-139152000D02*
X134480000Y-132548000D01*
X134480000Y-136154800D02*
G75*
G02*
X134480000Y-135545200I0J304800D01*
G01*
D12*
%TO.C,R44*%
X151385437Y-187480200D02*
X151839565Y-187480200D01*
X151385437Y-188950200D02*
X151839565Y-188950200D01*
%TO.C,R45*%
X145080200Y-98927064D02*
X145080200Y-98472936D01*
X146550200Y-98927064D02*
X146550200Y-98472936D01*
%TO.C,C40*%
X142147498Y-159611252D02*
X142147498Y-159088748D01*
X143617498Y-159611252D02*
X143617498Y-159088748D01*
%TO.C,Q7*%
X144050000Y-182003150D02*
X154530000Y-182003150D01*
X144050000Y-186923150D02*
X144050000Y-182003150D01*
X145538000Y-184294150D02*
X144050000Y-184293150D01*
X147440000Y-186923150D02*
X147440000Y-185026150D01*
X148078000Y-184294150D02*
X147963000Y-184294150D01*
X150618000Y-184293150D02*
X150503000Y-184294150D01*
X151140000Y-186923150D02*
X151140000Y-185026150D01*
X154530000Y-182003150D02*
X154530000Y-186923150D01*
X154530000Y-184293150D02*
X153042000Y-184293150D01*
X154530000Y-186923150D02*
X144050000Y-186923150D01*
%TO.C,Q3*%
X155490000Y-179790000D02*
X165710000Y-179790000D01*
X155490000Y-181170000D02*
X165710000Y-181170000D01*
X155490000Y-184410000D02*
X155490000Y-179790000D01*
X158750000Y-179790000D02*
X158750000Y-181170000D01*
X162450000Y-179790000D02*
X162450000Y-181170000D01*
X165710000Y-179790000D02*
X165710000Y-184410000D01*
X165710000Y-184410000D02*
X155490000Y-184410000D01*
%TO.C,C48*%
X141156050Y-172823748D02*
X141156050Y-173346252D01*
X142626050Y-172823748D02*
X142626050Y-173346252D01*
%TO.C,TP4*%
X116047500Y-109750000D02*
G75*
G02*
X112647500Y-109750000I-1700000J0D01*
G01*
X112647500Y-109750000D02*
G75*
G02*
X116047500Y-109750000I1700000J0D01*
G01*
D16*
%TO.C,U2*%
X96850001Y-107575004D02*
X93150003Y-107575004D01*
X98500003Y-112875001D02*
X93150003Y-112875001D01*
D12*
%TO.C,C33*%
X153855002Y-146169800D02*
X153332498Y-146169800D01*
X153855002Y-147639800D02*
X153332498Y-147639800D01*
%TO.C,C35*%
X157405002Y-153404800D02*
X156882498Y-153404800D01*
X157405002Y-154874800D02*
X156882498Y-154874800D01*
%TO.C,R29*%
X145655200Y-147609985D02*
X145655200Y-147155857D01*
X147125200Y-147609985D02*
X147125200Y-147155857D01*
%TO.C,R37*%
X121049800Y-120272936D02*
X121049800Y-120727064D01*
X122519800Y-120272936D02*
X122519800Y-120727064D01*
%TO.C,R53*%
X141282700Y-144153735D02*
X141282700Y-143699607D01*
X142752700Y-144153735D02*
X142752700Y-143699607D01*
%TO.C,C44*%
X162462398Y-162055200D02*
X162984902Y-162055200D01*
X162462398Y-163525200D02*
X162984902Y-163525200D01*
%TO.C,R22*%
X163638850Y-177739564D02*
X163638850Y-177285436D01*
X165108850Y-177739564D02*
X165108850Y-177285436D01*
%TO.C,C22*%
X157405002Y-159129800D02*
X156882498Y-159129800D01*
X157405002Y-160599800D02*
X156882498Y-160599800D01*
%TO.C,C31*%
X153855002Y-151909800D02*
X153332498Y-151909800D01*
X153855002Y-153379800D02*
X153332498Y-153379800D01*
%TO.C,C36*%
X157405002Y-150542300D02*
X156882498Y-150542300D01*
X157405002Y-152012300D02*
X156882498Y-152012300D01*
%TO.C,TP35*%
X136350000Y-121550000D02*
G75*
G02*
X132950000Y-121550000I-1700000J0D01*
G01*
X132950000Y-121550000D02*
G75*
G02*
X136350000Y-121550000I1700000J0D01*
G01*
%TO.C,R49*%
X102480200Y-147827064D02*
X102480200Y-147372936D01*
X103950200Y-147827064D02*
X103950200Y-147372936D01*
%TO.C,TP6*%
X102250000Y-124350000D02*
G75*
G02*
X98850000Y-124350000I-1700000J0D01*
G01*
X98850000Y-124350000D02*
G75*
G02*
X102250000Y-124350000I1700000J0D01*
G01*
%TO.C,C24*%
X119750200Y-111711252D02*
X119750200Y-111188748D01*
X121220200Y-111711252D02*
X121220200Y-111188748D01*
%TO.C,TP15*%
X134000000Y-146451671D02*
G75*
G02*
X130600000Y-146451671I-1700000J0D01*
G01*
X130600000Y-146451671D02*
G75*
G02*
X134000000Y-146451671I1700000J0D01*
G01*
%TO.C,TP29*%
X144650000Y-97600000D02*
G75*
G02*
X141250000Y-97600000I-1700000J0D01*
G01*
X141250000Y-97600000D02*
G75*
G02*
X144650000Y-97600000I1700000J0D01*
G01*
%TO.C,TP12*%
X127150000Y-156150000D02*
G75*
G02*
X123750000Y-156150000I-1700000J0D01*
G01*
X123750000Y-156150000D02*
G75*
G02*
X127150000Y-156150000I1700000J0D01*
G01*
%TO.C,D4*%
X158375001Y-186700000D02*
X158375001Y-188660000D01*
X158375001Y-188660000D02*
X159575001Y-188660000D01*
X159575001Y-186700000D02*
X159575001Y-188660000D01*
%TO.C,R54*%
X143645200Y-144153735D02*
X143645200Y-143699607D01*
X145115200Y-144153735D02*
X145115200Y-143699607D01*
%TO.C,R43*%
X146572937Y-187480200D02*
X147027065Y-187480200D01*
X146572937Y-188950200D02*
X147027065Y-188950200D01*
%TO.C,R20*%
X160255201Y-187477064D02*
X160255201Y-187022936D01*
X161725201Y-187477064D02*
X161725201Y-187022936D01*
%TO.C,C3*%
X123088748Y-176450200D02*
X123611252Y-176450200D01*
X123088748Y-177920200D02*
X123611252Y-177920200D01*
%TO.C,R30*%
X144870200Y-151066235D02*
X144870200Y-150612107D01*
X146340200Y-151066235D02*
X146340200Y-150612107D01*
%TO.C,C43*%
X151165000Y-164721252D02*
X151165000Y-164198748D01*
X152635000Y-164721252D02*
X152635000Y-164198748D01*
%TD*%
M02*
